SplineFontDB: 3.0
FontName: Ranga-Regular
FullName: Ranga Regular
FamilyName: Ranga
Weight: Regular
Copyright: Copyright (c) 2014 by TipTopTyp. All rights reserved under SIL openfont License 1.1
Version: 1.0.2
ItalicAngle: 14.3
UnderlinePosition: -204
UnderlineWidth: 30
Ascent: 1624
Descent: 424
UFOAscent: 1556.48
UFODescent: -409.6
LayerCount: 2
Layer: 0 1 "Back"  1
Layer: 1 1 "Fore"  0
FSType: 4
OS2Version: 3
OS2_WeightWidthSlopeOnly: 0
OS2_UseTypoMetrics: 0
CreationTime: 1418123860
ModificationTime: 1418192236
PfmFamily: 65
TTFWeight: 400
TTFWidth: 5
LineGap: 0
VLineGap: 0
Panose: 0 0 0 0 0 0 0 0 0 0
OS2TypoAscent: 1583
OS2TypoAOffset: 0
OS2TypoDescent: -465
OS2TypoDOffset: 0
OS2TypoLinegap: 512
OS2WinAscent: 1836
OS2WinAOffset: 0
OS2WinDescent: 724
OS2WinDOffset: 0
HheadAscent: 1836
HheadAOffset: 0
HheadDescent: -724
HheadDOffset: 0
OS2SubXSize: 1434
OS2SubYSize: 1331
OS2SubXOff: 0
OS2SubYOff: 287
OS2SupXSize: 1434
OS2SupYSize: 1331
OS2SupXOff: 0
OS2SupYOff: 977
OS2StrikeYSize: 102
OS2StrikeYPos: 512
OS2Vendor: 'KORK'
OS2CodePages: 00000001.00000000
OS2UnicodeRanges: 80008223.00002042.00000000.00000000
Lookup: 4 0 0 "halnHalantFormslookup29"  {"halnHalantFormslookup29 subtable"  } ['haln' ('deva' <'dflt' 'MAR ' 'NEP ' > 'DFLT' <'dflt' > ) ]
Lookup: 1 0 0 "LocalizedMrForms_lookup0"  {"LocalizedMrForms_lookup0 subtable"  } ['locl' ('deva' <'MAR ' > ) ]
Lookup: 4 0 0 "LocalizedMrHalfFormslookup1"  {"LocalizedMrHalfFormslookup1 subtable"  } ['locl' ('deva' <'MAR ' > ) ]
Lookup: 1 0 0 "LocalizedNpFormslookup2"  {"LocalizedNpFormslookup2 subtable"  } ['locl' ('deva' <'NEP ' > ) ]
Lookup: 4 0 0 "LocalizedNpFormslookup3"  {"LocalizedNpFormslookup3 subtable"  } ['locl' ('deva' <'NEP ' > ) ]
Lookup: 4 0 0 "NuktaFormslookup5"  {"NuktaFormslookup5 subtable"  } ['nukt' ('deva' <'dflt' 'MAR ' 'NEP ' > ) ]
Lookup: 4 0 0 "AkhandFormslookup6"  {"AkhandFormslookup6 subtable"  } ['akhn' ('deva' <'dflt' 'MAR ' 'NEP ' > ) ]

StartChar: .notdef
Encoding: 65536 -1 0
Width: 1495
VWidth: 0
Flags: W
HStem: 0 102<268 958> 1382 101<610 1300>
LayerCount: 2
Back
SplineSet
610 1382 m 1,0,-1
 268 102 l 1,1,-1
 958 102 l 1,2,-1
 1300 1382 l 1,3,-1
 610 1382 l 1,0,-1
1438 1432 m 2,4,5
 1069 55 l 2,6,7
 1060 23 1060 23 1044.5 11.5 c 128,-1,8
 1029 0 1029 0 995 0 c 2,9,-1
 180 0 l 2,10,11
 119 0 119 0 139 70 c 1,12,-1
 502 1430 l 2,13,14
 509 1460 509 1460 524.5 1471.5 c 128,-1,15
 540 1483 540 1483 569 1483 c 2,16,-1
 1399 1483 l 2,17,18
 1451 1483 1451 1483 1438 1432 c 2,4,5
EndSplineSet
Fore
SplineSet
610 1382 m 1,0,-1
 268 102 l 1,1,-1
 958 102 l 1,2,-1
 1300 1382 l 1,3,-1
 610 1382 l 1,0,-1
1438 1432 m 2,4,5
 1069 55 l 2,6,7
 1060 23 1060 23 1044.5 11.5 c 128,-1,8
 1029 0 1029 0 995 0 c 2,9,-1
 180 0 l 2,10,11
 119 0 119 0 139 70 c 1,12,-1
 502 1430 l 2,13,14
 509 1460 509 1460 524.5 1471.5 c 128,-1,15
 540 1483 540 1483 569 1483 c 2,16,-1
 1399 1483 l 2,17,18
 1451 1483 1451 1483 1438 1432 c 2,4,5
EndSplineSet
EndChar

StartChar: A
Encoding: 65 65 1
Width: 942
VWidth: 0
Flags: W
HStem: 0 21G<635 734.477> 444 148<321.541 613.744> 1461 20G<680 780.5>
LayerCount: 2
Back
SplineSet
248.873290137 444 m 1,0,-1
 51 41 l 2,1,2
 29 -5 29 -5 -25 0 c 2,3,-1
 -72 4 l 1,4,5
 -108 5 -108 5 -119 31 c 128,-1,6
 -130 57 -130 57 -115 82 c 1,7,-1
 567 1397 l 2,8,9
 588 1437 588 1437 618.5 1458 c 128,-1,10
 649 1479 649 1479 680 1479 c 2,11,-1
 762 1481 l 2,12,13
 799 1481 799 1481 820 1456 c 128,-1,14
 841 1431 841 1431 838 1382 c 2,15,-1
 766 45 l 2,16,17
 765 23 765 23 747.5 11.5 c 128,-1,18
 730 0 730 0 705 0 c 2,19,-1
 635 2 l 1,20,21
 585 2 585 2 588 57 c 2,22,-1
 613.744034707 444 l 1,23,-1
 248.873290137 444 l 1,0,-1
321.541396688 592 m 1,24,-1
 623.589298626 592 l 1,25,-1
 670.924649689 1303.57381 l 1,26,-1
 321.541396688 592 l 1,24,-1
EndSplineSet
Fore
SplineSet
248.873290137 444 m 1,0,-1
 51 41 l 2,1,2
 29 -5 29 -5 -25 0 c 2,3,-1
 -72 4 l 1,4,5
 -108 5 -108 5 -119 31 c 128,-1,6
 -130 57 -130 57 -115 82 c 1,7,-1
 567 1397 l 2,8,9
 610.05 1479 610.05 1479 680 1479 c 1,10,-1
 762 1481 l 2,11,12
 799 1481 799 1481 820 1456 c 128,-1,13
 841 1431 841 1431 838 1382 c 2,14,-1
 766 45 l 2,15,16
 763.954545455 9.09494701773e-13 763.954545455 9.09494701773e-13 705 0 c 1,17,-1
 635 2 l 1,18,19
 585 2 585 2 588 57 c 2,20,-1
 613.744034707 444 l 1,21,-1
 248.873290137 444 l 1,0,-1
321.541396688 592 m 1,22,-1
 623.589298626 592 l 1,23,-1
 670.924649689 1303.57381 l 1,24,-1
 321.541396688 592 l 1,22,-1
EndSplineSet
EndChar

StartChar: AE
Encoding: 198 198 2
Width: 1335
VWidth: 0
Flags: W
HStem: 0 141<712.371 1108.16> 444 148<333.418 603.349> 733 141<837.37 1264.29> 1341 142<917.008 1482.14>
LayerCount: 2
Back
SplineSet
240.438040346 444 m 1,0,-1
 -14 39 l 2,1,2
 -30 14 -30 14 -42 5.5 c 128,-1,3
 -54 -3 -54 -3 -82 0 c 1,4,-1
 -154 4 l 2,5,6
 -182 5 -182 5 -190.5 29.5 c 128,-1,7
 -199 54 -199 54 -184 76 c 2,8,-1
 686 1397 l 1,9,10
 745 1483 745 1483 807 1483 c 2,11,-1
 815 1483 l 1,12,-1
 844 1483 l 2,13,14
 851.278688525 1483.59016393 851.278688525 1483.59016393 858.015587208 1483 c 2,15,-1
 1456 1483 l 2,16,17
 1485 1483 1485 1483 1493.5 1472 c 128,-1,18
 1502 1461 1502 1461 1495 1432 c 2,19,-1
 1481 1380 l 2,20,21
 1475 1358 1475 1358 1463.5 1349.5 c 128,-1,22
 1452 1341 1452 1341 1430 1341 c 2,23,-1
 917.008227375 1341 l 1,24,-1
 837.370231862 874 l 1,25,-1
 1249 874 l 2,26,27
 1264 874 1264 874 1274 861.5 c 128,-1,28
 1284 849 1284 849 1278 827 c 2,29,-1
 1264 776 l 2,30,31
 1253 733 1253 733 1202 733 c 2,32,-1
 813.325355273 733 l 1,33,-1
 712.370979806 141 l 1,34,-1
 1094 141 l 2,35,36
 1112 141 1112 141 1119.5 127.5 c 128,-1,37
 1127 114 1127 114 1122 94 c 2,38,-1
 1108 43 l 1,39,40
 1098 0 1098 0 1042 0 c 2,41,-1
 635 0 l 1,42,-1
 594 0 l 1,43,-1
 582 0 l 2,44,45
 556 0 556 0 544 15 c 128,-1,46
 532 30 532 30 535 55 c 1,47,-1
 603.349240781 444 l 1,48,-1
 240.438040346 444 l 1,0,-1
333.417867435 592 m 1,49,-1
 629.353579176 592 l 1,50,-1
 744.255501374 1245.94797696 l 1,51,-1
 333.417867435 592 l 1,49,-1
EndSplineSet
Fore
SplineSet
240.438040346 444 m 1,0,-1
 -14 39 l 2,1,2
 -30 14 -30 14 -42 5.5 c 128,-1,3
 -54 -3 -54 -3 -82 0 c 1,4,-1
 -154 4 l 2,5,6
 -182 5 -182 5 -190.5 29.5 c 128,-1,7
 -199 54 -199 54 -184 76 c 2,8,-1
 686 1397 l 1,9,10
 745 1483 745 1483 807 1483 c 2,11,-1
 844 1483 l 2,12,13
 851.278688525 1483.59016393 851.278688525 1483.59016393 858.015587208 1483 c 2,14,-1
 1456 1483 l 2,15,16
 1485 1483 1485 1483 1493.5 1472 c 128,-1,17
 1502 1461 1502 1461 1495 1432 c 2,18,-1
 1481 1380 l 2,19,20
 1470.36363636 1341 1470.36363636 1341 1430 1341 c 2,21,-1
 917.008227375 1341 l 1,22,-1
 837.370231862 874 l 1,23,-1
 1249 874 l 2,24,25
 1264 874 1264 874 1274 861.5 c 128,-1,26
 1284 849 1284 849 1278 827 c 2,27,-1
 1264 776 l 2,28,29
 1253 733 1253 733 1202 733 c 2,30,-1
 813.325355273 733 l 1,31,-1
 712.370979806 141 l 1,32,-1
 1094 141 l 2,33,34
 1112 141 1112 141 1119.5 127.5 c 128,-1,35
 1127 114 1127 114 1122 94 c 2,36,-1
 1108 43 l 1,37,38
 1098 0 1098 0 1042 0 c 2,39,-1
 582 0 l 2,40,41
 528.4 0 528.4 0 535 55 c 1,42,-1
 603.349240781 444 l 1,43,-1
 240.438040346 444 l 1,0,-1
333.417867435 592 m 1,44,-1
 629.353579176 592 l 1,45,-1
 744.255501374 1245.94797696 l 1,46,-1
 333.417867435 592 l 1,44,-1
EndSplineSet
EndChar

StartChar: Aring
Encoding: 197 197 10
Width: 948
VWidth: 0
Flags: W
HStem: 0 21G<637 736> 444 148<323.893 615.8> 1157.68 122.82<606.283 662.889> 1611.5 112<646.987 814.546>
LayerCount: 2
Back
SplineSet
578 1483 m 1,0,1
 555 1410 555 1410 575.5 1351 c 128,-1,2
 596 1292 596 1292 655 1280 c 1,3,4
 715 1269 715 1269 762 1308.5 c 128,-1,5
 809 1348 809 1348 829 1415 c 0,6,7
 850 1483 850 1483 828 1541 c 128,-1,8
 806 1599 806 1599 748 1612 c 0,9,10
 693 1624 693 1624 645.5 1587.5 c 128,-1,11
 598 1551 598 1551 578 1483 c 1,0,1
432 1452 m 0,12,13
 447 1576 447 1576 531.5 1652 c 128,-1,14
 616 1728 616 1728 739 1724 c 1,15,16
 855 1719 855 1719 921.5 1645 c 128,-1,17
 988 1571 988 1571 975 1452 c 0,18,19
 959 1312 959 1312 869 1226.5 c 0,20,21
 849.467990297 1207.94459078 849.467990297 1207.94459078 827.015861705 1194.35809354 c 1,22,-1
 768 45 l 2,23,24
 765 0 765 0 707 0 c 1,25,-1
 637 2 l 1,26,27
 587 2 587 2 590 57 c 2,28,-1
 615.8 444 l 1,29,-1
 251.130434783 444 l 1,30,-1
 53 41 l 2,31,32
 41 16 41 16 24 6.5 c 128,-1,33
 7 -3 7 -3 -23 0 c 2,34,-1
 -70 4 l 2,35,36
 -103 7 -103 7 -116 28.5 c 128,-1,37
 -129 50 -129 50 -113 82 c 2,38,-1
 484.958213967 1233.19109811 l 1,39,40
 448.833499483 1274.13025218 448.833499483 1274.13025218 437 1324 c 0,41,42
 423 1383 423 1383 432 1452 c 0,12,13
605.466911826 1164.72521521 m 1,43,44
 323.892976589 592 l 1,45,-1
 625.666666667 592 l 1,46,-1
 663.37865214 1157.67978209 l 1,47,48
 645.656337259 1158.54521878 645.656337259 1158.54521878 627 1161 c 0,49,50
 615.926923347 1162.52254804 615.926923347 1162.52254804 605.466911826 1164.72521521 c 1,43,44
EndSplineSet
Fore
SplineSet
645.5 1587.5 m 128,-1,1
 598 1551 598 1551 576.5 1480.5 c 128,-1,2
 555 1410 555 1410 575.5 1351 c 128,-1,3
 596 1292 596 1292 655.5 1280.5 c 128,-1,4
 715 1269 715 1269 762 1308.5 c 128,-1,5
 809 1348 809 1348 829.5 1415.5 c 128,-1,6
 850 1483 850 1483 828 1541 c 128,-1,7
 806 1599 806 1599 749.5 1611.5 c 128,-1,0
 693 1624 693 1624 645.5 1587.5 c 128,-1,1
484.958213967 1233.19109811 m 1,8,9
 413.955239179 1313.65683371 413.955239179 1313.65683371 430.47761959 1444.82841685 c 128,-1,10
 447 1576 447 1576 531.5 1652 c 128,-1,11
 616 1728 616 1728 735.5 1723.5 c 128,-1,12
 855 1719 855 1719 921.5 1645 c 128,-1,13
 988 1571 988 1571 973.5 1441.5 c 128,-1,14
 959 1312 959 1312 869 1226.5 c 0,15,16
 849.467990297 1207.94459078 849.467990297 1207.94459078 827.015861705 1194.35809354 c 1,17,-1
 768 45 l 2,18,19
 765 0 765 0 707 0 c 1,20,-1
 637 2 l 1,21,22
 587 2 587 2 590 57 c 2,23,-1
 615.8 444 l 1,24,-1
 251.130434783 444 l 1,25,-1
 53 41 l 2,26,27
 30.7404580153 -5.37404580153 30.7404580153 -5.37404580153 -23 0 c 2,28,-1
 -70 4 l 2,29,30
 -103 7 -103 7 -116 28.5 c 128,-1,31
 -129 50 -129 50 -113 82 c 2,32,-1
 484.958213967 1233.19109811 l 1,8,9
663.37865214 1157.67978209 m 1,33,34
 631.541145311 1159.23450825 631.541145311 1159.23450825 605.466911826 1164.72521521 c 1,35,-1
 323.892976589 592 l 1,36,-1
 625.666666667 592 l 1,37,-1
 663.37865214 1157.67978209 l 1,33,34
EndSplineSet
EndChar

StartChar: B
Encoding: 66 66 12
Width: 921
VWidth: 0
Flags: W
HStem: 0 145<167.237 433.25> 691.915 145.502<345.43 579.691> 1341 142<209.627 307.309 474.074 695.978>
LayerCount: 2
Back
SplineSet
345.429626412 837.416828176 m 1,0,-1
 512 834 l 2,1,2
 553 833 553 833 587.5 848.5 c 128,-1,3
 622 864 622 864 646 890 c 128,-1,4
 670 916 670 916 688.5 952 c 128,-1,5
 707 988 707 988 718 1023.5 c 128,-1,6
 729 1059 729 1059 735 1098 c 0,7,8
 750 1195 750 1195 716 1268 c 128,-1,9
 682 1341 682 1341 594 1341 c 2,10,-1
 474.074235808 1341 l 1,11,-1
 345.429626412 837.416828176 l 1,0,-1
307.309090909 1341 m 1,12,-1
 256 1341 l 2,13,14
 229 1341 229 1341 209 1357.5 c 128,-1,15
 189 1374 189 1374 195 1395 c 2,16,-1
 207 1442 l 2,17,18
 211 1460 211 1460 226 1471.5 c 128,-1,19
 241 1483 241 1483 254 1483 c 2,20,-1
 393 1483 l 1,21,-1
 453 1483 l 1,22,-1
 594 1483 l 2,23,24
 749 1483 749 1483 831 1402.5 c 128,-1,25
 913 1322 913 1322 913 1161 c 0,26,27
 913 985 913 985 819 868 c 0,28,29
 753.029582959 786.286642528 753.029582959 786.286642528 678.067232188 752.342932989 c 1,30,31
 727.59470235 722.284131802 727.59470235 722.284131802 753.5 676 c 0,32,33
 791 609 791 609 778 481 c 0,34,35
 755 252 755 252 575 100 c 1,36,37
 460 0 460 0 238 0 c 2,38,-1
 82 0 l 1,39,-1
 53 0 l 1,40,-1
 23 0 l 2,41,42
 -2 0 -2 0 -13 18.5 c 128,-1,43
 -24 37 -24 37 -18 63 c 2,44,-1
 307.309090909 1341 l 1,12,-1
167.237339292 139.877789709 m 1,45,-1
 297 145 l 1,46,47
 401 148 401 148 491.5 234 c 128,-1,48
 582 320 582 320 608 449 c 1,49,50
 624 512 624 512 619 566 c 128,-1,51
 614 620 614 620 575 655 c 0,52,53
 549 679 549 679 493 685.5 c 0,54,55
 443.394382922 691.257794839 443.394382922 691.257794839 308.260009535 691.915251 c 1,56,-1
 167.237339292 139.877789709 l 1,45,-1
EndSplineSet
Fore
SplineSet
345.429626412 837.416828176 m 1,0,-1
 512 834 l 2,1,2
 658.176951926 830.43470849 658.176951926 830.43470849 718 1023.5 c 0,3,4
 762.695024876 1167.74303483 762.695024876 1167.74303483 716 1268 c 0,5,6
 682 1341 682 1341 594 1341 c 2,7,-1
 474.074235808 1341 l 1,8,-1
 345.429626412 837.416828176 l 1,0,-1
307.309090909 1341 m 1,9,-1
 256 1341 l 2,10,11
 229 1341 229 1341 209 1357.5 c 128,-1,12
 189 1374 189 1374 195 1395 c 2,13,-1
 207 1442 l 2,14,15
 211 1460 211 1460 226 1471.5 c 128,-1,16
 241 1483 241 1483 254 1483 c 2,17,-1
 594 1483 l 2,18,19
 749 1483 749 1483 831 1402.5 c 128,-1,20
 913 1322 913 1322 913 1153.5 c 128,-1,21
 913 985 913 985 819 868 c 0,22,23
 753.029582959 786.286642528 753.029582959 786.286642528 678.067232188 752.342932989 c 1,24,25
 727.59470235 722.284131802 727.59470235 722.284131802 759.297351175 665.642065901 c 128,-1,26
 791 609 791 609 778 481 c 0,27,28
 755 252 755 252 575 100 c 1,29,30
 460 0 460 0 238 0 c 2,31,-1
 23 0 l 2,32,33
 -2 0 -2 0 -13 18.5 c 128,-1,34
 -24 37 -24 37 -18 63 c 2,35,-1
 307.309090909 1341 l 1,9,-1
167.237339292 139.877789709 m 1,36,-1
 297 145 l 1,37,38
 401 148 401 148 491.5 234 c 128,-1,39
 582 320 582 320 608 449 c 1,40,41
 644.481272788 592.645011601 644.481272788 592.645011601 575 655 c 0,42,43
 549 679 549 679 496.197191461 685.128897419 c 128,-1,44
 443.394382922 691.257794839 443.394382922 691.257794839 308.260009535 691.915251 c 1,45,-1
 167.237339292 139.877789709 l 1,36,-1
EndSplineSet
EndChar

StartChar: C
Encoding: 67 67 13
Width: 866
VWidth: 0
Flags: W
HStem: -16 21G<258 356.5> 1329 170<502.367 699.807>
VStem: 748 164<1056.37 1277.52>
LayerCount: 2
Back
SplineSet
911 1124 m 1,0,1
 911 1109 911 1109 912 1097 c 128,-1,2
 913 1085 913 1085 903 1074.5 c 128,-1,3
 893 1064 893 1064 870 1057 c 2,4,-1
 813 1040 l 2,5,6
 793 1035 793 1035 771 1051.5 c 128,-1,7
 749 1068 749 1068 748 1096 c 1,8,9
 732 1253 732 1253 678 1319 c 1,10,11
 651 1329 651 1329 618 1329 c 1,12,13
 518 1334 518 1334 417 1187.5 c 128,-1,14
 316 1041 316 1041 244 788 c 0,15,16
 211 675 211 675 197 572.5 c 128,-1,17
 183 470 183 470 186 394.5 c 128,-1,18
 189 319 189 319 204 261.5 c 128,-1,19
 219 204 219 204 242.5 172 c 128,-1,20
 266 140 266 140 295 133 c 1,21,22
 374 140 374 140 436.5 200.5 c 128,-1,23
 499 261 499 261 543 354 c 0,24,25
 546 360 546 360 551.5 371.5 c 128,-1,26
 557 383 557 383 559 386.5 c 128,-1,27
 561 390 561 390 565.5 398.5 c 128,-1,28
 570 407 570 407 572 408.5 c 128,-1,29
 574 410 574 410 578 415 c 128,-1,30
 582 420 582 420 585.5 420 c 128,-1,31
 589 420 589 420 593.5 421.5 c 128,-1,32
 598 423 598 423 603.5 421 c 128,-1,33
 609 419 609 419 616 417.5 c 128,-1,34
 623 416 623 416 631 412 c 2,35,-1
 696 385 l 2,36,37
 715 378 715 378 715.5 353.5 c 128,-1,38
 716 329 716 329 702 303 c 0,39,40
 606 129 606 129 515 56.5 c 128,-1,41
 424 -16 424 -16 289 -16 c 0,42,43
 227 -16 227 -16 158 27 c 0,44,45
 47 95 47 95 25.5 320.5 c 128,-1,46
 4 546 4 546 76 829 c 1,47,48
 122 1016 122 1016 210 1168.5 c 128,-1,49
 298 1321 298 1321 414.5 1410 c 128,-1,50
 531 1499 531 1499 651 1499 c 0,51,52
 676 1499 676 1499 718.5 1485 c 128,-1,53
 761 1471 761 1471 786 1452 c 0,54,55
 833 1418 833 1418 867.5 1328.5 c 128,-1,56
 902 1239 902 1239 911 1124 c 1,0,1
EndSplineSet
Fore
SplineSet
867.5 1328.5 m 128,-1,1
 902 1239 902 1239 906.5 1174 c 128,-1,2
 911 1109 911 1109 912 1097 c 0,3,4
 914.212014134 1070.45583039 914.212014134 1070.45583039 870 1057 c 2,5,-1
 813 1040 l 2,6,7
 793 1035 793 1035 771 1051.5 c 128,-1,8
 749 1068 749 1068 748 1096 c 1,9,10
 732 1253 732 1253 678 1319 c 1,11,12
 651 1329 651 1329 618 1329 c 1,13,14
 518 1334 518 1334 417 1187.5 c 128,-1,15
 316 1041 316 1041 244 788 c 1,16,17
 150.32776618 467.243562978 150.32776618 467.243562978 204 261.5 c 0,18,19
 233.6592 147.8064 233.6592 147.8064 295 133 c 1,20,21
 444.717289388 146.266088933 444.717289388 146.266088933 543 354 c 0,22,23
 546 360 546 360 551.5 371.5 c 128,-1,24
 557 383 557 383 559 386.5 c 128,-1,25
 561 390 561 390 565.5 398.5 c 128,-1,26
 570 407 570 407 572 408.5 c 128,-1,27
 574 410 574 410 578 415 c 128,-1,28
 582 420 582 420 585.5 420 c 128,-1,29
 589 420 589 420 593.5 421.5 c 128,-1,30
 598 423 598 423 603.5 421 c 128,-1,31
 609 419 609 419 616 417.5 c 128,-1,32
 623 416 623 416 631 412 c 2,33,-1
 696 385 l 2,34,35
 715 378 715 378 715.5 353.5 c 128,-1,36
 716 329 716 329 702 303 c 0,37,38
 606 129 606 129 515 56.5 c 128,-1,39
 424 -16 424 -16 289 -16 c 0,40,41
 227 -16 227 -16 158 27 c 0,42,43
 47 95 47 95 25.5 320.5 c 128,-1,44
 4 546 4 546 76 829 c 1,45,46
 122 1016 122 1016 210 1168.5 c 128,-1,47
 298 1321 298 1321 414.5 1410 c 128,-1,48
 531 1499 531 1499 651 1499 c 0,49,50
 676 1499 676 1499 718.5 1485 c 128,-1,51
 761 1471 761 1471 786 1452 c 0,52,0
 833 1418 833 1418 867.5 1328.5 c 128,-1,1
EndSplineSet
EndChar

StartChar: D
Encoding: 68 68 18
Width: 858
VWidth: 0
Flags: W
HStem: -8 143<158.577 386.112> 1337 144<169.488 297.036> 1353.8 143.195<468.983 612.243>
LayerCount: 2
Back
SplineSet
468.982741813 1353.80474678 m 1,0,1
 158 137 l 1,2,3
 176 135 176 135 252 135 c 0,4,5
 381 135 381 135 491 284 c 128,-1,6
 601 433 601 433 668 688 c 0,7,8
 696 796 696 796 707.5 886.5 c 128,-1,9
 719 977 719 977 718 1034 c 128,-1,10
 717 1091 717 1091 704.5 1142 c 128,-1,11
 692 1193 692 1193 681 1216 c 128,-1,12
 670 1239 670 1239 653 1268 c 0,13,14
 602.897761592 1349.07453124 602.897761592 1349.07453124 468.982741813 1353.80474678 c 1,0,1
299.925236981 1349.27670013 m 1,15,16
 280.173612165 1347.6637512 280.173612165 1347.6637512 263.5 1345.5 c 0,17,18
 198 1337 198 1337 195 1337 c 0,19,20
 156 1337 156 1337 162 1384 c 2,21,-1
 170 1442 l 2,22,23
 175 1474 175 1474 205 1481 c 1,24,25
 287 1497 287 1497 438 1497 c 0,26,27
 648 1497 648 1497 755 1384 c 128,-1,28
 862 1271 862 1271 870 1075 c 0,29,30
 880 843 880 843 817 639 c 0,31,32
 781 521 781 521 742 428 c 128,-1,33
 703 335 703 335 650 251 c 128,-1,34
 597 167 597 167 536 111.5 c 128,-1,35
 475 56 475 56 394 24 c 128,-1,36
 313 -8 313 -8 219 -8 c 0,37,38
 109 -8 109 -8 37 2 c 0,39,40
 -2 8 -2 8 -15 31.5 c 128,-1,41
 -28 55 -28 55 -16 102 c 2,42,-1
 299.925236981 1349.27670013 l 1,15,16
EndSplineSet
Fore
SplineSet
468.982741813 1353.80474678 m 1,0,1
 158 137 l 1,2,3
 176 135 176 135 252 135 c 0,4,5
 381 135 381 135 491 284 c 128,-1,6
 601 433 601 433 668 688 c 0,7,8
 761.338427948 1048.01965066 761.338427948 1048.01965066 681 1216 c 0,9,10
 670 1239 670 1239 653 1268 c 0,11,12
 602.897761592 1349.07453124 602.897761592 1349.07453124 468.982741813 1353.80474678 c 1,0,1
299.925236981 1349.27670013 m 1,13,-1
 195 1337 l 1,14,15
 156 1337 156 1337 162 1384 c 2,16,-1
 170 1442 l 2,17,18
 175 1474 175 1474 205 1481 c 1,19,20
 287 1497 287 1497 438 1497 c 0,21,22
 648 1497 648 1497 755 1384 c 128,-1,23
 862 1271 862 1271 871 1057 c 0,24,25
 883.284220843 764.908526625 883.284220843 764.908526625 742 428 c 0,26,27
 654.479264643 219.296707995 654.479264643 219.296707995 536 111.5 c 0,28,29
 404.657657658 -8 404.657657658 -8 219 -8 c 0,30,31
 109 -8 109 -8 53.5 0 c 128,-1,32
 -2 8 -2 8 -15 31.5 c 128,-1,33
 -28 55 -28 55 -16 102 c 2,34,-1
 299.925236981 1349.27670013 l 1,13,-1
EndSplineSet
EndChar

StartChar: Danda
Encoding: 65537 -1 19
Width: 430
VWidth: 0
Flags: W
VStem: -16 442
LayerCount: 2
Back
SplineSet
80 -20 m 1,0,1
 6 18 l 1,2,3
 -26 33 -26 33 -16 78 c 2,4,-1
 287 1315 l 2,5,6
 292 1332 292 1332 304.5 1339 c 128,-1,7
 317 1346 317 1346 332 1339 c 1,8,-1
 418 1292 l 2,9,10
 437 1281 437 1281 426 1239 c 2,11,-1
 123 2 l 2,12,13
 117 -26 117 -26 80 -20 c 1,0,1
EndSplineSet
Fore
SplineSet
80 -20 m 1,0,1
 6 18 l 1,2,3
 -26 33 -26 33 -16 78 c 2,4,-1
 287 1315 l 2,5,6
 292 1332 292 1332 304.5 1339 c 128,-1,7
 317 1346 317 1346 332 1339 c 1,8,-1
 418 1292 l 2,9,10
 437 1281 437 1281 426 1239 c 2,11,-1
 123 2 l 2,12,13
 117 -26 117 -26 80 -20 c 1,0,1
EndSplineSet
EndChar

StartChar: Dcroat
Encoding: 272 272 21
Width: 946
VWidth: 0
Flags: W
HStem: -8 143<158 386.112> 729 141<-9.30005 142.814 345.335 555.031> 1337 144<169.488 297.036> 1353.8 143.195<468.983 612.243>
LayerCount: 2
Back
SplineSet
23 870 m 2,0,1
 178.528272657 870 l 1,2,-1
 299.925236981 1349.27670013 l 1,3,4
 280.173612165 1347.6637512 280.173612165 1347.6637512 263.5 1345.5 c 0,5,6
 198 1337 198 1337 195 1337 c 0,7,8
 156 1337 156 1337 162 1384 c 2,9,-1
 170 1442 l 2,10,11
 175 1474 175 1474 205 1481 c 1,12,13
 287 1497 287 1497 438 1497 c 0,14,15
 648 1497 648 1497 755 1384 c 128,-1,16
 862 1271 862 1271 870 1075 c 0,17,18
 880 843 880 843 817 639 c 0,19,20
 781 521 781 521 742 428 c 128,-1,21
 703 335 703 335 650 251 c 128,-1,22
 597 167 597 167 536 111.5 c 128,-1,23
 475 56 475 56 394 24 c 128,-1,24
 313 -8 313 -8 219 -8 c 0,25,26
 109 -8 109 -8 37 2 c 0,27,28
 -2 8 -2 8 -15 31.5 c 128,-1,29
 -28 55 -28 55 -16 102 c 2,30,-1
 142.814097599 729 l 1,31,-1
 14 729 l 2,32,33
 -34 729 -34 729 -23 776 c 1,34,-1
 -4 848 l 2,35,36
 2 870 2 870 23 870 c 2,0,1
468.982741813 1353.80474678 m 1,37,-1
 345.335191083 870 l 1,38,-1
 530 870 l 2,39,40
 551 870 551 870 560.5 857 c 128,-1,41
 570 844 570 844 565 823 c 2,42,-1
 555 772 l 2,43,44
 546 729 546 729 502 729 c 2,45,-1
 309.299363057 729 l 1,46,-1
 158 137 l 1,47,48
 176 135 176 135 252 135 c 0,49,50
 381 135 381 135 491 284 c 128,-1,51
 601 433 601 433 668 688 c 0,52,53
 696 796 696 796 707.5 886.5 c 128,-1,54
 719 977 719 977 718 1034 c 128,-1,55
 717 1091 717 1091 704.5 1142 c 128,-1,56
 692 1193 692 1193 681 1216 c 128,-1,57
 670 1239 670 1239 653 1268 c 0,58,59
 602.897761592 1349.07453124 602.897761592 1349.07453124 468.982741813 1353.80474678 c 1,37,-1
EndSplineSet
Fore
SplineSet
299.925236981 1349.27670013 m 1,0,-1
 195 1337 l 1,1,2
 156 1337 156 1337 162 1384 c 2,3,-1
 170 1442 l 2,4,5
 175 1474 175 1474 205 1481 c 1,6,7
 287 1497 287 1497 438 1497 c 0,8,9
 648 1497 648 1497 755 1384 c 128,-1,10
 862 1271 862 1271 871 1057 c 0,11,12
 883.284220843 764.908526625 883.284220843 764.908526625 742 428 c 0,13,14
 654.479264643 219.296707995 654.479264643 219.296707995 536 111.5 c 0,15,16
 404.657657658 -8 404.657657658 -8 219 -8 c 0,17,18
 109 -8 109 -8 53.5 0 c 128,-1,19
 -2 8 -2 8 -15 31.5 c 128,-1,20
 -28 55 -28 55 -16 102 c 2,21,-1
 142.814097599 729 l 1,22,-1
 14 729 l 2,23,24
 -34 729 -34 729 -23 776 c 1,25,-1
 -4 848 l 2,26,27
 2 870 2 870 23 870 c 2,28,-1
 178.528272657 870 l 1,29,-1
 299.925236981 1349.27670013 l 1,0,-1
468.982741813 1353.80474678 m 1,30,-1
 345.335191083 870 l 1,31,-1
 530 870 l 2,32,33
 551 870 551 870 560.5 857 c 128,-1,34
 570 844 570 844 565 823 c 2,35,-1
 555 772 l 2,36,37
 546 729 546 729 502 729 c 2,38,-1
 309.299363057 729 l 1,39,-1
 158 137 l 1,40,41
 176 135 176 135 252 135 c 0,42,43
 381 135 381 135 491 284 c 128,-1,44
 601 433 601 433 668 688 c 0,45,46
 761.338427948 1048.01965066 761.338427948 1048.01965066 681 1216 c 0,47,48
 670 1239 670 1239 653 1268 c 0,49,50
 602.897761592 1349.07453124 602.897761592 1349.07453124 468.982741813 1353.80474678 c 1,30,-1
EndSplineSet
EndChar

StartChar: E
Encoding: 69 69 22
Width: 817
VWidth: 0
Flags: W
HStem: 0 141<169.524 578.438> 733 141<356.775 733.259> 1341 142<202 309.309 476.074 951.588>
LayerCount: 2
Back
SplineSet
516 0 m 2,0,1
 84 0 l 1,2,-1
 35 0 l 1,3,-1
 25 0 l 2,4,5
 -0 0 -0 0 -11 18.5 c 128,-1,6
 -22 37 -22 37 -16 63 c 2,7,-1
 309.309090909 1341 l 1,8,-1
 227 1341 l 2,9,10
 196 1341 196 1341 189 1350.5 c 128,-1,11
 182 1360 182 1360 190 1395 c 1,12,-1
 203 1442 l 2,13,14
 210 1469 210 1469 220 1476 c 128,-1,15
 230 1483 230 1483 258 1483 c 2,16,-1
 395 1483 l 1,17,-1
 455 1483 l 1,18,-1
 926 1483 l 2,19,20
 955 1483 955 1483 963.5 1472.5 c 128,-1,21
 972 1462 972 1462 965 1432 c 1,22,-1
 950 1380 l 1,23,24
 941 1341 941 1341 899 1341 c 2,25,-1
 476.074235808 1341 l 1,26,-1
 356.77510917 874 l 1,27,-1
 719 874 l 2,28,29
 737 874 737 874 745 860.5 c 128,-1,30
 753 847 753 847 748 827 c 2,31,-1
 733 776 l 1,32,33
 723 733 723 733 672 733 c 2,34,-1
 320.755458515 733 l 1,35,-1
 169.524017467 141 l 1,36,-1
 563 141 l 2,37,38
 581 141 581 141 589 127.5 c 128,-1,39
 597 114 597 114 592 94 c 2,40,-1
 578 43 l 1,41,42
 568 0 568 0 516 0 c 2,0,1
EndSplineSet
Fore
SplineSet
516 0 m 2,0,1
 25 0 l 2,2,3
 -0 0 -0 0 -11 18.5 c 128,-1,4
 -22 37 -22 37 -16 63 c 2,5,-1
 309.309090909 1341 l 1,6,-1
 227 1341 l 2,7,8
 196 1341 196 1341 189 1350.5 c 128,-1,9
 182 1360 182 1360 190 1395 c 1,10,-1
 203 1442 l 2,11,12
 210 1469 210 1469 220 1476 c 128,-1,13
 230 1483 230 1483 258 1483 c 2,14,-1
 926 1483 l 2,15,16
 955 1483 955 1483 963.5 1472.5 c 128,-1,17
 972 1462 972 1462 965 1432 c 1,18,-1
 950 1380 l 1,19,20
 941 1341 941 1341 899 1341 c 2,21,-1
 476.074235808 1341 l 1,22,-1
 356.77510917 874 l 1,23,-1
 719 874 l 2,24,25
 737 874 737 874 745 860.5 c 128,-1,26
 753 847 753 847 748 827 c 2,27,-1
 733 776 l 1,28,29
 723 733 723 733 672 733 c 2,30,-1
 320.755458515 733 l 1,31,-1
 169.524017467 141 l 1,32,-1
 563 141 l 2,33,34
 581 141 581 141 589 127.5 c 128,-1,35
 597 114 597 114 592 94 c 2,36,-1
 578 43 l 1,37,38
 568 0 568 0 516 0 c 2,0,1
EndSplineSet
EndChar

StartChar: Eth
Encoding: 208 208 31
Width: 946
VWidth: 0
Flags: W
HStem: 594 141<121.375 834.031>
LayerCount: 2
Back
SplineSet
154 735 m 2,0,1
 809 735 l 2,2,3
 830 735 830 735 839.5 722 c 128,-1,4
 849 709 849 709 844 688 c 2,5,-1
 834 637 l 2,6,7
 825 594 825 594 780 594 c 2,8,-1
 145 594 l 2,9,10
 98 594 98 594 109 641 c 2,11,-1
 127 713 l 2,12,13
 133 735 133 735 154 735 c 2,0,1
EndSplineSet
Fore
SplineSet
154 735 m 2,0,1
 809 735 l 2,2,3
 830 735 830 735 839.5 722 c 128,-1,4
 849 709 849 709 844 688 c 2,5,-1
 834 637 l 2,6,7
 825 594 825 594 780 594 c 2,8,-1
 145 594 l 2,9,10
 98 594 98 594 109 641 c 2,11,-1
 127 713 l 2,12,13
 133 735 133 735 154 735 c 2,0,1
EndSplineSet
EndChar

StartChar: Euro
Encoding: 8364 8364 32
Width: 921
VWidth: 0
Flags: W
HStem: 559 98<-109.762 28.3733 214.159 758.747> 764 98<-68.25 62.1506 266.984 849.89>
VStem: 28.3733 171.184<172.832 559> 567 151<277.5 399.587> 754 153<1047.52 1286.12>
LayerCount: 2
Back
SplineSet
-72 657 m 2,0,1
 41.1695166223 657 l 1,2,3
 49.7314950231 709.488287244 49.7314950231 709.488287244 62.150628305 764 c 1,4,-1
 -41 764 l 2,5,6
 -63 764 -63 764 -70 772.5 c 128,-1,7
 -77 781 -77 781 -70 811 c 1,8,-1
 -63 836 l 2,9,10
 -56 862 -56 862 -35 862 c 2,11,-1
 87.2070857449 862 l 1,12,13
 122.041227407 983.034124996 122.041227407 983.034124996 178.5 1095.5 c 0,14,15
 241 1220 241 1220 320.5 1315.5 c 128,-1,16
 400 1411 400 1411 499 1459.5 c 128,-1,17
 598 1508 598 1508 696 1487 c 0,18,19
 778 1470 778 1470 837 1380 c 128,-1,20
 896 1290 896 1290 907 1114 c 0,21,22
 910 1064 910 1064 868 1049 c 2,23,-1
 788 1022 l 2,24,25
 768 1015 768 1015 760 1023.5 c 128,-1,26
 752 1032 752 1032 754 1055 c 1,27,28
 764 1328 764 1328 618 1337 c 0,29,30
 523 1343 523 1343 418 1191 c 0,31,32
 331.677948177 1066.03855355 331.677948177 1066.03855355 266.983823084 862 c 1,33,-1
 827 862 l 2,34,35
 862 862 862 862 854 827 c 2,36,-1
 848 799 l 2,37,38
 844 777 844 777 834.5 770.5 c 128,-1,39
 825 764 825 764 805 764 c 2,40,-1
 238.36809771 764 l 1,41,42
 224.21847665 711.489572563 224.21847665 711.489572563 214.15908885 657 c 1,43,-1
 735 657 l 2,44,45
 766 657 766 657 775.5 648 c 128,-1,46
 785 639 785 639 778 612 c 2,47,-1
 772 590 l 2,48,49
 767 571 767 571 759 565 c 128,-1,50
 751 559 751 559 729 559 c 2,51,-1
 199.557162897 559 l 2,52,53
 199.528541045 558.75001955 199.528541045 558.75001955 199.5 558.5 c 0,54,55
 187 449 187 449 191.5 353 c 128,-1,56
 196 257 196 257 229.5 195 c 128,-1,57
 263 133 263 133 322 133 c 0,58,59
 396 133 396 133 463.5 200.5 c 128,-1,60
 531 268 531 268 567 373 c 1,61,62
 577 406 577 406 590.5 411 c 128,-1,63
 604 416 604 416 643 408 c 1,64,-1
 692 395 l 1,65,66
 709 393 709 393 714.5 383 c 128,-1,67
 720 373 720 373 718 361.5 c 128,-1,68
 716 350 716 350 709 328 c 0,69,70
 672 223 672 223 617 150 c 128,-1,71
 562 77 562 77 502.5 44 c 128,-1,72
 443 11 443 11 388 0.5 c 128,-1,73
 333 -10 333 -10 281 -2 c 0,74,75
 180 14 180 14 117 89.5 c 128,-1,76
 54 165 54 165 34.5 281 c 128,-1,77
 15 397 15 397 26.5 538 c 0,78,79
 27.3527948979 548.456007009 27.3527948979 548.456007009 28.3733130752 559 c 1,80,-1
 -86 559 l 2,81,82
 -123 559 -123 559 -115 592 c 2,83,-1
 -106 627 l 2,84,85
 -102 646 -102 646 -94.5 651.5 c 128,-1,86
 -87 657 -87 657 -72 657 c 2,0,1
EndSplineSet
Fore
SplineSet
-72 657 m 2,0,1
 41.1695166223 657 l 1,2,3
 49.7314950231 709.488287244 49.7314950231 709.488287244 62.150628305 764 c 1,4,-1
 -41 764 l 2,5,6
 -63 764 -63 764 -70 772.5 c 128,-1,7
 -77 781 -77 781 -70 811 c 1,8,-1
 -63 836 l 2,9,10
 -56 862 -56 862 -35 862 c 2,11,-1
 87.2070857449 862 l 1,12,13
 163.41925225 1126.80551685 163.41925225 1126.80551685 320.5 1315.5 c 0,14,15
 400 1411 400 1411 499 1459.5 c 128,-1,16
 598 1508 598 1508 688 1489 c 128,-1,17
 778 1470 778 1470 837 1380 c 128,-1,18
 896 1290 896 1290 907 1114 c 0,19,20
 910 1064 910 1064 868 1049 c 2,21,-1
 788 1022 l 2,22,23
 768 1015 768 1015 760 1023.5 c 128,-1,24
 752 1032 752 1032 754 1055 c 1,25,26
 764 1328 764 1328 618 1337 c 0,27,28
 523 1343 523 1343 427.338974088 1204.51927677 c 128,-1,29
 331.677948177 1066.03855355 331.677948177 1066.03855355 266.983823084 862 c 1,30,-1
 827 862 l 2,31,32
 862 862 862 862 854 827 c 2,33,-1
 848 799 l 2,34,35
 844 777 844 777 834.5 770.5 c 128,-1,36
 825 764 825 764 805 764 c 2,37,-1
 238.36809771 764 l 1,38,39
 224.21847665 711.489572563 224.21847665 711.489572563 214.15908885 657 c 1,40,-1
 735 657 l 2,41,42
 766 657 766 657 775.5 648 c 128,-1,43
 785 639 785 639 778 612 c 2,44,-1
 772 590 l 2,45,46
 767 571 767 571 759 565 c 128,-1,47
 751 559 751 559 729 559 c 2,48,-1
 199.557162897 559 l 1,49,50
 170.403297926 304.373000854 170.403297926 304.373000854 229.5 195 c 0,51,52
 263 133 263 133 329.5 133 c 128,-1,53
 396 133 396 133 463.5 200.5 c 128,-1,54
 531 268 531 268 567 373 c 1,55,56
 577 406 577 406 590.5 411 c 128,-1,57
 604 416 604 416 643 408 c 1,58,-1
 692 395 l 1,59,60
 723.187969925 391.330827068 723.187969925 391.330827068 718 361.5 c 0,61,62
 716 350 716 350 709 328 c 0,63,64
 672 223 672 223 617 150 c 128,-1,65
 562 77 562 77 502.5 44 c 0,66,67
 389.471715328 -18.6879562044 389.471715328 -18.6879562044 284.735857664 -2.34397810219 c 128,-1,68
 180 14 180 14 117 89.5 c 0,69,70
 -3.13368391551 233.469732311 -3.13368391551 233.469732311 28.3733130752 559 c 1,71,-1
 -86 559 l 2,72,73
 -123 559 -123 559 -115 592 c 2,74,-1
 -106 627 l 2,75,76
 -102 646 -102 646 -94.5 651.5 c 128,-1,77
 -87 657 -87 657 -72 657 c 2,0,1
EndSplineSet
EndChar

StartChar: Euro.001
Encoding: 65538 -1 33
Width: 1032
VWidth: 0
Flags: W
HStem: -4 137<335.068 529.264> 559 98<-14.5 121.907 307.268 869.65> 764 98<26.7611 156.214 358.908 944.062> 1336.5 158.5<600.867 799.26>
VStem: 121.907 169.621<177.124 559> 181.176 177.732<862 982.233> 662 151.5<280.159 399.354> 848 153<1046.89 1285.18>
LayerCount: 2
Back
SplineSet
825 559 m 2,0,1
 291.528152147 559 l 1,2,3
 286.46355449 519.009126412 286.46355449 519.009126412 284 481 c 0,4,5
 277 373 277 373 290 297 c 128,-1,6
 303 221 303 221 334.5 177 c 128,-1,7
 366 133 366 133 412 133 c 0,8,9
 487 133 487 133 553 196 c 128,-1,10
 619 259 619 259 662 373 c 0,11,12
 667 386 667 386 669 391 c 128,-1,13
 671 396 671 396 676.5 403.5 c 128,-1,14
 682 411 682 411 689 412 c 128,-1,15
 696 413 696 413 708 412.5 c 128,-1,16
 720 412 720 412 737 408 c 2,17,-1
 786 395 l 2,18,19
 810 389 810 389 813.5 376.5 c 128,-1,20
 817 364 817 364 807 340 c 0,21,22
 676 -4 676 -4 420 -4 c 0,23,24
 316 -4 316 -4 252 49 c 0,25,26
 211 82 211 82 181.5 136 c 128,-1,27
 152 190 152 190 133 269 c 128,-1,28
 114 348 114 348 116 461.5 c 0,29,30
 116.825276784 508.334457519 116.825276784 508.334457519 121.907314638 559 c 1,31,-1
 12 559 l 2,32,33
 -12 559 -12 559 -17.5 568.5 c 128,-1,34
 -23 578 -23 578 -16 606 c 2,35,-1
 -10 631 l 1,36,37
 -2 657 -2 657 23 657 c 2,38,-1
 135.116426588 657 l 1,39,40
 139.54866085 683.541402801 139.54866085 683.541402801 145 711 c 0,41,42
 150.319476584 737.901353013 150.319476584 737.901353013 156.213552087 764 c 1,43,-1
 53 764 l 2,44,45
 29 764 29 764 23.5 773.5 c 0,46,47
 21.08 777.68 21.08 777.68 21.08 785.4416 c 0,48,49
 21.08 795.32 21.08 795.32 25 811 c 2,50,-1
 31 836 l 1,51,52
 39 862 39 862 63 862 c 2,53,-1
 181.176121737 862 l 1,54,55
 252.805933599 1112.95442905 252.805933599 1112.95442905 384.5 1280 c 0,56,57
 554 1495 554 1495 735 1495 c 0,58,59
 863 1495 863 1495 938 1366 c 0,60,61
 990 1277 990 1277 1001 1114 c 0,62,63
 1005 1063 1005 1063 963 1049 c 2,64,-1
 883 1022 l 2,65,66
 865 1016 865 1016 855 1023.5 c 128,-1,67
 845 1031 845 1031 848 1055 c 1,68,69
 848 1089 848 1089 847 1110 c 128,-1,70
 846 1131 846 1131 842.5 1169.5 c 128,-1,71
 839 1208 839 1208 830 1232 c 128,-1,72
 821 1256 821 1256 806 1282.5 c 128,-1,73
 791 1309 791 1309 765 1322 c 128,-1,74
 739 1335 739 1335 705 1335 c 1,75,76
 634 1338 634 1338 556.5 1249 c 128,-1,77
 479 1160 479 1160 417 1017.5 c 0,78,79
 384.348465889 942.454135309 384.348465889 942.454135309 358.907959269 862 c 1,80,-1
 922 862 l 2,81,82
 948.947368421 862 948.947368421 862 948.947368421 837.180055402 c 0,83,84
 948.947368421 832.526315789 948.947368421 832.526315789 948 827 c 2,85,-1
 942 799 l 2,86,87
 934 764 934 764 899 764 c 2,88,-1
 331.099491765 764 l 1,89,90
 324.721392269 738.74626521 324.721392269 738.74626521 319 713 c 0,91,92
 312.582525391 684.579755302 312.582525391 684.579755302 307.268193113 657 c 1,93,-1
 848 657 l 2,94,95
 880 657 880 657 874 623 c 1,96,-1
 868 594 l 2,97,98
 860 559 860 559 825 559 c 2,0,1
EndSplineSet
Fore
SplineSet
53 764 m 2,0,1
 21.08 764 21.08 764 21.08 785.4416 c 0,2,3
 21.08 795.32 21.08 795.32 25 811 c 2,4,-1
 31 836 l 1,5,6
 39 862 39 862 63 862 c 2,7,-1
 181.176121737 862 l 1,8,9
 252.805933599 1112.95442905 252.805933599 1112.95442905 384.5 1280 c 0,10,11
 554 1495 554 1495 735 1495 c 0,12,13
 863 1495 863 1495 938 1366 c 0,14,15
 990 1277 990 1277 1001 1114 c 0,16,17
 1005 1063 1005 1063 963 1049 c 2,18,-1
 883 1022 l 2,19,20
 842.173913043 1008.39130435 842.173913043 1008.39130435 848 1055 c 1,21,22
 848 1184 848 1184 834.5 1220 c 128,-1,23
 821 1256 821 1256 806 1282.5 c 0,24,25
 776.283018868 1335 776.283018868 1335 705.141509434 1336.5 c 128,-1,26
 634 1338 634 1338 556.5 1249 c 0,27,28
 438.393291395 1113.3677798 438.393291395 1113.3677798 358.907959269 862 c 1,29,-1
 922 862 l 2,30,31
 948.947368421 862 948.947368421 862 948.947368421 837.180055402 c 0,32,33
 948.947368421 832.526315789 948.947368421 832.526315789 948 827 c 2,34,-1
 942 799 l 2,35,36
 934 764 934 764 899 764 c 2,37,-1
 331.099491765 764 l 1,38,39
 317.543583084 710.32612381 317.543583084 710.32612381 307.268193113 657 c 1,40,-1
 848 657 l 2,41,42
 880 657 880 657 874 623 c 1,43,-1
 868 594 l 2,44,45
 860 559 860 559 825 559 c 2,46,-1
 291.528152147 559 l 1,47,48
 256.880962167 285.420243322 256.880962167 285.420243322 334.5 177 c 0,49,50
 366 133 366 133 426.5 133 c 128,-1,51
 487 133 487 133 553 196 c 128,-1,52
 619 259 619 259 662 373 c 0,53,54
 676.302325581 410.186046512 676.302325581 410.186046512 686.151162791 411.593023256 c 0,55,56
 708.288888889 414.755555556 708.288888889 414.755555556 737 408 c 2,57,-1
 786 395 l 2,58,59
 810 389 810 389 813.5 376.5 c 128,-1,60
 817 364 817 364 807 340 c 0,61,62
 676 -4 676 -4 420 -4 c 0,63,64
 257.981481481 -4 257.981481481 -4 181.5 136 c 0,65,66
 95.3044341706 293.781713722 95.3044341706 293.781713722 121.907314638 559 c 1,67,-1
 12 559 l 2,68,69
 -12 559 -12 559 -17.5 568.5 c 128,-1,70
 -23 578 -23 578 -16 606 c 2,71,-1
 -10 631 l 1,72,73
 -2 657 -2 657 23 657 c 2,74,-1
 135.116426588 657 l 1,75,76
 143.821730509 709.129685441 143.821730509 709.129685441 156.213552087 764 c 1,77,-1
 53 764 l 2,0,1
EndSplineSet
EndChar

StartChar: F
Encoding: 70 70 34
Width: 808
VWidth: 0
Flags: W
HStem: 0 21G<12.5 108.5> 625 141<329.186 717.438> 1341 142<204.125 309.309 476.074 953.588>
LayerCount: 2
Back
SplineSet
655 625 m 2,0,1
 293.165938865 625 l 1,2,-1
 145 45 l 2,3,4
 133 0 133 0 84 0 c 2,5,-1
 25 0 l 2,6,7
 -0 0 -0 0 -11 18.5 c 128,-1,8
 -22 37 -22 37 -16 63 c 2,9,-1
 309.309090909 1341 l 1,10,-1
 229 1341 l 2,11,12
 198 1341 198 1341 191.5 1350.5 c 128,-1,13
 185 1360 185 1360 193 1395 c 2,14,-1
 205 1442 l 2,15,16
 212 1469 212 1469 222 1476 c 128,-1,17
 232 1483 232 1483 260 1483 c 2,18,19
 395 1483 l 1,20,-1
 455 1483 l 1,21,-1
 928 1483 l 2,22,23
 957 1483 957 1483 965.5 1472.5 c 128,-1,24
 974 1462 974 1462 967 1432 c 1,25,-1
 952 1380 l 1,26,27
 943 1341 943 1341 901 1341 c 2,28,-1
 476.074235808 1341 l 1,29,-1
 329.18558952 766 l 1,30,-1
 702 766 l 2,31,32
 720 766 720 766 728 752.5 c 128,-1,33
 736 739 736 739 731 719 c 2,34,-1
 717 668 l 1,35,36
 707 625 707 625 655 625 c 2,0,1
EndSplineSet
Fore
SplineSet
655 625 m 2,0,1
 293.165938865 625 l 1,2,-1
 145 45 l 2,3,4
 133 0 133 0 84 0 c 2,5,-1
 25 0 l 2,6,7
 -0 0 -0 0 -11 18.5 c 128,-1,8
 -22 37 -22 37 -16 63 c 2,9,-1
 309.309090909 1341 l 1,10,-1
 229 1341 l 2,11,12
 198 1341 198 1341 191.5 1350.5 c 128,-1,13
 185 1360 185 1360 193 1395 c 2,14,-1
 205 1442 l 2,15,16
 212 1469 212 1469 222 1476 c 128,-1,17
 232 1483 232 1483 260 1483 c 2,18,19
 928 1483 l 2,20,21
 957 1483 957 1483 965.5 1472.5 c 128,-1,22
 974 1462 974 1462 967 1432 c 1,23,-1
 952 1380 l 1,24,25
 943 1341 943 1341 901 1341 c 2,26,-1
 476.074235808 1341 l 1,27,-1
 329.18558952 766 l 1,28,-1
 702 766 l 2,29,30
 720 766 720 766 728 752.5 c 128,-1,31
 736 739 736 739 731 719 c 2,32,-1
 717 668 l 1,33,34
 707 625 707 625 655 625 c 2,0,1
EndSplineSet
EndChar

StartChar: G
Encoding: 71 71 35
Width: 880
VWidth: 0
Flags: W
HStem: 557 139<418.189 611.61> 1479 20G<581 681>
VStem: 748 163<1057.48 1274.95>
LayerCount: 2
Back
SplineSet
438 696 m 2,0,1
 811 696 l 2,2,3
 844 696 844 696 829 651 c 1,4,-1
 819 616 l 2,5,6
 818 613 818 613 813.5 600 c 0,7,8
 813.026105783 598.630970396 813.026105783 598.630970396 812.57993645 597.361752653 c 0,9,10
 795.563801804 542.231770122 795.563801804 542.231770122 770 477 c 0,11,12
 734 382 734 382 702 314 c 128,-1,13
 670 246 670 246 627.5 181 c 128,-1,14
 585 116 585 116 539.5 76 c 128,-1,15
 494 36 494 36 433.5 12 c 128,-1,16
 373 -12 373 -12 301 -12 c 0,17,18
 255 -12 255 -12 224 -2 c 128,-1,19
 193 8 193 8 152 35 c 0,20,21
 20 122 20 122 20 442 c 0,22,23
 20 610 20 610 76 829 c 1,24,25
 122 1017 122 1017 207.5 1168.5 c 128,-1,26
 293 1320 293 1320 407 1409.5 c 128,-1,27
 521 1499 521 1499 641 1499 c 0,28,29
 721 1499 721 1499 786 1448 c 1,30,31
 834 1412 834 1412 872.5 1299 c 128,-1,32
 911 1186 911 1186 911 1122 c 0,33,34
 911 1072 911 1072 870 1057 c 1,35,-1
 799 1036 l 1,36,37
 778 1031 778 1031 764.5 1042.5 c 128,-1,38
 751 1054 751 1054 750 1087 c 0,39,40
 745 1181 745 1181 716.5 1248.5 c 128,-1,41
 688 1316 688 1316 641 1327 c 1,42,43
 546 1353 546 1353 431.5 1203.5 c 128,-1,44
 317 1054 317 1054 244 788 c 0,45,46
 213 676 213 676 199 573 c 128,-1,47
 185 470 185 470 187.5 393.5 c 128,-1,48
 190 317 190 317 203.5 259 c 128,-1,49
 217 201 217 201 238.5 170 c 128,-1,50
 260 139 260 139 287 137 c 1,51,52
 340 131 340 131 388 159 c 128,-1,53
 436 187 436 187 474.5 244 c 128,-1,54
 513 301 513 301 544 369 c 128,-1,55
 575 437 575 437 602 524 c 0,56,57
 607.711246373 542.085613513 607.711246373 542.085613513 611.610363016 557 c 1,58,-1
 416 557 l 2,59,60
 376 557 376 557 391 614 c 1,61,-1
 408 672 l 2,62,63
 412 687 412 687 418 691.5 c 128,-1,64
 424 696 424 696 438 696 c 2,0,1
EndSplineSet
Fore
SplineSet
438 696 m 2,0,1
 811 696 l 2,2,3
 844 696 844 696 829 651 c 1,4,-1
 819 616 l 2,5,6
 816.584713524 608.754140571 816.584713524 608.754140571 806.074257664 575.492955347 c 128,-1,7
 795.563801804 542.231770122 795.563801804 542.231770122 764.781900902 462.115885061 c 128,-1,8
 734 382 734 382 702 314 c 128,-1,9
 670 246 670 246 627.5 181 c 128,-1,10
 585 116 585 116 539.5 76 c 0,11,12
 439.4 -12 439.4 -12 301 -12 c 0,13,14
 223.37037037 -12 223.37037037 -12 152 35 c 0,15,16
 20 122 20 122 20 442 c 0,17,18
 20 610 20 610 71 813.5 c 128,-1,19
 122 1017 122 1017 207.5 1168.5 c 128,-1,20
 293 1320 293 1320 407 1409.5 c 128,-1,21
 521 1499 521 1499 641 1499 c 0,22,23
 721 1499 721 1499 777.5 1455.5 c 128,-1,24
 834 1412 834 1412 872.5 1299 c 128,-1,25
 911 1186 911 1186 911 1129 c 128,-1,26
 911 1072 911 1072 870 1057 c 1,27,-1
 799 1036 l 1,28,29
 778 1031 778 1031 764.5 1042.5 c 128,-1,30
 751 1054 751 1054 748 1117.5 c 128,-1,31
 745 1181 745 1181 716.5 1248.5 c 128,-1,32
 688 1316 688 1316 641 1327 c 1,33,34
 546 1353 546 1353 431.5 1203.5 c 128,-1,35
 317 1054 317 1054 244 788 c 0,36,37
 155.116163142 466.871299094 155.116163142 466.871299094 203.5 259 c 0,38,39
 230.929824561 141.153346329 230.929824561 141.153346329 287 137 c 1,40,41
 394.043050431 124.881918819 394.043050431 124.881918819 474.5 244 c 0,42,43
 564.690696649 377.52908335 564.690696649 377.52908335 611.610363016 557 c 1,44,-1
 416 557 l 2,45,46
 376 557 376 557 391 614 c 1,47,-1
 408 672 l 2,48,49
 412 687 412 687 418 691.5 c 128,-1,50
 424 696 424 696 438 696 c 2,0,1
EndSplineSet
EndChar

StartChar: Gastick
Encoding: 65539 -1 36
Width: 442
VWidth: 0
Flags: W
HStem: 348 361<276.22 399>
VStem: 190 138<496.788 641>
LayerCount: 2
Back
SplineSet
360 559 m 1,0,1
 346 556 346 556 337 544.5 c 128,-1,2
 328 533 328 533 328 522 c 0,3,4
 328 508 328 508 332 496 c 1,5,6
 343 510 343 510 360 559 c 1,0,1
399 709 m 1,7,-1
 543 1282 l 1,8,-1
 676 1210 l 1,9,-1
 518 578 l 2,10,11
 517 574 517 574 516 570 c 128,-1,12
 515 566 515 566 514.5 563 c 128,-1,13
 514 560 514 560 512.474039931 555.084398672 c 0,14,15
 494 479 494 479 483.5 447.5 c 128,-1,16
 473 416 473 416 444 382 c 128,-1,17
 415 348 415 348 373 348 c 0,18,19
 345 348 345 348 311 367 c 1,20,21
 257 395 257 395 223.5 454.5 c 128,-1,22
 190 514 190 514 190 573 c 0,23,24
 190 709 190 709 381 709 c 2,25,-1
 399 709 l 1,7,-1
EndSplineSet
Fore
SplineSet
360 559 m 1,0,1
 346 556 346 556 337 544.5 c 128,-1,2
 328 533 328 533 328 520.5 c 128,-1,3
 328 508 328 508 332 496 c 1,4,5
 343 510 343 510 360 559 c 1,0,1
399 709 m 1,6,-1
 543 1282 l 1,7,-1
 676 1210 l 1,8,9
 596 890 596 890 555.5 728 c 128,-1,10
 515 566 515 566 514.5 563 c 128,-1,11
 514 560 514 560 504 519.5 c 128,-1,12
 494 479 494 479 483.5 447.5 c 128,-1,13
 473 416 473 416 444 382 c 128,-1,14
 415 348 415 348 380 348 c 128,-1,15
 345 348 345 348 311 367 c 1,16,17
 257 395 257 395 223.5 454.5 c 128,-1,18
 190 514 190 514 190 573 c 0,19,20
 190 709 190 709 381 709 c 2,21,-1
 399 709 l 1,6,-1
EndSplineSet
EndChar

StartChar: H
Encoding: 72 72 39
Width: 1091
VWidth: 0
Flags: W
HStem: 0 21G<10.5 106.5 663.5 760> 727 141<353.242 804.018> 1463 20G<368.5 465.5 1022 1118.5>
LayerCount: 2
Back
SplineSet
332 1438 m 2,0,1
 344 1483 344 1483 393 1483 c 2,2,-1
 453 1483 l 2,3,4
 478 1483 478 1483 489 1464 c 128,-1,5
 500 1445 500 1445 494 1419 c 2,6,-1
 353.242358079 868 l 1,7,-1
 839.909090909 868 l 1,8,-1
 985 1438 l 2,9,10
 997 1483 997 1483 1047 1483 c 2,11,-1
 1106 1483 l 2,12,13
 1131 1483 1131 1483 1142 1464 c 128,-1,14
 1153 1445 1153 1445 1147 1419 c 2,15,-1
 797 45 l 2,16,17
 785 0 785 0 735 0 c 2,18,-1
 676 0 l 2,19,20
 651 0 651 0 640 18.5 c 128,-1,21
 629 37 629 37 635 63 c 2,22,-1
 804.018181818 727 l 1,23,-1
 317.222707424 727 l 1,24,-1
 143 45 l 2,25,26
 131 0 131 0 82 0 c 2,27,-1
 23 0 l 2,28,29
 -2 0 -2 0 -13 18.5 c 128,-1,30
 -24 37 -24 37 -18 63 c 2,31,-1
 332 1438 l 2,0,1
EndSplineSet
Fore
SplineSet
332 1438 m 2,0,1
 344 1483 344 1483 393 1483 c 2,2,-1
 453 1483 l 2,3,4
 478 1483 478 1483 489 1464 c 128,-1,5
 500 1445 500 1445 494 1419 c 2,6,-1
 353.242358079 868 l 1,7,-1
 839.909090909 868 l 1,8,-1
 985 1438 l 2,9,10
 997 1483 997 1483 1047 1483 c 2,11,-1
 1106 1483 l 2,12,13
 1131 1483 1131 1483 1142 1464 c 128,-1,14
 1153 1445 1153 1445 1147 1419 c 2,15,-1
 797 45 l 2,16,17
 785 0 785 0 735 0 c 2,18,-1
 676 0 l 2,19,20
 651 0 651 0 640 18.5 c 128,-1,21
 629 37 629 37 635 63 c 2,22,-1
 804.018181818 727 l 1,23,-1
 317.222707424 727 l 1,24,-1
 143 45 l 2,25,26
 131 0 131 0 82 0 c 2,27,-1
 23 0 l 2,28,29
 -2 0 -2 0 -13 18.5 c 128,-1,30
 -24 37 -24 37 -18 63 c 2,31,-1
 332 1438 l 2,0,1
EndSplineSet
EndChar

StartChar: I
Encoding: 73 73 40
Width: 454
VWidth: 0
Flags: W
HStem: 0 21G<5.5 102.5> 1463 20G<364.5 461.5>
VStem: -23 512
LayerCount: 2
Back
SplineSet
328 1438 m 2,0,1
 340 1483 340 1483 389 1483 c 2,2,-1
 449 1483 l 2,3,4
 474 1483 474 1483 484.5 1464 c 128,-1,5
 495 1445 495 1445 489 1419 c 2,6,-1
 139 45 l 2,7,8
 127 0 127 0 78 0 c 2,9,-1
 18 0 l 2,10,11
 -7 0 -7 0 -18 18.5 c 128,-1,12
 -29 37 -29 37 -23 63 c 2,13,-1
 328 1438 l 2,0,1
EndSplineSet
Fore
SplineSet
328 1438 m 2,0,1
 340 1483 340 1483 389 1483 c 2,2,-1
 449 1483 l 2,3,4
 474 1483 474 1483 484.5 1464 c 128,-1,5
 495 1445 495 1445 489 1419 c 2,6,-1
 139 45 l 2,7,8
 127 0 127 0 78 0 c 2,9,-1
 18 0 l 2,10,11
 -7 0 -7 0 -18 18.5 c 128,-1,12
 -29 37 -29 37 -23 63 c 2,13,-1
 328 1438 l 2,0,1
EndSplineSet
EndChar

StartChar: Iacute
Encoding: 205 205 41
Width: 440
VWidth: 0
Flags: W
HStem: 0 21G<5.5 102.5> 1463 20G<364.5 461.5>
LayerCount: 2
Back
SplineSet
328 1438 m 2,0,1
 340 1483 340 1483 389 1483 c 2,2,-1
 449 1483 l 2,3,4
 474 1483 474 1483 484.5 1464 c 128,-1,5
 495 1445 495 1445 489 1419 c 2,6,-1
 139 45 l 2,7,8
 127 0 127 0 78 0 c 2,9,-1
 18 0 l 2,10,11
 -7 0 -7 0 -18 18.5 c 128,-1,12
 -29 37 -29 37 -23 63 c 2,13,-1
 328 1438 l 2,0,1
676 1876 m 2,14,15
 698 1876 698 1876 704 1863 c 128,-1,16
 710 1850 710 1850 690 1825 c 1,17,-1
 512 1638 l 2,18,19
 499 1623 499 1623 488 1618.5 c 128,-1,20
 477 1614 477 1614 455 1614 c 2,21,-1
 412 1614 l 2,22,23
 395 1614 395 1614 391 1625 c 128,-1,24
 387 1636 387 1636 393 1642 c 1,25,-1
 520 1841 l 2,26,27
 542 1876 542 1876 584 1876 c 2,28,-1
 676 1876 l 2,14,15
EndSplineSet
Fore
SplineSet
328 1438 m 2,0,1
 340 1483 340 1483 389 1483 c 2,2,-1
 449 1483 l 2,3,4
 474 1483 474 1483 484.5 1464 c 128,-1,5
 495 1445 495 1445 489 1419 c 2,6,-1
 139 45 l 2,7,8
 127 0 127 0 78 0 c 2,9,-1
 18 0 l 2,10,11
 -7 0 -7 0 -18 18.5 c 128,-1,12
 -29 37 -29 37 -23 63 c 2,13,-1
 328 1438 l 2,0,1
676 1876 m 2,14,15
 698 1876 698 1876 704 1863 c 128,-1,16
 710 1850 710 1850 690 1825 c 1,17,-1
 512 1638 l 1,18,19
 491.2 1614 491.2 1614 455 1614 c 2,20,-1
 412 1614 l 2,21,22
 395 1614 395 1614 391 1625 c 128,-1,23
 387 1636 387 1636 393 1642 c 1,24,-1
 520 1841 l 2,25,26
 542 1876 542 1876 584 1876 c 2,27,-1
 676 1876 l 2,14,15
EndSplineSet
EndChar

StartChar: Icircumflex
Encoding: 206 206 42
Width: 454
VWidth: 0
Flags: W
HStem: 0 21G<5.5 102.5> 1463 20G<364.5 461.5>
VStem: -23 656
LayerCount: 2
Back
SplineSet
328 1438 m 2,0,1
 340 1483 340 1483 389 1483 c 2,2,-1
 449 1483 l 2,3,4
 474 1483 474 1483 484.5 1464 c 128,-1,5
 495 1445 495 1445 489 1419 c 2,6,-1
 139 45 l 2,7,8
 127 0 127 0 78 0 c 2,9,-1
 18 0 l 2,10,11
 -7 0 -7 0 -18 18.5 c 128,-1,12
 -29 37 -29 37 -23 63 c 2,13,-1
 328 1438 l 2,0,1
454.242424242 1754.63203463 m 1,14,-1
 326 1624 l 2,15,16
 311 1609 311 1609 301 1605.5 c 128,-1,17
 291 1602 291 1602 268 1602 c 2,18,-1
 219 1602 l 2,19,20
 196 1602 196 1602 192 1617 c 128,-1,21
 188 1632 188 1632 207 1649 c 2,22,-1
 414 1835 l 2,23,24
 449 1866 449 1866 465 1864 c 2,25,-1
 483 1862 l 2,26,27
 505 1859 505 1859 524 1825 c 2,28,-1
 633 1636 l 2,29,30
 642 1622 642 1622 636 1612 c 128,-1,31
 630 1602 630 1602 612 1602 c 2,32,-1
 553 1602 l 2,33,34
 532 1602 532 1602 524 1606 c 128,-1,35
 516 1610 516 1610 510 1624 c 2,36,-1
 454.242424242 1754.63203463 l 1,14,-1
EndSplineSet
Fore
SplineSet
328 1438 m 2,0,1
 340 1483 340 1483 389 1483 c 2,2,-1
 449 1483 l 2,3,4
 474 1483 474 1483 484.5 1464 c 128,-1,5
 495 1445 495 1445 489 1419 c 2,6,-1
 139 45 l 2,7,8
 127 0 127 0 78 0 c 2,9,-1
 18 0 l 2,10,11
 -7 0 -7 0 -18 18.5 c 128,-1,12
 -29 37 -29 37 -23 63 c 2,13,-1
 328 1438 l 2,0,1
454.242424242 1754.63203463 m 1,14,-1
 326 1624 l 2,15,16
 311 1609 311 1609 301 1605.5 c 128,-1,17
 291 1602 291 1602 268 1602 c 2,18,-1
 219 1602 l 2,19,20
 196 1602 196 1602 192 1617 c 128,-1,21
 188 1632 188 1632 207 1649 c 2,22,-1
 414 1835 l 2,23,24
 449 1866 449 1866 465 1864 c 2,25,-1
 483 1862 l 2,26,27
 505 1859 505 1859 524 1825 c 2,28,-1
 633 1636 l 2,29,30
 642 1622 642 1622 636 1612 c 128,-1,31
 630 1602 630 1602 612 1602 c 2,32,-1
 553 1602 l 2,33,34
 532 1602 532 1602 524 1606 c 128,-1,35
 516 1610 516 1610 510 1624 c 2,36,-1
 454.242424242 1754.63203463 l 1,14,-1
EndSplineSet
EndChar

StartChar: Idieresis
Encoding: 207 207 43
Width: 454
VWidth: 0
Flags: W
HStem: 0 21G<5.5 102.5> 1463 20G<364.5 461.5> 1663 199<228.909 378.544 500.909 651.059>
VStem: 199 211<1692.91 1831.58> 471 211<1692.91 1831.58>
LayerCount: 2
Back
SplineSet
328 1438 m 2,0,1
 340 1483 340 1483 389 1483 c 2,2,-1
 449 1483 l 2,3,4
 474 1483 474 1483 484.5 1464 c 128,-1,5
 495 1445 495 1445 489 1419 c 2,6,-1
 139 45 l 2,7,8
 127 0 127 0 78 0 c 2,9,-1
 18 0 l 2,10,11
 -7 0 -7 0 -18 18.5 c 128,-1,12
 -29 37 -29 37 -23 63 c 2,13,-1
 328 1438 l 2,0,1
471 1761 m 0,14,15
 471 1803 471 1803 500 1832.5 c 128,-1,16
 529 1862 529 1862 571 1862 c 2,17,-1
 590 1862 l 2,18,19
 624 1862 624 1862 653 1831 c 128,-1,20
 682 1800 682 1800 682 1761 c 0,21,22
 682 1721 682 1721 652 1692 c 128,-1,23
 622 1663 622 1663 578 1663 c 2,24,-1
 561 1663 l 2,25,26
 525 1663 525 1663 498 1692.5 c 128,-1,27
 471 1722 471 1722 471 1761 c 0,14,15
199 1761 m 0,28,29
 199 1803 199 1803 228 1832.5 c 128,-1,30
 257 1862 257 1862 299 1862 c 2,31,-1
 317 1862 l 2,32,33
 351 1862 351 1862 380.5 1831 c 128,-1,34
 410 1800 410 1800 410 1761 c 0,35,36
 410 1721 410 1721 379.5 1692 c 128,-1,37
 349 1663 349 1663 305 1663 c 2,38,-1
 289 1663 l 2,39,40
 253 1663 253 1663 226 1692.5 c 128,-1,41
 199 1722 199 1722 199 1761 c 0,28,29
EndSplineSet
Fore
SplineSet
328 1438 m 2,0,1
 340 1483 340 1483 389 1483 c 2,2,-1
 449 1483 l 2,3,4
 474 1483 474 1483 484.5 1464 c 128,-1,5
 495 1445 495 1445 489 1419 c 2,6,-1
 139 45 l 2,7,8
 127 0 127 0 78 0 c 2,9,-1
 18 0 l 2,10,11
 -7 0 -7 0 -18 18.5 c 128,-1,12
 -29 37 -29 37 -23 63 c 2,13,-1
 328 1438 l 2,0,1
498 1692.5 m 128,-1,15
 471 1722 471 1722 471 1762.5 c 128,-1,16
 471 1803 471 1803 500 1832.5 c 128,-1,17
 529 1862 529 1862 571 1862 c 2,18,-1
 590 1862 l 2,19,20
 624 1862 624 1862 653 1831 c 128,-1,21
 682 1800 682 1800 682 1760.5 c 128,-1,22
 682 1721 682 1721 652 1692 c 128,-1,23
 622 1663 622 1663 578 1663 c 2,24,-1
 561 1663 l 2,25,14
 525 1663 525 1663 498 1692.5 c 128,-1,15
226 1692.5 m 128,-1,27
 199 1722 199 1722 199 1762.5 c 128,-1,28
 199 1803 199 1803 228 1832.5 c 128,-1,29
 257 1862 257 1862 299 1862 c 2,30,-1
 317 1862 l 2,31,32
 351 1862 351 1862 380.5 1831 c 128,-1,33
 410 1800 410 1800 410 1760.5 c 128,-1,34
 410 1721 410 1721 379.5 1692 c 128,-1,35
 349 1663 349 1663 305 1663 c 2,36,-1
 289 1663 l 2,37,26
 253 1663 253 1663 226 1692.5 c 128,-1,27
EndSplineSet
EndChar

StartChar: Igrave
Encoding: 204 204 45
Width: 481
VWidth: 0
Flags: W
HStem: 0 21G<32.5 129> 1463 20G<391 487.5>
VStem: 4 528
LayerCount: 2
Back
SplineSet
354 1438 m 2,0,1
 366 1483 366 1483 416 1483 c 2,2,-1
 475 1483 l 2,3,4
 500 1483 500 1483 511 1464 c 128,-1,5
 522 1445 522 1445 516 1419 c 2,6,-1
 166 45 l 2,7,8
 154 0 154 0 104 0 c 2,9,-1
 45 0 l 2,10,11
 20 0 20 0 9 18.5 c 128,-1,12
 -2 37 -2 37 4 63 c 2,13,-1
 354 1438 l 2,0,1
352 1876 m 6,14,15
 394.404255319 1876 394.404255319 1876 416 1841 c 6,16,-1
 532 1653 l 5,17,18
 541 1636 541 1636 532.5 1625 c 132,-1,19
 524 1614 524 1614 506 1614 c 6,20,-1
 473 1614 l 6,21,22
 453 1614 453 1614 441.5 1620 c 4,23,24
 428.664139689 1626.69480502 428.664139689 1626.69480502 414 1642 c 6,25,-1
 231 1833 l 5,26,27
 216 1853 216 1853 221.5 1864.5 c 132,-1,28
 227 1876 227 1876 244 1876 c 6,29,-1
 352 1876 l 6,14,15
EndSplineSet
Fore
SplineSet
354 1438 m 2,0,1
 366 1483 366 1483 416 1483 c 2,2,-1
 475 1483 l 2,3,4
 500 1483 500 1483 511 1464 c 128,-1,5
 522 1445 522 1445 516 1419 c 2,6,-1
 166 45 l 2,7,8
 154 0 154 0 104 0 c 2,9,-1
 45 0 l 2,10,11
 20 0 20 0 9 18.5 c 128,-1,12
 -2 37 -2 37 4 63 c 2,13,-1
 354 1438 l 2,0,1
352 1876 m 6,14,15
 394.404255319 1876 394.404255319 1876 416 1841 c 6,16,-1
 532 1653 l 5,17,18
 541 1636 541 1636 532.5 1625 c 132,-1,19
 524 1614 524 1614 506 1614 c 6,20,-1
 473 1614 l 6,21,22
 440.827225124 1614 440.827225124 1614 414 1642 c 6,23,-1
 231 1833 l 5,24,25
 216 1853 216 1853 221.5 1864.5 c 132,-1,26
 227 1876 227 1876 244 1876 c 6,27,-1
 352 1876 l 6,14,15
EndSplineSet
EndChar

StartChar: J
Encoding: 74 74 48
Width: 468
VWidth: 0
Flags: W
HStem: 1463 20G<377.5 475.5>
LayerCount: 2
Back
SplineSet
401 1483 m 2,0,1
 463 1483 l 2,2,3
 488 1483 488 1483 499 1464.5 c 128,-1,4
 510 1446 510 1446 504 1421 c 2,5,-1
 162 76 l 2,6,7
 140 -9 140 -9 100.5 -74.5 c 128,-1,8
 61 -140 61 -140 13.5 -178 c 128,-1,9
 -34 -216 -34 -216 -73.5 -236.5 c 128,-1,10
 -113 -257 -113 -257 -154 -268 c 1,11,12
 -191 -280 -191 -280 -203 -256 c 2,13,-1
 -227 -209 l 2,14,15
 -237 -191 -237 -191 -233 -177.5 c 128,-1,16
 -229 -164 -229 -164 -207 -154 c 0,17,18
 -176 -140 -176 -140 -150.5 -123.5 c 128,-1,19
 -125 -107 -125 -107 -94 -78 c 128,-1,20
 -63 -49 -63 -49 -39 -4 c 128,-1,21
 -15 41 -15 41 0 98 c 2,22,-1
 342 1438 l 2,23,24
 354 1483 354 1483 401 1483 c 2,0,1
EndSplineSet
Fore
SplineSet
401 1483 m 2,0,1
 463 1483 l 2,2,3
 488 1483 488 1483 499 1464.5 c 128,-1,4
 510 1446 510 1446 504 1421 c 2,5,-1
 162 76 l 2,6,7
 117.869436202 -94.5044510386 117.869436202 -94.5044510386 13.5 -178 c 0,8,9
 -71.247706422 -245.798165138 -71.247706422 -245.798165138 -154 -268 c 1,10,11
 -191 -280 -191 -280 -203 -256 c 2,12,-1
 -227 -209 l 1,13,14
 -247.362903226 -172.346774194 -247.362903226 -172.346774194 -211.681451613 -156.173387097 c 128,-1,15
 -176 -140 -176 -140 -150.5 -123.5 c 128,-1,16
 -125 -107 -125 -107 -94 -78 c 0,17,18
 -30.7432432432 -18.8243243243 -30.7432432432 -18.8243243243 0 98 c 2,19,-1
 342 1438 l 2,20,21
 354 1483 354 1483 401 1483 c 2,0,1
EndSplineSet
EndChar

StartChar: K
Encoding: 75 75 49
Width: 872
VWidth: 0
Flags: W
HStem: 0 21G<5.5 102.5 540.5 657.966> 1463 20G<364.5 461.5 882.5 1002.5>
LayerCount: 2
Back
SplineSet
328 1438 m 2,0,1
 340 1483 340 1483 389 1483 c 2,2,-1
 449 1483 l 2,3,4
 474 1483 474 1483 484.5 1464 c 128,-1,5
 495 1445 495 1445 489 1419 c 2,6,-1
 344.313067949 851.00044389 l 1,7,-1
 836 1450 l 2,8,9
 862 1483 862 1483 903 1483 c 2,10,-1
 989 1483 l 2,11,12
 1016 1483 1016 1483 1024.5 1465 c 128,-1,13
 1033 1447 1033 1447 1016 1425 c 1,14,-1
 457.267964072 761.743263473 l 1,15,-1
 666 61 l 2,16,17
 675 32 675 32 665.5 16 c 128,-1,18
 656 0 656 0 631 0 c 2,19,-1
 555 0 l 2,20,21
 526 0 526 0 516 10.5 c 128,-1,22
 506 21 506 21 498 51 c 2,23,-1
 305.396617686 698.225579146 l 1,24,-1
 139 45 l 2,25,26
 127 0 127 0 78 0 c 2,27,-1
 18 0 l 2,28,29
 -7 0 -7 0 -18 18.5 c 128,-1,30
 -29 37 -29 37 -23 63 c 2,31,-1
 328 1438 l 2,0,1
EndSplineSet
Fore
SplineSet
328 1438 m 2,0,1
 340 1483 340 1483 389 1483 c 2,2,-1
 449 1483 l 2,3,4
 474 1483 474 1483 484.5 1464 c 128,-1,5
 495 1445 495 1445 489 1419 c 2,6,-1
 344.313067949 851.00044389 l 1,7,-1
 836 1450 l 2,8,9
 862 1483 862 1483 903 1483 c 2,10,-1
 989 1483 l 2,11,12
 1016 1483 1016 1483 1024.5 1465 c 128,-1,13
 1033 1447 1033 1447 1016 1425 c 1,14,-1
 457.267964072 761.743263473 l 1,15,-1
 666 61 l 2,16,17
 684.931034483 4.97379915032e-14 684.931034483 4.97379915032e-14 631 0 c 2,18,-1
 555 0 l 2,19,20
 526 0 526 0 516 10.5 c 128,-1,21
 506 21 506 21 498 51 c 2,22,-1
 305.396617686 698.225579146 l 1,23,-1
 139 45 l 2,24,25
 127 0 127 0 78 0 c 2,26,-1
 18 0 l 2,27,28
 -7 0 -7 0 -18 18.5 c 128,-1,29
 -29 37 -29 37 -23 63 c 2,30,-1
 328 1438 l 2,0,1
EndSplineSet
EndChar

StartChar: L
Encoding: 76 76 51
Width: 788
VWidth: 0
Flags: W
HStem: 0 141<163.454 643.25> 1463 20G<364.5 461.5>
LayerCount: 2
Back
SplineSet
578 0 m 2,0,1
 78 0 l 1,2,-1
 37 0 l 1,3,-1
 18 0 l 2,4,5
 -7 0 -7 0 -18 18.5 c 128,-1,6
 -29 37 -29 37 -23 63 c 2,7,-1
 328 1438 l 2,8,9
 340 1483 340 1483 389 1483 c 2,10,-1
 449 1483 l 2,11,12
 474 1483 474 1483 484.5 1464 c 128,-1,13
 495 1445 495 1445 489 1419 c 2,14,-1
 163.454148472 141 l 1,15,-1
 627 141 l 2,16,17
 646 141 646 141 654 127.5 c 128,-1,18
 662 114 662 114 657 94 c 2,19,-1
 643 43 l 1,20,21
 633 0 633 0 578 0 c 2,0,1
EndSplineSet
Fore
SplineSet
578 0 m 2,0,1
 18 0 l 2,2,3
 -7 0 -7 0 -18 18.5 c 128,-1,4
 -29 37 -29 37 -23 63 c 2,5,-1
 328 1438 l 2,6,7
 340 1483 340 1483 389 1483 c 2,8,-1
 449 1483 l 2,9,10
 474 1483 474 1483 484.5 1464 c 128,-1,11
 495 1445 495 1445 489 1419 c 2,12,-1
 163.454148472 141 l 1,13,-1
 627 141 l 2,14,15
 646 141 646 141 654 127.5 c 128,-1,16
 662 114 662 114 657 94 c 2,17,-1
 643 43 l 1,18,19
 633 0 633 0 578 0 c 2,0,1
EndSplineSet
EndChar

StartChar: Lslash
Encoding: 321 321 55
Width: 792
VWidth: 0
Flags: W
HStem: 0 141<247.454 727.25> 1463 20G<448.5 544.5>
LayerCount: 2
Back
SplineSet
-12 664 m 1,0,1
 263.850849964 857.643643021 l 1,2,-1
 412 1438 l 2,3,4
 424 1483 424 1483 473 1483 c 2,5,-1
 532 1483 l 2,6,7
 557 1483 557 1483 568 1464 c 128,-1,8
 579 1445 579 1445 573 1419 c 2,9,-1
 466.186460375 999.680561588 l 1,10,-1
 743 1194 l 2,11,12
 760 1206 760 1206 775.5 1200.5 c 128,-1,13
 791 1195 791 1195 799 1176 c 2,14,-1
 819 1128 l 2,15,16
 836 1086 836 1086 801 1061 c 2,17,-1
 412.864619212 790.354247991 l 1,18,-1
 247.454148472 141 l 1,19,-1
 711 141 l 2,20,21
 730 141 730 141 738 127.5 c 128,-1,22
 746 114 746 114 741 94 c 2,23,-1
 727 43 l 1,24,25
 717 0 717 0 662 0 c 2,26,-1
 162 0 l 1,27,-1
 121 0 l 1,28,-1
 102 0 l 2,29,30
 77 0 77 0 66 18.5 c 128,-1,31
 55 37 55 37 61 63 c 2,32,-1
 210.685646784 649.375396947 l 1,33,-1
 61 545 l 1,34,35
 20 515 20 515 4 561 c 1,36,-1
 -23 631 l 1,37,38
 -30 654 -30 654 -12 664 c 1,0,1
EndSplineSet
Fore
SplineSet
-12 664 m 1,0,1
 263.850849964 857.643643021 l 1,2,-1
 412 1438 l 2,3,4
 424 1483 424 1483 473 1483 c 2,5,-1
 532 1483 l 2,6,7
 557 1483 557 1483 568 1464 c 128,-1,8
 579 1445 579 1445 573 1419 c 2,9,-1
 466.186460375 999.680561588 l 1,10,-1
 743 1194 l 2,11,12
 760 1206 760 1206 775.5 1200.5 c 128,-1,13
 791 1195 791 1195 799 1176 c 2,14,-1
 819 1128 l 2,15,16
 836 1086 836 1086 801 1061 c 2,17,-1
 412.864619212 790.354247991 l 1,18,-1
 247.454148472 141 l 1,19,-1
 711 141 l 2,20,21
 730 141 730 141 738 127.5 c 128,-1,22
 746 114 746 114 741 94 c 2,23,-1
 727 43 l 1,24,25
 717 0 717 0 662 0 c 2,26,-1
 102 0 l 2,27,28
 77 0 77 0 66 18.5 c 128,-1,29
 55 37 55 37 61 63 c 2,30,-1
 210.685646784 649.375396947 l 1,31,-1
 61 545 l 1,32,33
 20 515 20 515 4 561 c 1,34,-1
 -23 631 l 1,35,36
 -30 654 -30 654 -12 664 c 1,0,1
EndSplineSet
EndChar

StartChar: M
Encoding: 77 77 56
Width: 1171
VWidth: 0
Flags: W
HStem: 0 21G<5.5 102.5 743.5 840> 1463 20G<363.376 474.68 1122 1189.95>
LayerCount: 2
Back
SplineSet
328 1438 m 2,0,1
 339.751271387 1482.0672677 339.751271387 1482.0672677 386.98461243 1482.9806669 c 1,2,-1
 387 1483 l 1,3,-1
 389 1483 l 1,4,-1
 449 1483 l 1,5,-1
 453 1483 l 2,6,7
 477 1483 477 1483 488 1472 c 128,-1,8
 499 1461 499 1461 502 1436 c 0,9,10
 519 1257 519 1257 526 1168 c 128,-1,11
 533 1079 533 1079 540.5 932 c 128,-1,12
 548 785 548 785 542.5 661.5 c 0,13,14
 540.45979716 615.688172585 540.45979716 615.688172585 536.837183815 570.08274654 c 1,15,-1
 1061 1444 l 2,16,17
 1074 1467 1074 1467 1087.5 1475 c 128,-1,18
 1101 1483 1101 1483 1122 1483 c 2,19,-1
 1126 1483 l 1,20,-1
 1186 1483 l 1,21,-1
 1190 1483 l 1,22,-1
 1189.95173908 1482.87575379 l 1,23,24
 1211.88952356 1481.46355021 1211.88952356 1481.46355021 1222 1464 c 0,25,26
 1233 1445 1233 1445 1227 1419 c 2,27,-1
 877 45 l 2,28,29
 865 0 865 0 815 0 c 2,30,-1
 756 0 l 2,31,32
 731 0 731 0 720 18.5 c 128,-1,33
 709 37 709 37 715 63 c 2,34,-1
 950.69681574 988.951776121 l 1,35,36
 908.884337005 914.582177651 908.884337005 914.582177651 877.5 863 c 0,37,38
 827 780 827 780 725.5 620.5 c 128,-1,39
 624 461 624 461 590 406 c 0,40,41
 538 323 538 323 487 326 c 2,42,-1
 446 328 l 2,43,44
 390 331 390 331 395 410 c 0,45,46
 403.358042224 535.788535476 403.358042224 535.788535476 399.17967578 701.10332609 c 0,47,48
 396.333728791 813.701667301 396.333728791 813.701667301 383.005764523 1002.89691559 c 1,49,-1
 139 45 l 2,50,51
 127 0 127 0 78 0 c 2,52,-1
 18 0 l 2,53,54
 -7 0 -7 0 -18 18.5 c 128,-1,55
 -29 37 -29 37 -23 63 c 2,56,-1
 328 1438 l 2,0,1
EndSplineSet
Fore
SplineSet
328 1438 m 2,0,1
 339.751271387 1482.0672677 339.751271387 1482.0672677 387 1483 c 2,2,-1
 453 1483 l 2,3,4
 496.36 1483 496.36 1483 502 1436 c 1,5,6
 558.426042929 841.866959747 558.426042929 841.866959747 536.837183815 570.08274654 c 1,7,-1
 1061 1444 l 1,8,9
 1083.04347826 1483 1083.04347826 1483 1122 1483 c 2,10,-1
 1190 1483 l 1,11,-1
 1189.95173908 1482.87575379 l 1,12,13
 1211.88952356 1481.46355021 1211.88952356 1481.46355021 1222.44476178 1463.2317751 c 128,-1,14
 1233 1445 1233 1445 1227 1419 c 2,15,-1
 877 45 l 2,16,17
 865 0 865 0 815 0 c 2,18,-1
 756 0 l 2,19,20
 731 0 731 0 720 18.5 c 128,-1,21
 709 37 709 37 715 63 c 2,22,-1
 950.69681574 988.951776121 l 1,23,24
 880.379057866 863.881376646 880.379057866 863.881376646 752.189528933 662.440688323 c 128,-1,25
 624 461 624 461 590 406 c 0,26,27
 538 323 538 323 487 326 c 2,28,-1
 446 328 l 2,29,30
 390 331 390 331 395 410 c 0,31,32
 409.451332798 627.492558612 409.451332798 627.492558612 383.005764523 1002.89691559 c 1,33,-1
 139 45 l 2,34,35
 127 0 127 0 78 0 c 2,36,-1
 18 0 l 2,37,38
 -7 0 -7 0 -18 18.5 c 128,-1,39
 -29 37 -29 37 -23 63 c 2,40,-1
 328 1438 l 2,0,1
EndSplineSet
EndChar

StartChar: N
Encoding: 78 78 57
Width: 1058
VWidth: 0
Flags: W
HStem: 0 21G<5.5 102.5 615.767 727> 1463 20G<363.376 469.682 989 1085.5>
LayerCount: 2
Back
SplineSet
328 1438 m 2,0,1
 339.752270069 1482.07101276 339.752270069 1482.07101276 386.992640938 1482.98082184 c 1,2,-1
 387 1483 l 1,3,-1
 389 1483 l 1,4,-1
 414 1483 l 1,5,-1
 449 1483 l 2,6,7
 471.954488127 1483 471.954488127 1483 482.68469847 1466.98198083 c 0,8,9
 483.867978033 1466.00499011 483.867978033 1466.00499011 484.940082645 1464.96840956 c 0,10,11
 495.498148331 1454.76018418 495.498148331 1454.76018418 502 1419 c 2,12,-1
 683.236204213 382.142230835 l 1,13,-1
 952 1438 l 2,14,15
 964 1483 964 1483 1014 1483 c 2,16,-1
 1073 1483 l 2,17,18
 1098 1483 1098 1483 1109 1464 c 128,-1,19
 1120 1445 1120 1445 1114 1419 c 2,20,-1
 764 45 l 2,21,22
 752 0 752 0 702 0 c 2,23,-1
 643 0 l 1,24,-1
 629 0 l 2,25,26
 622 0 622 0 616 1.5 c 128,-1,27
 610 3 610 3 606.5 7 c 128,-1,28
 603 11 603 11 600.5 14 c 128,-1,29
 598 17 598 17 596 24.5 c 128,-1,30
 594 32 594 32 593 36 c 128,-1,31
 592 40 592 40 590.5 49.5 c 128,-1,32
 589 59 589 59 588 63 c 2,33,-1
 406.76765058 1096.17929114 l 1,34,-1
 139 45 l 2,35,36
 127 0 127 0 78 0 c 2,37,-1
 18 0 l 2,38,39
 -7 0 -7 0 -18 18.5 c 128,-1,40
 -29 37 -29 37 -23 63 c 2,41,-1
 328 1438 l 2,0,1
EndSplineSet
Fore
SplineSet
328 1438 m 2,0,1
 339.752270069 1482.07101276 339.752270069 1482.07101276 387 1483 c 2,2,-1
 449 1483 l 2,3,4
 490.363636364 1483 490.363636364 1483 502 1419 c 2,5,-1
 683.236204213 382.142230835 l 1,6,-1
 952 1438 l 2,7,8
 964 1483 964 1483 1014 1483 c 2,9,-1
 1073 1483 l 2,10,11
 1098 1483 1098 1483 1109 1464 c 128,-1,12
 1120 1445 1120 1445 1114 1419 c 2,13,-1
 764 45 l 2,14,15
 752 0 752 0 702 0 c 2,16,-1
 629 0 l 2,17,18
 602.533333333 0 602.533333333 0 596 24.5 c 0,19,20
 592.193548387 38.7741935484 592.193548387 38.7741935484 590.596774194 48.8870967742 c 128,-1,21
 589 59 589 59 588 63 c 2,22,-1
 406.76765058 1096.17929114 l 1,23,-1
 139 45 l 2,24,25
 127 0 127 0 78 0 c 2,26,-1
 18 0 l 2,27,28
 -7 0 -7 0 -18 18.5 c 128,-1,29
 -29 37 -29 37 -23 63 c 2,30,-1
 328 1438 l 2,0,1
EndSplineSet
EndChar

StartChar: Nastick
Encoding: 65541 -1 59
Width: 538
VWidth: 0
Flags: W
HStem: 672 141<426 758>
VStem: 266 537
LayerCount: 2
Back
SplineSet
492 518 m 1,0,-1
 367 504 l 1,1,-1
 272 735 l 1,2,3
 258 758 258 758 266 785.5 c 128,-1,4
 274 813 274 813 311 813 c 2,5,-1
 758 813 l 1,6,-1
 803 672 l 1,7,-1
 426 672 l 1,8,-1
 492 518 l 1,0,-1
EndSplineSet
Fore
SplineSet
492 518 m 1,0,-1
 367 504 l 1,1,-1
 272 735 l 1,2,3
 258 758 258 758 266 785.5 c 128,-1,4
 274 813 274 813 311 813 c 2,5,-1
 758 813 l 1,6,-1
 803 672 l 1,7,-1
 426 672 l 1,8,-1
 492 518 l 1,0,-1
EndSplineSet
EndChar

StartChar: Nastick45
Encoding: 65542 -1 60
Width: 638
VWidth: 0
Flags: W
HStem: -121 152<334.904 389>
LayerCount: 2
Back
SplineSet
389 18 m 1,0,-1
 412 -121 l 1,1,-1
 170 -76 l 1,2,-1
 155 -70 l 2,3,4
 140 -64 140 -64 123 -52 c 128,-1,5
 106 -40 106 -40 92 -25 c 128,-1,6
 78 -10 78 -10 79.5 10.5 c 128,-1,7
 81 31 81 31 104 51 c 2,8,-1
 481 381 l 1,9,-1
 588 262 l 1,10,-1
 322 31 l 1,11,-1
 389 18 l 1,0,-1
EndSplineSet
Fore
SplineSet
389 18 m 1,0,-1
 412 -121 l 1,1,-1
 170 -76 l 1,2,3
 121.489361702 -56.5957446809 121.489361702 -56.5957446809 99.7446808511 -33.2978723404 c 0,4,5
 58.2208 11.192 58.2208 11.192 104 51 c 2,6,-1
 481 381 l 1,7,-1
 588 262 l 1,8,-1
 322 31 l 1,9,-1
 389 18 l 1,0,-1
EndSplineSet
EndChar

StartChar: O
Encoding: 79 79 64
Width: 913
VWidth: 0
Flags: W
HStem: -10 139<239.005 443.249> 1331 168<501.551 714.567>
VStem: 14 918<444 1070.5>
LayerCount: 2
Back
SplineSet
242 788 m 0,0,1
 209 672 209 672 194.5 566.5 c 128,-1,2
 180 461 180 461 184.5 383 c 128,-1,3
 189 305 189 305 206 246.5 c 128,-1,4
 223 188 223 188 251.5 158.5 c 128,-1,5
 280 129 280 129 315 129 c 0,6,7
 424 129 424 129 506 236 c 1,8,9
 606 375 606 375 698 674 c 0,10,11
 741 814 741 814 756.5 937.5 c 128,-1,12
 772 1061 772 1061 761.5 1146.5 c 128,-1,13
 751 1232 751 1232 718 1281.5 c 128,-1,14
 685 1331 685 1331 633 1331 c 0,15,16
 520 1331 520 1331 432 1217 c 1,17,18
 325 1075 325 1075 242 788 c 0,0,1
74 829 m 0,19,20
 104 929 104 929 144.5 1023 c 128,-1,21
 185 1117 185 1117 239.5 1204.5 c 128,-1,22
 294 1292 294 1292 355 1356.5 c 128,-1,23
 416 1421 416 1421 490 1460 c 128,-1,24
 564 1499 564 1499 641 1499 c 0,25,26
 720 1499 720 1499 819 1442 c 1,27,28
 884 1403 884 1403 908 1318 c 128,-1,29
 932 1233 932 1233 932 1083 c 0,30,31
 932 908 932 908 860 635 c 0,32,33
 834 536 834 536 800 447.5 c 128,-1,34
 766 359 766 359 716 273.5 c 128,-1,35
 666 188 666 188 607 126.5 c 128,-1,36
 548 65 548 65 470 27.5 c 128,-1,37
 392 -10 392 -10 305 -10 c 0,38,39
 282 -10 282 -10 239.5 0.5 c 128,-1,40
 197 11 197 11 160 31 c 0,41,42
 88 68 88 68 51 177 c 128,-1,43
 14 286 14 286 14 444 c 0,44,45
 14 629 14 629 74 829 c 0,19,20
EndSplineSet
Fore
SplineSet
206 246.5 m 0,0,1
 240.145299145 129 240.145299145 129 315 129 c 0,2,3
 424 129 424 129 506 236 c 1,4,5
 606 375 606 375 698 674 c 0,6,7
 784.814631303 956.652287963 784.814631303 956.652287963 761.5 1146.5 c 0,8,9
 751 1232 751 1232 718 1281.5 c 128,-1,10
 685 1331 685 1331 633 1331 c 0,11,12
 520 1331 520 1331 432 1217 c 1,13,14
 325 1075 325 1075 235.674311339 763.38545804 c 128,-1,15
 146.348622678 451.770916079 146.348622678 451.770916079 206 246.5 c 0,0,1
14 444 m 0,16,17
 14 720.111111111 14 720.111111111 144.5 1023 c 0,18,19
 286.594624756 1352.7998698 286.594624756 1352.7998698 490 1460 c 0,20,21
 564 1499 564 1499 642 1499 c 128,-1,22
 720 1499 720 1499 819 1442 c 1,23,24
 884 1403 884 1403 908 1318 c 128,-1,25
 932 1233 932 1233 932 1070.5 c 128,-1,26
 932 908 932 908 860 635 c 0,27,28
 733.757225434 154.306358382 733.757225434 154.306358382 470 27.5 c 0,29,30
 392 -10 392 -10 305 -10 c 0,31,32
 235.85 -10 235.85 -10 161.925 29 c 0,33,34
 14 107.039567129 14 107.039567129 14 444 c 0,16,17
EndSplineSet
EndChar

StartChar: OE
Encoding: 338 338 65
Width: 1710
VWidth: 0
Flags: W
HStem: 0 141<352.773 464.671 626.454 1034.26> 733 141<813.172 1190.16> 1341 142<574.74 766.239 932.131 1408.14>
LayerCount: 2
Back
SplineSet
629 141 m 1,0,-1
 1020 141 l 2,1,2
 1038 141 1038 141 1046 127.5 c 128,-1,3
 1054 114 1054 114 1049 94 c 2,4,-1
 1034 43 l 1,5,6
 1024 0 1024 0 973 0 c 2,7,-1
 541 0 l 1,8,-1
 498 0 l 1,9,-1
 492 0 l 1,10,-1
 481 0 l 2,11,12
 477.328294801 0 477.328294801 0 473.958573407 0.399050518724 c 0,13,14
 287.927845272 6.67039603975 287.927845272 6.67039603975 192.5 111.5 c 0,15,16
 91 223 91 223 78 416 c 0,17,18
 65 597 65 597 135 848 c 0,19,20
 176 995 176 995 228 1106.5 c 128,-1,21
 280 1218 280 1218 351.5 1305 c 128,-1,22
 423 1392 423 1392 519 1437.5 c 128,-1,23
 615 1483 615 1483 733 1483 c 2,24,-1
 852 1483 l 1,25,-1
 893 1483 l 1,26,-1
 911 1483 l 1,27,-1
 1382 1483 l 2,28,29
 1411 1483 1411 1483 1419.5 1472.5 c 128,-1,30
 1428 1462 1428 1462 1421 1432 c 1,31,-1
 1407 1380 l 1,32,33
 1398 1341 1398 1341 1356 1341 c 2,34,-1
 965 1341 l 1,35,-1
 932.131004367 1341 l 1,36,-1
 813.171761281 874 l 1,37,-1
 1176 874 l 2,38,39
 1194 874 1194 874 1201.5 860.5 c 128,-1,40
 1209 847 1209 847 1204 827 c 2,41,-1
 1190 776 l 1,42,43
 1180 733 1180 733 1128 733 c 2,44,-1
 777.254730713 733 l 1,45,-1
 626.454148472 141 l 1,46,-1
 629 141 l 1,0,-1
766.238545455 1341 m 1,47,-1
 713 1341 l 2,48,49
 581 1341 581 1341 467 1195.5 c 128,-1,50
 353 1050 353 1050 287 799 c 0,51,52
 184 403 184 403 291 244 c 1,53,54
 326 190 326 190 388 165.5 c 0,55,56
 423.843735489 151.335943234 423.843735489 151.335943234 461.024383959 145.360478471 c 1,57,-1
 766.238545455 1341 l 1,47,-1
EndSplineSet
Fore
SplineSet
626.454148472 141 m 1,0,-1
 1020 141 l 2,1,2
 1038 141 1038 141 1046 127.5 c 128,-1,3
 1054 114 1054 114 1049 94 c 2,4,-1
 1034 43 l 1,5,6
 1024 0 1024 0 973 0 c 2,7,-1
 481 0 l 2,8,9
 293.999999484 0 293.999999484 0 192.5 111.5 c 0,10,11
 -8.74487327795 332.571954389 -8.74487327795 332.571954389 135 848 c 0,12,13
 265.969664802 1317.57416405 265.969664802 1317.57416405 519 1437.5 c 0,14,15
 615 1483 615 1483 733 1483 c 2,16,-1
 1382 1483 l 2,17,18
 1411 1483 1411 1483 1419.5 1472.5 c 128,-1,19
 1428 1462 1428 1462 1421 1432 c 1,20,-1
 1407 1380 l 1,21,22
 1398 1341 1398 1341 1356 1341 c 2,23,-1
 932.131004367 1341 l 1,24,-1
 813.171761281 874 l 1,25,-1
 1176 874 l 2,26,27
 1194 874 1194 874 1201.5 860.5 c 128,-1,28
 1209 847 1209 847 1204 827 c 2,29,-1
 1190 776 l 1,30,31
 1180 733 1180 733 1128 733 c 2,32,-1
 777.254730713 733 l 1,33,-1
 626.454148472 141 l 1,0,-1
766.238545455 1341 m 1,34,-1
 713 1341 l 2,35,36
 581 1341 581 1341 467 1195.5 c 128,-1,37
 353 1050 353 1050 287 799 c 0,38,39
 184 403 184 403 291 244 c 1,40,41
 342.596810636 164.393492162 342.596810636 164.393492162 461.024383959 145.360478471 c 1,42,-1
 766.238545455 1341 l 1,34,-1
EndSplineSet
EndChar

StartChar: Oslash
Encoding: 216 216 72
Width: 921
VWidth: 0
Flags: W
HStem: -10 139<251.928 451.313> 1331 168<509.587 722.27>
VStem: 23 917<444 1083>
LayerCount: 2
Back
SplineSet
1106 1395 m 2,0,1
 936.391601931 1189.55219993 l 1,2,3
 940 1141.16247235 940 1141.16247235 940 1083 c 0,4,5
 940 908 940 908 868 635 c 0,6,7
 842 536 842 536 808 447.5 c 128,-1,8
 774 359 774 359 724 273.5 c 128,-1,9
 674 188 674 188 615 126.5 c 128,-1,10
 556 65 556 65 478 27.5 c 128,-1,11
 400 -10 400 -10 313 -10 c 0,12,13
 290 -10 290 -10 247.5 0.5 c 128,-1,14
 205 11 205 11 168 31 c 0,15,16
 107.846488842 61.9122210118 107.846488842 61.9122210118 72.4720660549 143.080621255 c 1,17,-1
 27 88 l 1,18,19
 -16 34 -16 34 -43 55 c 2,20,-1
 -84 88 l 2,21,22
 -107 106 -107 106 -107.5 121.5 c 128,-1,23
 -108 137 -108 137 -82 172 c 1,24,-1
 30.5945031025 310.053430483 l 1,25,26
 23 371.929035077 23 371.929035077 23 444 c 0,27,28
 23 633 23 633 82 829 c 0,29,30
 112 929 112 929 152.5 1023 c 128,-1,31
 193 1117 193 1117 247.5 1204.5 c 128,-1,32
 302 1292 302 1292 363 1356.5 c 128,-1,33
 424 1421 424 1421 498 1460 c 128,-1,34
 572 1499 572 1499 649 1499 c 0,35,36
 728 1499 728 1499 827 1442 c 0,37,38
 870.080743409 1416.15155395 870.080743409 1416.15155395 895.151080058 1370.09631008 c 1,39,-1
 975 1468 l 2,40,41
 989 1484 989 1484 997.5 1490.5 c 128,-1,42
 1006 1497 1006 1497 1019.5 1497 c 128,-1,43
 1033 1497 1033 1497 1051 1485 c 2,44,-1
 1081 1464 l 1,45,46
 1135 1429 1135 1429 1106 1395 c 2,0,1
250 788 m 0,47,48
 217 672 217 672 202.5 566.5 c 0,49,50
 198.701518378 538.862771644 198.701518378 538.862771644 196.206916851 513.112738163 c 1,51,-1
 759.773573458 1204.10837389 l 1,52,53
 747.774936555 1250.06389972 747.774936555 1250.06389972 726.5 1281.5 c 0,54,55
 693 1331 693 1331 641 1331 c 0,56,57
 528 1331 528 1331 440 1217 c 1,58,59
 333 1075 333 1075 250 788 c 0,47,48
201.943839685 299.910656597 m 1,60,61
 207.041087323 271.43407952 207.041087323 271.43407952 214.5 246.5 c 0,62,63
 232 188 232 188 260.5 158.5 c 128,-1,64
 289 129 289 129 324 129 c 0,65,66
 432 129 432 129 514 236 c 1,67,68
 616 377 616 377 707 674 c 0,69,70
 750 814 750 814 765.5 937.5 c 0,71,72
 768.856438892 964.24323891 768.856438892 964.24323891 770.993698874 989.204600953 c 1,73,-1
 201.943839685 299.910656597 l 1,60,61
EndSplineSet
Fore
SplineSet
1106 1395 m 2,0,1
 936.391601931 1189.55219993 l 1,2,3
 940 1141.16247235 940 1141.16247235 940 1083 c 0,4,5
 940 908 940 908 868 635 c 0,6,7
 741.757225434 154.306358382 741.757225434 154.306358382 478 27.5 c 0,8,9
 400 -10 400 -10 313 -10 c 0,10,11
 243.85 -10 243.85 -10 175.848244421 25.9561105059 c 128,-1,12
 107.846488842 61.9122210118 107.846488842 61.9122210118 72.4720660549 143.080621255 c 1,13,-1
 27 88 l 1,14,15
 -16 34 -16 34 -43 55 c 2,16,-1
 -84 88 l 2,17,18
 -107 106 -107 106 -107.5 121.5 c 128,-1,19
 -108 137 -108 137 -82 172 c 1,20,-1
 30.5945031025 310.053430483 l 1,21,22
 23 371.929035077 23 371.929035077 23 444 c 0,23,24
 23 722.432098765 23 722.432098765 152.5 1023 c 0,25,26
 294.594624756 1352.7998698 294.594624756 1352.7998698 498 1460 c 0,27,28
 572 1499 572 1499 650 1499 c 128,-1,29
 728 1499 728 1499 827 1442 c 0,30,31
 870.080743409 1416.15155395 870.080743409 1416.15155395 895.151080058 1370.09631008 c 1,32,-1
 975 1468 l 1,33,34
 1000.375 1497 1000.375 1497 1016.6875 1497 c 128,-1,35
 1033 1497 1033 1497 1051 1485 c 2,36,-1
 1081 1464 l 1,37,38
 1135 1429 1135 1429 1106 1395 c 2,0,1
759.773573458 1204.10837389 m 1,39,40
 726.643138756 1331 726.643138756 1331 641 1331 c 0,41,42
 528 1331 528 1331 440 1217 c 1,43,44
 333 1075 333 1075 250 788 c 0,45,46
 208.81078221 643.213658677 208.81078221 643.213658677 196.206916851 513.112738163 c 1,47,-1
 759.773573458 1204.10837389 l 1,39,40
201.943839685 299.910656597 m 1,48,49
 219.695933338 200.7357883 219.695933338 200.7357883 254.347966669 164.86789415 c 128,-1,50
 289 129 289 129 324 129 c 0,51,52
 432 129 432 129 514 236 c 1,53,54
 616 377 616 377 707 674 c 0,55,56
 758.308329475 841.050375035 758.308329475 841.050375035 770.993698874 989.204600953 c 1,57,-1
 201.943839685 299.910656597 l 1,48,49
EndSplineSet
EndChar

StartChar: P
Encoding: 80 80 74
Width: 919
VWidth: 0
Flags: W
HStem: 0 21G<10.5 106.5> 612.927 141.44<324.214 582.965> 1342.93 140.071<206.159 307.8 474.309 716.192>
VStem: 745 166<965.827 1311.98>
LayerCount: 2
Back
SplineSet
324.213846255 754.367022092 m 1,0,-1
 438 760 l 1,1,2
 601 766 601 766 664 883 c 0,3,4
 704 957 704 957 724.5 1052.5 c 128,-1,5
 745 1148 745 1148 745 1212 c 0,6,7
 745 1333 745 1333 606 1339 c 0,8,9
 560.885416013 1340.91976953 560.885416013 1340.91976953 474.308787675 1341.9181603 c 1,10,-1
 324.213846255 754.367022092 l 1,0,-1
307.800116927 1342.92903078 m 1,11,12
 274.496865823 1343 274.496865823 1343 238 1343 c 0,13,14
 213 1343 213 1343 201 1360.5 c 128,-1,15
 189 1378 189 1378 195 1401 c 2,16,-1
 207 1442 l 1,17,18
 211 1460 211 1460 226 1471.5 c 128,-1,19
 241 1483 241 1483 254 1483 c 2,20,-1
 393 1483 l 1,21,-1
 453 1483 l 1,22,-1
 575 1483 l 2,23,24
 740 1483 740 1483 825.5 1414 c 128,-1,25
 911 1345 911 1345 911 1188 c 0,26,27
 911 1072 911 1072 861.5 932 c 128,-1,28
 812 792 812 792 743 739 c 0,29,30
 709 713 709 713 695.5 703.5 c 128,-1,31
 682 694 682 694 631 670 c 128,-1,32
 580 646 580 646 529.5 636 c 128,-1,33
 479 626 479 626 388 618 c 0,34,35
 340.73824863 613.845120759 340.73824863 613.845120759 288.081803039 612.92705805 c 1,36,-1
 143 45 l 2,37,38
 131 0 131 0 82 0 c 2,39,-1
 23 0 l 2,40,41
 -2 0 -2 0 -13 18.5 c 128,-1,42
 -24 37 -24 37 -18 63 c 2,43,-1
 307.800116927 1342.92903078 l 1,11,12
EndSplineSet
Fore
SplineSet
324.213846255 754.367022092 m 1,0,-1
 438 760 l 1,1,2
 601 766 601 766 664 883 c 0,3,4
 704 957 704 957 724.5 1052.5 c 128,-1,5
 745 1148 745 1148 745 1212 c 0,6,7
 745 1333 745 1333 606 1339 c 0,8,9
 560.885416013 1340.91976953 560.885416013 1340.91976953 474.308787675 1341.9181603 c 1,10,-1
 324.213846255 754.367022092 l 1,0,-1
307.800116927 1342.92903078 m 1,11,12
 274.496865823 1343 274.496865823 1343 243.748432912 1343 c 128,-1,13
 213 1343 213 1343 201 1360.5 c 128,-1,14
 189 1378 189 1378 195 1401 c 2,15,-1
 207 1442 l 1,16,17
 211 1460 211 1460 226 1471.5 c 128,-1,18
 241 1483 241 1483 254 1483 c 2,19,-1
 575 1483 l 2,20,21
 740 1483 740 1483 825.5 1414 c 128,-1,22
 911 1345 911 1345 911 1188 c 0,23,24
 911 1072 911 1072 861.5 932 c 128,-1,25
 812 792 812 792 743 739 c 0,26,27
 709 713 709 713 695.5 703.5 c 128,-1,28
 682 694 682 694 631 670 c 128,-1,29
 580 646 580 646 529.5 636 c 0,30,31
 425.040367887 615.314924334 425.040367887 615.314924334 288.081803039 612.92705805 c 1,32,-1
 143 45 l 2,33,34
 131 0 131 0 82 0 c 2,35,-1
 23 0 l 2,36,37
 -2 0 -2 0 -13 18.5 c 128,-1,38
 -24 37 -24 37 -18 63 c 2,39,-1
 307.800116927 1342.92903078 l 1,11,12
EndSplineSet
EndChar

StartChar: Q
Encoding: 81 81 75
Width: 942
VWidth: 0
Flags: W
HStem: -190 319<322 558> 1331 168<507.551 720.794>
VStem: 20 918<457.5 1070.5>
LayerCount: 2
Back
SplineSet
156 -100 m 1,0,1
 170 -53 l 1,2,3
 175 -30 175 -30 195 -16 c 1,4,5
 213.463066171 -4.40691193912 213.463066171 -4.40691193912 236.81171781 2.76149494358 c 1,6,7
 199.192691862 13.0580043987 199.192691862 13.0580043987 166 31 c 0,8,9
 94 68 94 68 57 177 c 128,-1,10
 20 286 20 286 20 444 c 0,11,12
 20 629 20 629 80 829 c 0,13,14
 110 929 110 929 150.5 1023 c 128,-1,15
 191 1117 191 1117 245.5 1204.5 c 128,-1,16
 300 1292 300 1292 361 1356.5 c 128,-1,17
 422 1421 422 1421 496 1460 c 128,-1,18
 570 1499 570 1499 647 1499 c 0,19,20
 726 1499 726 1499 825 1442 c 1,21,22
 890 1403 890 1403 914 1318 c 128,-1,23
 938 1233 938 1233 938 1083 c 0,24,25
 938 908 938 908 866 635 c 0,26,27
 840 536 840 536 806 447.5 c 128,-1,28
 772 359 772 359 722 273.5 c 128,-1,29
 672 188 672 188 613 126.5 c 128,-1,30
 554 65 554 65 476 27.5 c 0,31,32
 441.627064805 10.9745503977 441.627064805 10.9745503977 405.506350508 1.7315137158 c 1,33,34
 421.088523896 -3.17610415596 421.088523896 -3.17610415596 436 -10 c 0,35,36
 550 -62 550 -62 682 -10 c 0,37,38
 703 -1 703 -1 714 -18.5 c 128,-1,39
 725 -36 725 -36 719 -63 c 2,40,-1
 707 -115 l 1,41,42
 704 -136 704 -136 695.5 -145 c 128,-1,43
 687 -154 687 -154 666 -164 c 0,44,45
 617 -188 617 -188 558 -190 c 128,-1,46
 499 -192 499 -192 434 -164 c 1,47,48
 316 -104 316 -104 186 -164 c 1,49,50
 163 -173 163 -173 155.5 -155 c 128,-1,51
 148 -137 148 -137 156 -100 c 1,0,1
248 788 m 0,52,53
 215 672 215 672 200.5 566.5 c 128,-1,54
 186 461 186 461 190.5 383 c 128,-1,55
 195 305 195 305 212.5 246.5 c 128,-1,56
 230 188 230 188 258.5 158.5 c 128,-1,57
 287 129 287 129 322 129 c 0,58,59
 430 129 430 129 512 236 c 1,60,61
 614 377 614 377 705 674 c 0,62,63
 748 814 748 814 763.5 937.5 c 128,-1,64
 779 1061 779 1061 768.5 1146.5 c 128,-1,65
 758 1232 758 1232 724.5 1281.5 c 128,-1,66
 691 1331 691 1331 639 1331 c 0,67,68
 526 1331 526 1331 438 1217 c 1,69,70
 331 1075 331 1075 248 788 c 0,52,53
EndSplineSet
Fore
SplineSet
156 -100 m 1,0,1
 170 -53 l 1,2,3
 175 -30 175 -30 194.231533086 -17.2034559696 c 128,-1,4
 213.463066171 -4.40691193912 213.463066171 -4.40691193912 236.81171781 2.76149494358 c 1,5,6
 199.192691862 13.0580043987 199.192691862 13.0580043987 166 31 c 0,7,8
 94 68 94 68 57 177 c 128,-1,9
 20 286 20 286 20 457.5 c 0,10,11
 20 720.111111111 20 720.111111111 150.5 1023 c 0,12,13
 292.594624756 1352.7998698 292.594624756 1352.7998698 496 1460 c 0,14,15
 570 1499 570 1499 648 1499 c 128,-1,16
 726 1499 726 1499 825 1442 c 1,17,18
 890 1403 890 1403 914 1318 c 128,-1,19
 938 1233 938 1233 938 1070.5 c 128,-1,20
 938 908 938 908 866 635 c 0,21,22
 739.757225434 154.306358382 739.757225434 154.306358382 476 27.5 c 0,23,24
 441.627064805 10.9745503977 441.627064805 10.9745503977 405.506350508 1.7315137158 c 1,25,26
 421.088523896 -3.17610415596 421.088523896 -3.17610415596 436 -10 c 0,27,28
 550 -62 550 -62 682 -10 c 0,29,30
 703 -1 703 -1 714 -18.5 c 128,-1,31
 725 -36 725 -36 719 -63 c 2,32,-1
 707 -115 l 1,33,34
 704 -136 704 -136 695.5 -145 c 128,-1,35
 687 -154 687 -154 652 -171 c 128,-1,36
 617 -188 617 -188 558 -190 c 128,-1,37
 499 -192 499 -192 434 -164 c 1,38,39
 316 -104 316 -104 186 -164 c 1,40,41
 163 -173 163 -173 155.5 -155 c 128,-1,42
 148 -137 148 -137 156 -100 c 1,0,1
212.5 246.5 m 0,43,44
 247.64957265 129 247.64957265 129 322 129 c 0,45,46
 430 129 430 129 512 236 c 1,47,48
 614 377 614 377 705 674 c 0,49,50
 791.814631303 956.652287963 791.814631303 956.652287963 768.5 1146.5 c 0,51,52
 758 1232 758 1232 724.5 1281.5 c 128,-1,53
 691 1331 691 1331 639 1331 c 0,54,55
 526 1331 526 1331 438 1217 c 1,56,57
 331 1075 331 1075 241.3685772 762.310756218 c 128,-1,58
 151.7371544 449.621512435 151.7371544 449.621512435 212.5 246.5 c 0,43,44
EndSplineSet
EndChar

StartChar: R
Encoding: 82 82 76
Width: 921
VWidth: 0
Flags: W
HStem: 0 21G<10.5 106.5 543.5 655> 648.276 140.232<332.936 424.932> 1341 142<206.279 307.286 473.735 708.384>
VStem: 745 168<965.278 1304.15>
LayerCount: 2
Back
SplineSet
332.935514123 788.508251868 m 1,0,-1
 461 795 l 1,1,2
 600 801 600 801 674 915 c 0,3,4
 713 975 713 975 729 1058 c 128,-1,5
 745 1141 745 1141 745 1212 c 0,6,7
 745 1265 745 1265 709.5 1301 c 128,-1,8
 674 1337 674 1337 606 1337 c 1,9,10
 548.321417168 1338.69642891 548.321417168 1338.69642891 473.735342001 1339.67339005 c 1,11,-1
 332.935514123 788.508251868 l 1,0,-1
307.285897289 1340.90888221 m 1,12,13
 274.713582724 1341 274.713582724 1341 240 1341 c 0,14,15
 215 1341 215 1341 203 1358.5 c 128,-1,16
 191 1376 191 1376 197 1399 c 2,17,-1
 207 1442 l 2,18,19
 211 1460 211 1460 226 1471.5 c 128,-1,20
 241 1483 241 1483 254 1483 c 2,21,-1
 393 1483 l 1,22,-1
 453 1483 l 1,23,-1
 602 1483 l 2,24,25
 743 1483 743 1483 828 1412.5 c 128,-1,26
 913 1342 913 1342 913 1188 c 0,27,28
 913 1066 913 1066 860.5 945 c 128,-1,29
 808 824 808 824 731 760 c 0,30,31
 683 721 683 721 640.5 699.5 c 0,32,33
 617.487951518 687.858610768 617.487951518 687.858610768 577.618116692 674.604737625 c 1,34,-1
 672 70 l 2,35,36
 683 0 683 0 627 0 c 2,37,-1
 557 0 l 2,38,39
 530 0 530 0 518.5 16 c 128,-1,40
 507 32 507 32 502 72 c 2,41,-1
 424.932100158 650.009248816 l 1,42,-1
 297.112015567 648.276095126 l 1,43,-1
 143 45 l 2,44,45
 131 0 131 0 82 0 c 2,46,-1
 23 0 l 2,47,48
 -2 0 -2 0 -13 18.5 c 128,-1,49
 -24 37 -24 37 -18 63 c 2,50,-1
 307.285897289 1340.90888221 l 1,12,13
EndSplineSet
Fore
SplineSet
332.935514123 788.508251868 m 1,0,-1
 461 795 l 1,1,2
 600 801 600 801 674 915 c 0,3,4
 745 1024.23076923 745 1024.23076923 745 1212 c 0,5,6
 745 1265 745 1265 709.5 1301 c 128,-1,7
 674 1337 674 1337 611.160708584 1337.84821445 c 128,-1,8
 548.321417168 1338.69642891 548.321417168 1338.69642891 473.735342001 1339.67339005 c 1,9,-1
 332.935514123 788.508251868 l 1,0,-1
307.285897289 1340.90888221 m 1,10,11
 274.713582724 1341 274.713582724 1341 244.856791362 1341 c 128,-1,12
 215 1341 215 1341 203 1358.5 c 128,-1,13
 191 1376 191 1376 197 1399 c 2,14,-1
 207 1442 l 2,15,16
 211 1460 211 1460 226 1471.5 c 128,-1,17
 241 1483 241 1483 254 1483 c 2,18,-1
 602 1483 l 2,19,20
 743 1483 743 1483 828 1412.5 c 128,-1,21
 913 1342 913 1342 913 1204 c 128,-1,22
 913 1066 913 1066 860.5 945 c 128,-1,23
 808 824 808 824 745.5 772.5 c 128,-1,24
 683 721 683 721 650.243975759 704.429305384 c 128,-1,25
 617.487951518 687.858610768 617.487951518 687.858610768 577.618116692 674.604737625 c 1,26,-1
 672 70 l 2,27,28
 683 0 683 0 627 0 c 2,29,-1
 557 0 l 2,30,31
 530 0 530 0 518.5 16 c 128,-1,32
 507 32 507 32 502 72 c 2,33,-1
 424.932100158 650.009248816 l 1,34,-1
 297.112015567 648.276095126 l 1,35,-1
 143 45 l 2,36,37
 131 0 131 0 82 0 c 2,38,-1
 23 0 l 2,39,40
 -2 0 -2 0 -13 18.5 c 128,-1,41
 -24 37 -24 37 -18 63 c 2,42,-1
 307.285897289 1340.90888221 l 1,10,11
EndSplineSet
EndChar

StartChar: Rastick
Encoding: 65543 -1 78
Width: 532
VWidth: 0
Flags: W
HStem: 45.5 435.5
VStem: 92 469
LayerCount: 2
Back
SplineSet
143 55 m 1,0,1
 92 109 l 2,2,3
 79 124 79 124 98 143 c 1,4,-1
 485 481 l 1,5,-1
 561 393 l 1,6,-1
 178 57 l 2,7,8
 166 46 166 46 160 45.5 c 128,-1,9
 154 45 154 45 143 55 c 1,0,1
EndSplineSet
Fore
SplineSet
143 55 m 1,0,1
 92 109 l 2,2,3
 79 124 79 124 98 143 c 1,4,-1
 485 481 l 1,5,-1
 561 393 l 1,6,-1
 178 57 l 2,7,8
 166 46 166 46 160 45.5 c 128,-1,9
 154 45 154 45 143 55 c 1,0,1
EndSplineSet
EndChar

StartChar: S
Encoding: 83 83 81
Width: 899
VWidth: 0
Flags: W
HStem: -33 125<253.751 418.091>
VStem: 54.9883 154.012<128.875 457.125> 225 168<895.397 1132.98> 597.5 168.5<331.25 651.852> 758 155<1018.77 1309.39>
LayerCount: 2
Back
SplineSet
670 1505 m 0,0,1
 803 1505 803 1505 858 1396 c 128,-1,2
 913 1287 913 1287 913 1083 c 0,3,4
 913 1032 913 1032 879 1022 c 2,5,-1
 807 999 l 2,6,7
 790 994 790 994 774 1005 c 128,-1,8
 758 1016 758 1016 758 1042 c 0,9,10
 758 1313 758 1313 670 1354 c 1,11,12
 629 1375 629 1375 580 1352 c 1,13,14
 515 1320 515 1320 456 1215.5 c 128,-1,15
 397 1111 397 1111 393 977 c 0,16,17
 391 923 391 923 411 894.5 c 128,-1,18
 431 866 431 866 489 846 c 2,19,-1
 573 817 l 2,20,21
 635 796 635 796 673 772.5 c 128,-1,22
 711 749 711 749 731.5 717 c 128,-1,23
 752 685 752 685 759 650.5 c 128,-1,24
 766 616 766 616 766 563 c 0,25,26
 766 422 766 422 701.5 284 c 128,-1,27
 637 146 637 146 527 56.5 c 128,-1,28
 417 -33 417 -33 297 -33 c 0,29,30
 54.994147242 -33 54.994147242 -33 54.988294484 360 c 0,31,32
 54.988294484 362 54.988294484 362 54.988294484 366.659088703 c 0,33,34
 54.994147242 393 54.994147242 393 56 406 c 128,-1,35
 57 419 57 419 64 434 c 128,-1,36
 71 449 71 449 86 453 c 2,37,-1
 162 477 l 1,38,39
 182 485 182 485 195.5 474 c 128,-1,40
 209 463 209 463 209 438 c 0,41,42
 209 277 209 277 228 195.5 c 128,-1,43
 247 114 247 114 291 92 c 1,44,45
 322 85 322 85 371 106 c 0,46,47
 454 143 454 143 520.5 259 c 128,-1,48
 587 375 587 375 596 506 c 0,49,50
 598 548 598 548 597.5 576 c 128,-1,51
 597 604 597 604 582 625 c 128,-1,52
 567 646 567 646 537.5 661.5 c 128,-1,53
 508 677 508 677 453 694 c 2,54,-1
 367 721 l 1,55,56
 309 738 309 738 267 786 c 128,-1,57
 225 834 225 834 225 905 c 0,58,59
 225 998 225 998 258.5 1102.5 c 128,-1,60
 292 1207 292 1207 348.5 1297 c 128,-1,61
 405 1387 405 1387 490.5 1446 c 128,-1,62
 576 1505 576 1505 670 1505 c 0,0,1
EndSplineSet
Fore
SplineSet
670 1505 m 0,0,1
 803 1505 803 1505 858 1396 c 128,-1,2
 913 1287 913 1287 913 1083 c 0,3,4
 913 1032 913 1032 879 1022 c 2,5,-1
 807 999 l 2,6,7
 790 994 790 994 774 1005 c 128,-1,8
 758 1016 758 1016 758 1042 c 0,9,10
 758 1313 758 1313 670 1354 c 1,11,12
 629 1375 629 1375 572 1347.5 c 128,-1,13
 515 1320 515 1320 456 1215.5 c 128,-1,14
 397 1111 397 1111 393 977 c 0,15,16
 391 923 391 923 411 894.5 c 128,-1,17
 431 866 431 866 489 846 c 2,18,-1
 573 817 l 2,19,20
 693.607660122 776.149018346 693.607660122 776.149018346 731.5 717 c 0,21,22
 766 663.146341463 766 663.146341463 766 542.573170732 c 128,-1,23
 766 422 766 422 701.5 284 c 128,-1,24
 637 146 637 146 527 56.5 c 128,-1,25
 417 -33 417 -33 297 -33 c 0,26,27
 54.994147242 -33 54.994147242 -33 54.988294484 360 c 2,28,-1
 54.988294484 366.659088703 l 2,29,30
 55.0056423449 444.734837959 55.0056423449 444.734837959 86 453 c 1,31,-1
 162 477 l 1,32,33
 182 485 182 485 195.5 474 c 128,-1,34
 209 463 209 463 209 438 c 0,35,36
 209 277 209 277 228 195.5 c 128,-1,37
 247 114 247 114 291 92 c 1,38,39
 322 85 322 85 371 106 c 0,40,41
 454 143 454 143 520.5 259 c 0,42,43
 600.663671875 398.834375 600.663671875 398.834375 597.5 576 c 0,44,45
 596.527039413 630.485792851 596.527039413 630.485792851 537.5 661.5 c 0,46,47
 508 677 508 677 453 694 c 2,48,-1
 367 721 l 1,49,50
 309 738 309 738 267 786 c 128,-1,51
 225 834 225 834 225 916 c 128,-1,52
 225 998 225 998 258.5 1102.5 c 128,-1,53
 292 1207 292 1207 348.5 1297 c 128,-1,54
 405 1387 405 1387 490.5 1446 c 128,-1,55
 576 1505 576 1505 670 1505 c 0,0,1
EndSplineSet
EndChar

StartChar: SiroCopy
Encoding: 65544 -1 86
Width: 0
VWidth: 0
Flags: W
HStem: 1161 148<243.375 1545.97>
LayerCount: 2
Back
SplineSet
1544 1272 m 2,0,1
 1565 1198 l 1,2,3
 1569 1179 1569 1179 1559 1170 c 128,-1,4
 1549 1161 1549 1161 1526 1161 c 2,5,-1
 289 1161 l 2,6,7
 256 1161 256 1161 246 1196 c 2,8,-1
 225 1270 l 2,9,10
 219 1290 219 1290 229 1299.5 c 128,-1,11
 239 1309 239 1309 256 1309 c 2,12,-1
 1491 1309 l 2,13,14
 1533 1309 1533 1309 1544 1272 c 2,0,1
EndSplineSet
Fore
SplineSet
1544 1272 m 2,0,1
 1565 1198 l 1,2,3
 1569 1179 1569 1179 1559 1170 c 128,-1,4
 1549 1161 1549 1161 1526 1161 c 2,5,-1
 289 1161 l 2,6,7
 256 1161 256 1161 246 1196 c 2,8,-1
 225 1270 l 2,9,10
 219 1290 219 1290 229 1299.5 c 128,-1,11
 239 1309 239 1309 256 1309 c 2,12,-1
 1491 1309 l 2,13,14
 1533 1309 1533 1309 1544 1272 c 2,0,1
EndSplineSet
EndChar

StartChar: T
Encoding: 84 84 87
Width: 911
VWidth: 0
Flags: W
HStem: 0 21G<227.5 323.5> 1335 148<167.515 522.782 689.541 1066.96>
LayerCount: 2
Back
SplineSet
1004 1335 m 2,0,1
 689.541484716 1335 l 1,2,-1
 360 45 l 2,3,4
 348 0 348 0 299 0 c 2,5,-1
 240 0 l 2,6,7
 215 0 215 0 204 18.5 c 128,-1,8
 193 37 193 37 199 63 c 2,9,-1
 522.781818182 1335 l 1,10,-1
 199 1335 l 2,11,12
 141 1335 141 1335 154 1382 c 1,13,-1
 168 1442 l 2,14,15
 174 1468 174 1468 186.5 1475.5 c 128,-1,16
 199 1483 199 1483 229 1483 c 2,17,-1
 610 1483 l 1,18,-1
 670 1483 l 1,19,-1
 1028 1483 l 2,20,21
 1090 1483 1090 1483 1077 1425 c 2,22,-1
 1067 1378 l 1,23,24
 1059 1335 1059 1335 1004 1335 c 2,0,1
EndSplineSet
Fore
SplineSet
1004 1335 m 2,0,1
 689.541484716 1335 l 1,2,-1
 360 45 l 2,3,4
 348 0 348 0 299 0 c 2,5,-1
 240 0 l 2,6,7
 215 0 215 0 204 18.5 c 128,-1,8
 193 37 193 37 199 63 c 2,9,-1
 522.781818182 1335 l 1,10,-1
 199 1335 l 2,11,12
 141 1335 141 1335 154 1382 c 1,13,-1
 168 1442 l 2,14,15
 174 1468 174 1468 186.5 1475.5 c 128,-1,16
 199 1483 199 1483 229 1483 c 2,17,-1
 1028 1483 l 2,18,19
 1090 1483 1090 1483 1077 1425 c 2,20,-1
 1067 1378 l 1,21,22
 1059 1335 1059 1335 1004 1335 c 2,0,1
EndSplineSet
EndChar

StartChar: Thorn
Encoding: 222 222 90
Width: 915
VWidth: 0
Flags: W
HStem: 0 21G<12.5 108.5> 471.225 138.912<289.369 584.85> 1201.76 139.238<476.074 720.929> 1463 20G<370.5 467.5>
VStem: 756 166<826.651 1159.93>
LayerCount: 2
Back
SplineSet
334 1438 m 2,0,1
 346 1483 346 1483 395 1483 c 2,2,-1
 455 1483 l 2,3,4
 480 1483 480 1483 491 1464 c 128,-1,5
 502 1445 502 1445 496 1419 c 2,6,-1
 476.074235808 1341 l 1,7,-1
 586 1341 l 2,8,9
 752 1341 752 1341 840 1269 c 128,-1,10
 928 1197 928 1197 922 1047 c 0,11,12
 917 912 917 912 871.5 786.5 c 128,-1,13
 826 661 826 661 754 598 c 0,14,15
 604.820803816 465.499223265 604.820803816 465.499223265 253.882738187 471.22473581 c 1,16,-1
 145 45 l 2,17,18
 133 0 133 0 84 0 c 2,19,-1
 25 0 l 2,20,21
 -0 0 -0 0 -11 18.5 c 128,-1,22
 -22 37 -22 37 -16 63 c 2,23,-1
 334 1438 l 2,0,1
289.368905494 610.136399285 m 1,24,-1
 449 618 l 2,25,26
 613 627 613 627 674 741 c 1,27,28
 704 791 704 791 730 887.5 c 128,-1,29
 756 984 756 984 756 1071 c 0,30,31
 756 1127 756 1127 722 1161 c 128,-1,32
 688 1195 688 1195 616 1198 c 0,33,34
 553.988060945 1201.02497264 553.988060945 1201.02497264 440.504787463 1201.76233041 c 1,35,-1
 289.368905494 610.136399285 l 1,24,-1
EndSplineSet
Fore
SplineSet
586 1341 m 2,0,1
 933.76 1341 933.76 1341 922 1047 c 0,2,3
 917 912 917 912 871.5 786.5 c 128,-1,4
 826 661 826 661 754 598 c 0,5,6
 604.820803816 465.499223265 604.820803816 465.499223265 253.882738187 471.22473581 c 1,7,-1
 145 45 l 2,8,9
 133 0 133 0 84 0 c 2,10,-1
 25 0 l 2,11,12
 -0 0 -0 0 -11 18.5 c 128,-1,13
 -22 37 -22 37 -16 63 c 2,14,-1
 334 1438 l 2,15,16
 346 1483 346 1483 395 1483 c 2,17,-1
 455 1483 l 2,18,19
 480 1483 480 1483 491 1464 c 128,-1,20
 502 1445 502 1445 496 1419 c 2,21,-1
 476.074235808 1341 l 1,22,-1
 586 1341 l 2,0,1
289.368905494 610.136399285 m 1,23,-1
 449 618 l 2,24,25
 613 627 613 627 674 741 c 1,26,27
 704 791 704 791 730 887.5 c 128,-1,28
 756 984 756 984 756 1055.5 c 128,-1,29
 756 1127 756 1127 722 1161 c 128,-1,30
 688 1195 688 1195 620.994030473 1198.01248632 c 128,-1,31
 553.988060945 1201.02497264 553.988060945 1201.02497264 440.504787463 1201.76233041 c 1,32,-1
 289.368905494 610.136399285 l 1,23,-1
EndSplineSet
EndChar

StartChar: U
Encoding: 85 85 91
Width: 1013
VWidth: 0
Flags: W
HStem: -14 133<263.096 515.463> 1463 20G<350 446.5 964.5 1052.5>
LayerCount: 2
Back
SplineSet
352 -14 m 0,0,1
 293 -14 293 -14 235.5 3.5 c 128,-1,2
 178 21 178 21 141 59 c 0,3,4
 91 112 91 112 71 195 c 128,-1,5
 51 278 51 278 57.5 371 c 128,-1,6
 64 464 64 464 92 571 c 2,7,-1
 313 1438 l 2,8,9
 325 1483 325 1483 375 1483 c 2,10,-1
 434 1483 l 2,11,12
 459 1483 459 1483 470 1464 c 128,-1,13
 481 1445 481 1445 475 1419 c 2,14,-1
 244 506 l 1,15,16
 145 119 145 119 383 119 c 0,17,18
 482 119 482 119 557 200.5 c 128,-1,19
 632 282 632 282 684 483 c 2,20,-1
 928 1438 l 2,21,22
 940 1483 940 1483 989 1483 c 2,23,-1
 1040 1483 l 2,24,25
 1065 1483 1065 1483 1075 1464 c 128,-1,26
 1085 1445 1085 1445 1079 1419 c 2,27,-1
 840 469 l 2,28,29
 828 420 828 420 815 379 c 128,-1,30
 802 338 802 338 780 286.5 c 128,-1,31
 758 235 758 235 732.5 194.5 c 128,-1,32
 707 154 707 154 669 113.5 c 128,-1,33
 631 73 631 73 586.5 46.5 c 128,-1,34
 542 20 542 20 481.5 3 c 128,-1,35
 421 -14 421 -14 352 -14 c 0,0,1
EndSplineSet
Fore
SplineSet
141 59 m 1,0,1
 -2.24700029265 210.84182031 -2.24700029265 210.84182031 92 571 c 1,2,-1
 313 1438 l 2,3,4
 325 1483 325 1483 375 1483 c 2,5,-1
 434 1483 l 2,6,7
 459 1483 459 1483 470 1464 c 128,-1,8
 481 1445 481 1445 475 1419 c 2,9,-1
 244 506 l 1,10,11
 145 119 145 119 383 119 c 0,12,13
 482 119 482 119 557 200.5 c 128,-1,14
 632 282 632 282 684 483 c 2,15,-1
 928 1438 l 2,16,17
 940 1483 940 1483 989 1483 c 2,18,-1
 1040 1483 l 2,19,20
 1065 1483 1065 1483 1075 1464 c 128,-1,21
 1085 1445 1085 1445 1079 1419 c 2,22,-1
 840 469 l 1,23,24
 762.146577181 151.09852349 762.146577181 151.09852349 586.5 46.5 c 0,25,26
 484.905660377 -14 484.905660377 -14 348.492303873 -14 c 128,-1,27
 212.078947368 -14 212.078947368 -14 141 59 c 1,0,1
EndSplineSet
EndChar

StartChar: V
Encoding: 86 86 100
Width: 919
VWidth: 0
Flags: W
LayerCount: 2
Back
SplineSet
290.239793013 179.797760256 m 1,0,-1
 909 1440 l 2,1,2
 931 1486 931 1486 987 1481 c 2,3,-1
 1032 1477 l 1,4,5
 1100 1472 1100 1472 1075 1399 c 1,6,-1
 391 82 l 1,7,8
 352 3 352 3 268 0 c 2,9,-1
 205 -2 l 2,10,11
 164 -3 164 -3 142 28 c 128,-1,12
 120 59 120 59 123 111 c 2,13,-1
 195 1434 l 1,14,15
 200 1479 200 1479 256 1479 c 2,16,-1
 326 1479 l 2,17,18
 352 1479 352 1479 364 1463.5 c 128,-1,19
 376 1448 376 1448 373 1423 c 1,20,-1
 290.239793013 179.797760256 l 1,0,-1
EndSplineSet
Fore
SplineSet
326 1479 m 2,0,1
 379.72 1479 379.72 1479 373 1423 c 1,2,-1
 290.239793013 179.797760256 l 1,3,-1
 909 1440 l 2,4,5
 931 1486 931 1486 987 1481 c 2,6,-1
 1032 1477 l 1,7,8
 1100 1472 1100 1472 1075 1399 c 1,9,-1
 391 82 l 1,10,11
 352 3 352 3 268 0 c 2,12,-1
 205 -2 l 2,13,14
 164 -3 164 -3 142 28 c 128,-1,15
 120 59 120 59 123 111 c 2,16,-1
 195 1434 l 1,17,18
 200 1479 200 1479 256 1479 c 2,19,-1
 326 1479 l 2,0,1
EndSplineSet
EndChar

StartChar: W
Encoding: 87 87 101
Width: 1433
VWidth: 0
Flags: W
HStem: 0 21G<206.955 332 817.455 918.5> 1463 20G<350.5 488.091 874 987 1391.5 1500>
VStem: 714.608 157.935<240.812 661.829> 1360 170.5<1124.59 1474.84>
LayerCount: 2
Back
SplineSet
461 1483 m 2,0,1
 485 1483 485 1483 491.5 1465 c 128,-1,2
 498 1447 498 1447 477 1403 c 1,3,4
 421 1303 421 1303 366 1090 c 128,-1,5
 311 877 311 877 287 632.5 c 0,6,7
 266.583176348 424.503608975 266.583176348 424.503608975 299.719573061 259.566901903 c 1,8,9
 441.304078548 413.909305533 441.304078548 413.909305533 573 693 c 0,10,11
 724 1013 724 1013 774 1262 c 1,12,-1
 777.759013146 1265.44421894 l 1,13,14
 795.394176052 1353.54862295 795.394176052 1353.54862295 817 1430 c 1,15,16
 827 1460 827 1460 843 1471.5 c 128,-1,17
 859 1483 859 1483 889 1483 c 2,18,-1
 963 1483 l 2,19,20
 1011 1483 1011 1483 989 1421 c 0,21,22
 909 1185 909 1185 877 850 c 0,23,24
 856 631 856 631 875 454.5 c 0,25,26
 889.087484229 323.634685978 889.087484229 323.634685978 909.22214112 238.123166919 c 1,27,28
 989.7699107 328.170171227 989.7699107 328.170171227 1063.5 457.5 c 0,29,30
 1155 618 1155 618 1216.5 789.5 c 128,-1,31
 1278 961 1278 961 1316 1130.5 c 128,-1,32
 1354 1300 1354 1300 1360 1434 c 0,33,34
 1361 1454 1361 1454 1362.5 1461.5 c 128,-1,35
 1364 1469 1364 1469 1373 1476 c 128,-1,36
 1382 1483 1382 1483 1401 1483 c 2,37,-1
 1483 1483 l 2,38,39
 1517 1483 1517 1483 1525.5 1473 c 128,-1,40
 1534 1463 1534 1463 1532 1432 c 0,41,42
 1527 1307 1527 1307 1495.5 1153.5 c 128,-1,43
 1464 1000 1464 1000 1405 832 c 128,-1,44
 1346 664 1346 664 1268 509 c 128,-1,45
 1190 354 1190 354 1083.5 218 c 128,-1,46
 977 82 977 82 860 0 c 1,47,-1
 836 0 l 2,48,49
 815 0 815 0 803.5 9.5 c 128,-1,50
 792 19 792 19 784 41 c 0,51,52
 726 208 726 208 716.5 475.5 c 0,53,54
 713.125838398 570.509281327 713.125838398 570.509281327 714.608421122 663.500175485 c 1,55,56
 709.846381188 652.253461403 709.846381188 652.253461403 705 641 c 0,57,58
 639 487 639 487 513.5 305.5 c 128,-1,59
 388 124 388 124 276 0 c 1,60,-1
 225 0 l 2,61,62
 204 0 204 0 193 9.5 c 128,-1,63
 182 19 182 19 174 41 c 0,64,65
 130 173 130 173 119.5 359.5 c 128,-1,66
 109 546 109 546 129 737.5 c 128,-1,67
 149 929 149 929 197.5 1119.5 c 128,-1,68
 246 1310 246 1310 315 1454 c 0,69,70
 330 1483 330 1483 371 1483 c 2,71,-1
 461 1483 l 2,0,1
EndSplineSet
Fore
SplineSet
461 1483 m 2,0,1
 515.181818182 1483 515.181818182 1483 477 1403 c 1,2,3
 421 1303 421 1303 366 1090 c 128,-1,4
 311 877 311 877 288.791588174 650.751804488 c 128,-1,5
 266.583176348 424.503608975 266.583176348 424.503608975 299.719573061 259.566901903 c 1,6,7
 441.304078548 413.909305533 441.304078548 413.909305533 582.652039274 713.454652766 c 128,-1,8
 724 1013 724 1013 774 1262 c 1,9,-1
 777.759013146 1265.44421894 l 1,10,11
 795.394176052 1353.54862295 795.394176052 1353.54862295 811.197088026 1406.77431148 c 128,-1,12
 827 1460 827 1460 843 1471.5 c 128,-1,13
 859 1483 859 1483 889 1483 c 2,14,-1
 963 1483 l 2,15,16
 1011 1483 1011 1483 989 1421 c 0,17,18
 909 1185 909 1185 882.5 908 c 128,-1,19
 856 631 856 631 872.543742114 477.317342989 c 128,-1,20
 889.087484229 323.634685978 889.087484229 323.634685978 909.22214112 238.123166919 c 1,21,22
 989.7699107 328.170171227 989.7699107 328.170171227 1072.38495535 473.085085614 c 128,-1,23
 1155 618 1155 618 1216.5 789.5 c 0,24,25
 1347.49875208 1154.80546312 1347.49875208 1154.80546312 1360 1434 c 0,26,27
 1361.65895954 1467.17919075 1361.65895954 1467.17919075 1371.82947977 1475.08959538 c 128,-1,28
 1382 1483 1382 1483 1401 1483 c 2,29,-1
 1483 1483 l 2,30,31
 1517 1483 1517 1483 1525.5 1473 c 128,-1,32
 1534 1463 1534 1463 1530.5 1385 c 128,-1,33
 1527 1307 1527 1307 1495.5 1153.5 c 128,-1,34
 1464 1000 1464 1000 1405 832 c 128,-1,35
 1346 664 1346 664 1268 509 c 128,-1,36
 1190 354 1190 354 1083.5 218 c 128,-1,37
 977 82 977 82 860 0 c 1,38,-1
 836 0 l 2,39,40
 798.909090909 0 798.909090909 0 784 41 c 0,41,42
 708.164970491 259.352584966 708.164970491 259.352584966 714.608421122 663.500175485 c 1,43,44
 641.258235715 490.26589468 641.258235715 490.26589468 514.629117858 307.13294734 c 128,-1,45
 388 124 388 124 276 0 c 1,46,-1
 225 0 l 2,47,48
 188.909090909 0 188.909090909 0 174 41 c 1,49,50
 130 173 130 173 119.5 359.5 c 128,-1,51
 109 546 109 546 129 737.5 c 0,52,53
 172.84671215 1157.33226883 172.84671215 1157.33226883 315 1454 c 0,54,55
 330 1483 330 1483 371 1483 c 2,56,-1
 461 1483 l 2,0,1
EndSplineSet
EndChar

StartChar: X
Encoding: 88 88 102
Width: 823
VWidth: 0
Flags: W
HStem: 0 21G<-40 79.5 534 633> 1465 20G<214 318 814 911>
LayerCount: 2
Back
SplineSet
522.916988503 684.40710151 m 1,0,-1
 657 66 l 2,1,2
 663 38 663 38 654 19 c 128,-1,3
 645 0 645 0 621 0 c 2,4,-1
 545 0 l 2,5,6
 523 0 523 0 504.5 17 c 128,-1,7
 486 34 486 34 479 70 c 1,8,-1
 394.169550173 581.339100346 l 1,9,-1
 127 47 l 1,10,11
 106 0 106 0 53 0 c 2,12,-1
 -23 0 l 2,13,14
 -57 0 -57 0 -67 21.5 c 128,-1,15
 -77 43 -77 43 -55 86 c 1,16,-1
 332.812776508 781.51399355 l 1,17,-1
 199 1403 l 1,18,19
 176 1485 176 1485 252 1485 c 2,20,-1
 301 1485 l 2,21,22
 335 1485 335 1485 353.5 1469 c 128,-1,23
 372 1453 372 1453 379 1415 c 2,24,-1
 471.658802453 881.186899145 l 1,25,-1
 762 1450 l 1,26,27
 773 1468 773 1468 786 1476.5 c 128,-1,28
 799 1485 799 1485 829 1485 c 2,29,-1
 895 1485 l 2,30,31
 927 1485 927 1485 940.5 1472 c 128,-1,32
 954 1459 954 1459 951 1440.5 c 128,-1,33
 948 1422 948 1422 934 1399 c 2,34,-1
 522.916988503 684.40710151 l 1,0,-1
EndSplineSet
Fore
SplineSet
522.916988503 684.40710151 m 1,0,-1
 657 66 l 2,1,2
 663 38 663 38 654 19 c 128,-1,3
 645 0 645 0 621 0 c 2,4,-1
 545 0 l 2,5,6
 523 0 523 0 504.5 17 c 128,-1,7
 486 34 486 34 479 70 c 1,8,-1
 394.169550173 581.339100346 l 1,9,-1
 127 47 l 1,10,11
 106 0 106 0 53 0 c 2,12,-1
 -23 0 l 2,13,14
 -57 0 -57 0 -67 21.5 c 128,-1,15
 -77 43 -77 43 -55 86 c 1,16,-1
 332.812776508 781.51399355 l 1,17,-1
 199 1403 l 1,18,19
 176 1485 176 1485 252 1485 c 2,20,-1
 301 1485 l 2,21,22
 335 1485 335 1485 353.5 1469 c 128,-1,23
 372 1453 372 1453 379 1415 c 2,24,-1
 471.658802453 881.186899145 l 1,25,-1
 762 1450 l 1,26,27
 773 1468 773 1468 786 1476.5 c 128,-1,28
 799 1485 799 1485 829 1485 c 2,29,-1
 895 1485 l 2,30,31
 927 1485 927 1485 940.5 1472 c 0,32,33
 964.416243655 1448.96954315 964.416243655 1448.96954315 934 1399 c 1,34,-1
 522.916988503 684.40710151 l 1,0,-1
EndSplineSet
EndChar

StartChar: Y
Encoding: 89 89 103
Width: 819
VWidth: 0
Flags: W
HStem: 0 21G<184.5 280.5>
VStem: 204 161<1157.21 1481.1>
LayerCount: 2
Back
SplineSet
428.467329105 768.583732052 m 1,0,1
 527.078125843 915.178310113 527.078125843 915.178310113 576 990 c 0,2,3
 627 1068 627 1068 704 1201.5 c 128,-1,4
 781 1335 781 1335 838 1456 c 1,5,6
 851 1486 851 1486 899 1483 c 1,7,-1
 963 1475 l 2,8,9
 987 1473 987 1473 995.5 1453 c 128,-1,10
 1004 1433 1004 1433 987 1401 c 1,11,12
 746.796090552 980.162750648 746.796090552 980.162750648 457.664346544 596.252168888 c 1,13,-1
 317 45 l 2,14,15
 305 0 305 0 256 0 c 2,16,-1
 197 0 l 2,17,18
 172 0 172 0 161 18.5 c 128,-1,19
 150 37 150 37 156 63 c 2,20,-1
 298.999843272 627.60282947 l 1,21,22
 298.92973665 762.557645636 298.92973665 762.557645636 267.5 1012 c 0,23,24
 236 1262 236 1262 203 1391 c 1,25,26
 190 1427 190 1427 204 1453 c 128,-1,27
 218 1479 218 1479 248 1481 c 1,28,-1
 305 1489 l 1,29,30
 334 1491 334 1491 346.5 1482 c 128,-1,31
 359 1473 359 1473 365 1440 c 0,32,33
 429.376854682 1061.20285506 429.376854682 1061.20285506 428.467329105 768.583732052 c 1,0,1
EndSplineSet
Fore
SplineSet
428.467329105 768.583732052 m 1,0,1
 714.44639069 1193.71953111 714.44639069 1193.71953111 838 1456 c 1,2,3
 851 1486 851 1486 899 1483 c 1,4,-1
 963 1475 l 2,5,6
 987 1473 987 1473 995.5 1453 c 128,-1,7
 1004 1433 1004 1433 987 1401 c 1,8,9
 746.796090552 980.162750648 746.796090552 980.162750648 457.664346544 596.252168888 c 1,10,-1
 317 45 l 2,11,12
 305 0 305 0 256 0 c 2,13,-1
 197 0 l 2,14,15
 172 0 172 0 161 18.5 c 128,-1,16
 150 37 150 37 156 63 c 2,17,-1
 298.999843272 627.60282947 l 1,18,19
 298.92973665 762.557645636 298.92973665 762.557645636 267.464868325 1012.27882282 c 128,-1,20
 236 1262 236 1262 213 1344.5 c 128,-1,21
 190 1427 190 1427 204 1453 c 128,-1,22
 218 1479 218 1479 248 1481 c 1,23,-1
 305 1489 l 1,24,25
 334 1491 334 1491 346.5 1482 c 128,-1,26
 359 1473 359 1473 365 1440 c 0,27,28
 429.376854682 1061.20285506 429.376854682 1061.20285506 428.467329105 768.583732052 c 1,0,1
EndSplineSet
EndChar

StartChar: Z
Encoding: 90 90 106
Width: 937
VWidth: 0
Flags: W
HStem: 0 147<161.952 685.702> 1335 148<296.22 768.911 945.943 1011.59>
LayerCount: 2
Back
SplineSet
317 1483 m 2,0,1
 985 1483 l 2,2,3
 1012 1483 1012 1483 1019.5 1472 c 128,-1,4
 1027 1461 1027 1461 1024 1440 c 1,5,-1
 1012 1380 l 2,6,7
 1006 1354 1006 1354 992.5 1344.5 c 128,-1,8
 979 1335 979 1335 954 1335 c 2,9,-1
 945.943071161 1335 l 1,10,-1
 161.952059925 147 l 1,11,-1
 649 147 l 2,12,13
 709 147 709 147 696 92 c 1,14,-1
 686 45 l 2,15,16
 682 23 682 23 662.5 11.5 c 128,-1,17
 643 0 643 0 618 0 c 2,18,-1
 16 0 l 2,19,20
 -19 0 -19 0 -37.5 14 c 128,-1,21
 -56 28 -56 28 -56 49 c 128,-1,22
 -56 70 -56 70 -47 94 c 1,23,-1
 768.91119403 1335 l 1,24,-1
 311 1335 l 2,25,26
 253 1335 253 1335 266 1389 c 1,27,-1
 285 1454 l 1,28,29
 289 1472 289 1472 296 1477.5 c 128,-1,30
 303 1483 303 1483 317 1483 c 2,0,1
EndSplineSet
Fore
SplineSet
317 1483 m 2,0,1
 985 1483 l 2,2,3
 1012 1483 1012 1483 1019.5 1472 c 128,-1,4
 1027 1461 1027 1461 1024 1440 c 1,5,-1
 1012 1380 l 2,6,7
 1006 1354 1006 1354 992.5 1344.5 c 128,-1,8
 979 1335 979 1335 954 1335 c 2,9,-1
 945.943071161 1335 l 1,10,-1
 161.952059925 147 l 1,11,-1
 649 147 l 2,12,13
 709 147 709 147 696 92 c 1,14,-1
 686 45 l 1,15,16
 677.818181818 2.84217094304e-13 677.818181818 2.84217094304e-13 618 0 c 2,17,-1
 16 0 l 2,18,19
 -19 0 -19 0 -37.5 14 c 128,-1,20
 -56 28 -56 28 -56 49 c 128,-1,21
 -56 70 -56 70 -47 94 c 1,22,-1
 768.91119403 1335 l 1,23,-1
 311 1335 l 2,24,25
 253 1335 253 1335 266 1389 c 1,26,-1
 285 1454 l 1,27,28
 289 1472 289 1472 296 1477.5 c 128,-1,29
 303 1483 303 1483 317 1483 c 2,0,1
EndSplineSet
EndChar

StartChar: a
Encoding: 97 97 111
Width: 770
VWidth: 0
Flags: W
HStem: -6 21G<174 203.5>
LayerCount: 2
Back
SplineSet
572.932899957 884.986288167 m 1,0,1
 570.28818201 886.469233406 570.28818201 886.469233406 567.5 888 c 0,2,3
 542 902 542 902 517 909.5 c 128,-1,4
 492 917 492 917 462 915 c 128,-1,5
 432 913 432 913 408 897 c 0,6,7
 356 862 356 862 301.5 743.5 c 128,-1,8
 247 625 247 625 216.5 520 c 128,-1,9
 186 415 186 415 174 350 c 0,10,11
 158 264 158 264 161.5 227.5 c 128,-1,12
 165 191 165 191 195 174 c 0,13,14
 219 161 219 161 263.5 197 c 128,-1,15
 308 233 308 233 356.5 306 c 128,-1,16
 405 379 405 379 438 463 c 0,17,18
 497.746604156 617.638269581 497.746604156 617.638269581 572.932899957 884.986288167 c 1,0,1
603.906958249 999.74052353 m 1,19,20
 606.737789926 1012.21336978 606.737789926 1012.21336978 609 1019 c 0,21,22
 612 1028 612 1028 623 1037.5 c 128,-1,23
 634 1047 634 1047 651 1047 c 2,24,-1
 698 1049 l 1,25,26
 735 1049 735 1049 750 1029 c 128,-1,27
 765 1009 765 1009 754 975 c 2,28,-1
 508.679345741 156.075052328 l 1,29,30
 548.396456268 185.13047584 548.396456268 185.13047584 572.5 212 c 0,31,32
 603 246 603 246 635 291 c 0,33,34
 657 323 657 323 686 305 c 1,35,-1
 735 272 l 2,36,37
 750 262 750 262 752 247.5 c 128,-1,38
 754 233 754 233 745 221 c 0,39,40
 662 122 662 122 591 68.5 c 128,-1,41
 520 15 520 15 424 -8 c 0,42,43
 411 -11 411 -11 400.5 -4 c 128,-1,44
 390 3 390 3 387 14 c 2,45,-1
 348.360408623 127.553084863 l 1,46,47
 315.519482867 81.7072678854 315.519482867 81.7072678854 276.5 45.5 c 0,48,49
 221 -6 221 -6 186 -6 c 2,50,-1
 182 -6 l 2,51,52
 166 -6 166 -6 131.5 17.5 c 128,-1,53
 97 41 97 41 72 72 c 0,54,55
 58 89 58 89 50.5 99 c 128,-1,56
 43 109 43 109 34 124.5 c 128,-1,57
 25 140 25 140 21 155 c 128,-1,58
 17 170 17 170 13.5 190.5 c 128,-1,59
 10 211 10 211 11 236 c 128,-1,60
 12 261 12 261 16 293 c 0,61,62
 38 460 38 460 119.5 674.5 c 128,-1,63
 201 889 201 889 283 967 c 1,64,65
 357 1036 357 1036 475 1036 c 0,66,67
 543.985913683 1036 543.985913683 1036 603.906958249 999.74052353 c 1,19,20
EndSplineSet
Fore
SplineSet
572.932899957 884.986288167 m 1,0,1
 473.559964217 940.706642811 473.559964217 940.706642811 414.779982109 901.353321406 c 128,-1,2
 356 862 356 862 301.5 743.5 c 0,3,4
 209.861353454 544.248997878 209.861353454 544.248997878 174 350 c 0,5,6
 158 264 158 264 161.5 227.5 c 128,-1,7
 165 191 165 191 192 176 c 128,-1,8
 219 161 219 161 263.5 197 c 128,-1,9
 308 233 308 233 356.5 306 c 128,-1,10
 405 379 405 379 451.373302078 498.319134791 c 128,-1,11
 497.746604156 617.638269581 497.746604156 617.638269581 572.932899957 884.986288167 c 1,0,1
603.906958249 999.74052353 m 1,12,13
 614.632948159 1047 614.632948159 1047 651 1047 c 1,14,-1
 698 1049 l 1,15,16
 735 1049 735 1049 750 1029 c 128,-1,17
 765 1009 765 1009 754 975 c 2,18,-1
 508.679345741 156.075052328 l 1,19,20
 571.987577894 202.388781413 571.987577894 202.388781413 635 291 c 0,21,22
 657 323 657 323 686 305 c 1,23,-1
 735 272 l 2,24,25
 767.166666667 250.555555556 767.166666667 250.555555556 745 221 c 1,26,27
 662 122 662 122 591 68.5 c 128,-1,28
 520 15 520 15 424 -8 c 0,29,30
 411 -11 411 -11 400.5 -4 c 128,-1,31
 390 3 390 3 387 14 c 2,32,-1
 348.360408623 127.553084863 l 1,33,34
 315.519482867 81.7072678854 315.519482867 81.7072678854 268.259741434 37.8536339427 c 128,-1,35
 221 -6 221 -6 186 -6 c 2,36,-1
 182 -6 l 2,37,38
 166 -6 166 -6 131.5 17.5 c 128,-1,39
 97 41 97 41 77.5 65 c 128,-1,40
 58 89 58 89 50.5 99 c 128,-1,41
 43 109 43 109 34 124.5 c 128,-1,42
 25 140 25 140 21 155 c 128,-1,43
 17 170 17 170 13.5 190.5 c 0,44,45
 7.54639175258 225.371134021 7.54639175258 225.371134021 16 293 c 0,46,47
 38 460 38 460 119.5 674.5 c 128,-1,48
 201 889 201 889 279 962.5 c 128,-1,49
 357 1036 357 1036 475 1036 c 0,50,51
 543.985913683 1036 543.985913683 1036 603.906958249 999.74052353 c 1,12,13
EndSplineSet
EndChar

StartChar: a.sans
Encoding: 65546 -1 112
Width: 858
VWidth: 0
Flags: W
HStem: -6 180<174.101 266.703>
VStem: 340 137<16.5012 104.856>
LayerCount: 2
Back
SplineSet
571.294446887 884.783408731 m 1,0,1
 568.479116257 886.364406761 568.479116257 886.364406761 565.5 888 c 0,2,3
 540 902 540 902 515 909.5 c 128,-1,4
 490 917 490 917 460 915 c 128,-1,5
 430 913 430 913 406 897 c 0,6,7
 354 862 354 862 300 742 c 128,-1,8
 246 622 246 622 216 517.5 c 128,-1,9
 186 413 186 413 174 346 c 0,10,11
 161 270 161 270 173 222 c 128,-1,12
 185 174 185 174 213 174 c 0,13,14
 250 174 250 174 318.5 257.5 c 128,-1,15
 387 341 387 341 436 463 c 1,16,17
 499.825079703 626.497121978 499.825079703 626.497121978 571.294446887 884.783408731 c 1,0,1
602.344130605 999.475425586 m 1,18,19
 616.757700661 1045.16337829 616.757700661 1045.16337829 659 1047 c 2,20,-1
 707 1049 l 1,21,22
 774 1049 774 1049 752 975 c 2,23,-1
 477 57 l 2,24,25
 471 36 471 36 459.5 18 c 128,-1,26
 448 0 448 0 432 0 c 2,27,-1
 375 0 l 2,28,29
 355 0 355 0 345 16 c 128,-1,30
 335 32 335 32 340 53 c 2,31,-1
 361.374768474 148.897609911 l 1,32,33
 336.82120075 111.856898366 336.82120075 111.856898366 288.5 60 c 0,34,35
 227 -6 227 -6 184 -6 c 2,36,-1
 180 -6 l 2,37,38
 164 -6 164 -6 134.5 13 c 128,-1,39
 105 32 105 32 82 57 c 0,40,41
 45 99 45 99 27 163 c 128,-1,42
 9 227 9 227 16 293 c 1,43,44
 37 464 37 464 118 676.5 c 128,-1,45
 199 889 199 889 281 967 c 1,46,47
 355 1036 355 1036 473 1036 c 0,48,49
 542.237637104 1036 542.237637104 1036 602.344130605 999.475425586 c 1,18,19
EndSplineSet
Fore
SplineSet
571.294446887 884.783408731 m 1,0,1
 471.628684484 940.752456323 471.628684484 940.752456323 412.814342242 901.376228161 c 128,-1,2
 354 862 354 862 300 742 c 0,3,4
 208.512396694 538.694214876 208.512396694 538.694214876 174 346 c 0,5,6
 161 270 161 270 173 222 c 128,-1,7
 185 174 185 174 213 174 c 0,8,9
 250 174 250 174 318.5 257.5 c 128,-1,10
 387 341 387 341 443.412539852 483.748560989 c 128,-1,11
 499.825079703 626.497121978 499.825079703 626.497121978 571.294446887 884.783408731 c 1,0,1
602.344130605 999.475425586 m 1,12,13
 616.757700661 1045.16337829 616.757700661 1045.16337829 659 1047 c 2,14,-1
 707 1049 l 1,15,16
 774 1049 774 1049 752 975 c 2,17,-1
 477 57 l 2,18,19
 460.714285714 2.84217094304e-14 460.714285714 2.84217094304e-14 432 0 c 2,20,-1
 375 0 l 2,21,22
 355 0 355 0 345 16 c 128,-1,23
 335 32 335 32 340 53 c 2,24,-1
 361.374768474 148.897609911 l 1,25,26
 336.82120075 111.856898366 336.82120075 111.856898366 281.910600375 52.928449183 c 128,-1,27
 227 -6 227 -6 184 -6 c 2,28,-1
 180 -6 l 2,29,30
 164 -6 164 -6 134.5 13 c 128,-1,31
 105 32 105 32 75 65.5 c 128,-1,32
 45 99 45 99 27 163 c 128,-1,33
 9 227 9 227 16 293 c 1,34,35
 37 464 37 464 118 676.5 c 128,-1,36
 199 889 199 889 277 962.5 c 128,-1,37
 355 1036 355 1036 473 1036 c 0,38,39
 542.237637104 1036 542.237637104 1036 602.344130605 999.475425586 c 1,12,13
EndSplineSet
EndChar

StartChar: aadeva
Encoding: 2310 2310 114
Width: 1619
VWidth: 0
Flags: W
HStem: 94 146<253.211 446.091> 508 139<685.918 961.5> 668 147<338.094 513.76> 1161 148<974.781 1124.75 1282.75 1503.75 1661.75 1805.81> 1190 145<537.177 678.04>
VStem: 72 125<297.511 488.406> 543 143<348.947 508> 692 142<955.129 1171.06> 1233 139<6.71875 59.344>
AnchorPoint: "DVAnchor3" 1624 1290 basechar 0
LayerCount: 2
Back
SplineSet
344 692 m 1,0,1
 317 784 l 2,2,3
 315 791 315 791 322.5 803 c 128,-1,4
 330 815 330 815 338 815 c 2,5,-1
 403 815 l 2,6,7
 503 815 503 815 597.5 900.5 c 128,-1,8
 692 986 692 986 692 1079 c 0,9,10
 692 1128 692 1128 675.5 1159 c 128,-1,11
 659 1190 659 1190 629 1190 c 0,12,13
 582 1190 582 1190 522 1133 c 1,14,15
 478 1110 478 1110 461 1137 c 1,16,-1
 412 1200 l 1,17,18
 399 1220 399 1220 404 1238 c 128,-1,19
 409 1256 409 1256 436 1274 c 1,20,21
 520 1335 520 1335 606 1335 c 0,22,23
 699 1335 699 1335 766.5 1249 c 128,-1,24
 834 1163 834 1163 834 1053 c 0,25,26
 834 898 834 898 719 783 c 0,27,28
 667.876104288 731.876104288 667.876104288 731.876104288 608.847020787 703.47962347 c 1,29,30
 633.30339353 678.849365128 633.30339353 678.849365128 650.73577048 647 c 1,31,-1
 995 647 l 1,32,-1
 995.864745011 645.458980044 l 1,33,-1
 1124.75 1161 l 1,34,-1
 1026 1161 l 2,35,36
 987 1161 987 1161 979 1192 c 1,37,-1
 952 1278 l 2,38,39
 943 1309 943 1309 979 1309 c 2,40,-1
 1358 1309 l 1,41,-1
 1376 1309 l 1,42,-1
 1755 1309 l 2,43,44
 1793 1309 1793 1309 1802 1278 c 2,45,-1
 1827 1192 l 1,46,47
 1830 1176 1830 1176 1824.5 1168.5 c 128,-1,48
 1819 1161 1819 1161 1800 1161 c 2,49,-1
 1661.75 1161 l 1,50,-1
 1372 2 l 1,51,52
 1368 -20 1368 -20 1358 -24.5 c 128,-1,53
 1348 -29 1348 -29 1329 -20 c 2,54,-1
 1255 18 l 1,55,56
 1223 33 1223 33 1233 78 c 1,57,-1
 1503.75 1161 l 1,58,-1
 1421 1161 l 1,59,-1
 1405 1161 l 1,60,-1
 1282.75 1161 l 1,61,-1
 993 2 l 1,62,63
 989 -20 989 -20 979 -24.5 c 128,-1,64
 969 -29 969 -29 950 -20 c 2,65,-1
 877 18 l 1,66,67
 844 34 844 34 854 78 c 2,68,-1
 961.5 508 l 1,69,-1
 685.918381806 508 l 1,70,71
 686 504.023805306 686 504.023805306 686 500 c 0,72,73
 686 458 686 458 675 407.5 c 128,-1,74
 664 357 664 357 637.5 301 c 128,-1,75
 611 245 611 245 573.5 199.5 c 128,-1,76
 536 154 536 154 476.5 124 c 128,-1,77
 417 94 417 94 346 94 c 0,78,79
 282 94 282 94 229 128 c 128,-1,80
 176 162 176 162 143.5 217 c 128,-1,81
 111 272 111 272 92.5 335.5 c 128,-1,82
 74 399 74 399 72 463 c 1,83,84
 72 502 72 502 113 496 c 1,85,-1
 160 487 l 1,86,87
 171 486 171 486 178.5 481.5 c 128,-1,88
 186 477 186 477 190.5 467 c 128,-1,89
 195 457 195 457 197 450 c 128,-1,90
 199 443 199 443 201.5 426.5 c 128,-1,91
 204 410 204 410 205 403 c 0,92,93
 223 313 223 313 256 276.5 c 128,-1,94
 289 240 289 240 338 240 c 0,95,96
 400 240 400 240 449 287.5 c 128,-1,97
 498 335 498 335 520.5 396 c 128,-1,98
 543 457 543 457 543 514 c 0,99,100
 543 590 543 590 516.5 622.5 c 0,101,102
 491.702837752 652.911614078 491.702837752 652.911614078 425.314056225 668 c 1,103,-1
 387 668 l 2,104,105
 366 668 366 668 358 672 c 128,-1,106
 350 676 350 676 344 692 c 1,0,1
EndSplineSet
Fore
SplineSet
344 692 m 1,0,1
 317 784 l 2,2,3
 315 791 315 791 322.5 803 c 128,-1,4
 330 815 330 815 338 815 c 2,5,-1
 403 815 l 2,6,7
 503 815 503 815 597.5 900.5 c 128,-1,8
 692 986 692 986 692 1079 c 0,9,10
 692 1128 692 1128 675.5 1159 c 128,-1,11
 659 1190 659 1190 620.5 1190 c 128,-1,12
 582 1190 582 1190 522 1133 c 1,13,14
 478 1110 478 1110 461 1137 c 1,15,-1
 412 1200 l 1,16,17
 385.697674419 1240.46511628 385.697674419 1240.46511628 436 1274 c 1,18,19
 520 1335 520 1335 609.5 1335 c 128,-1,20
 699 1335 699 1335 766.5 1249 c 128,-1,21
 834 1163 834 1163 834 1053 c 0,22,23
 834 898 834 898 719 783 c 0,24,25
 667.876104288 731.876104288 667.876104288 731.876104288 608.847020787 703.47962347 c 1,26,27
 633.30339353 678.849365128 633.30339353 678.849365128 650.73577048 647 c 1,28,-1
 995 647 l 1,29,-1
 995.864745011 645.458980044 l 1,30,-1
 1124.75 1161 l 1,31,-1
 1026 1161 l 2,32,33
 987 1161 987 1161 979 1192 c 1,34,-1
 952 1278 l 2,35,36
 943 1309 943 1309 979 1309 c 2,37,-1
 1755 1309 l 2,38,39
 1793 1309 1793 1309 1802 1278 c 2,40,-1
 1827 1192 l 1,41,42
 1832.8125 1161 1832.8125 1161 1800 1161 c 2,43,-1
 1661.75 1161 l 1,44,-1
 1372 2 l 1,45,46
 1364.90748899 -37.0088105727 1364.90748899 -37.0088105727 1329 -20 c 1,47,-1
 1255 18 l 1,48,49
 1223 33 1223 33 1233 78 c 1,50,-1
 1503.75 1161 l 1,51,-1
 1282.75 1161 l 1,52,-1
 993 2 l 1,53,54
 985.907488987 -37.0088105727 985.907488987 -37.0088105727 950 -20 c 1,55,-1
 877 18 l 1,56,57
 844 34 844 34 854 78 c 2,58,-1
 961.5 508 l 1,59,-1
 685.918381806 508 l 1,60,61
 686 504.023805306 686 504.023805306 686 481.011902653 c 128,-1,62
 686 458 686 458 675 407.5 c 128,-1,63
 664 357 664 357 637.5 301 c 128,-1,64
 611 245 611 245 573.5 199.5 c 128,-1,65
 536 154 536 154 476.5 124 c 128,-1,66
 417 94 417 94 349.5 94 c 128,-1,67
 282 94 282 94 229 128 c 128,-1,68
 176 162 176 162 143.5 217 c 0,69,70
 76.1243654822 331.020304569 76.1243654822 331.020304569 72 463 c 1,71,72
 72 502 72 502 113 496 c 1,73,-1
 160 487 l 1,74,75
 182.417061611 484.962085308 182.417061611 484.962085308 188.708530806 470.981042654 c 128,-1,76
 195 457 195 457 197 450 c 0,77,78
 199.571428571 441 199.571428571 441 211.285714286 377 c 128,-1,79
 223 313 223 313 256 276.5 c 128,-1,80
 289 240 289 240 344.5 240 c 128,-1,81
 400 240 400 240 449 287.5 c 0,82,83
 543 378.62244898 543 378.62244898 543 514 c 0,84,85
 543 590 543 590 517.351418876 621.455807039 c 128,-1,86
 491.702837752 652.911614078 491.702837752 652.911614078 425.314056225 668 c 1,87,-1
 387 668 l 2,88,89
 366 668 366 668 358 672 c 128,-1,90
 350 676 350 676 344 692 c 1,0,1
EndSplineSet
EndChar

StartChar: aasigndeva
Encoding: 2366 2366 115
Width: 454
VWidth: 0
Flags: W
HStem: 1161 148<188.781 338.75 496.75 640.813>
VStem: 68 139<6.71875 59.344>
AnchorPoint: "DVAnchor3" 436 1296 basechar 0
LayerCount: 2
Back
SplineSet
637 1278 m 2,0,1
 662 1192 l 1,2,3
 665 1176 665 1176 659.5 1168.5 c 128,-1,4
 654 1161 654 1161 635 1161 c 2,5,-1
 496.75 1161 l 1,6,-1
 207 2 l 1,7,8
 203 -20 203 -20 193 -24.5 c 128,-1,9
 183 -29 183 -29 164 -20 c 2,10,-1
 90 18 l 1,11,12
 58 33 58 33 68 78 c 1,13,-1
 338.75 1161 l 1,14,-1
 240 1161 l 2,15,16
 201 1161 201 1161 193 1192 c 1,17,-1
 166 1278 l 2,18,19
 157 1309 157 1309 193 1309 c 2,20,-1
 590 1309 l 2,21,22
 628 1309 628 1309 637 1278 c 2,0,1
EndSplineSet
Fore
SplineSet
637 1278 m 2,0,1
 662 1192 l 1,2,3
 667.8125 1161 667.8125 1161 635 1161 c 2,4,-1
 496.75 1161 l 1,5,-1
 207 2 l 1,6,7
 199.907488987 -37.0088105727 199.907488987 -37.0088105727 164 -20 c 1,8,-1
 90 18 l 1,9,10
 58 33 58 33 68 78 c 1,11,-1
 338.75 1161 l 1,12,-1
 240 1161 l 2,13,14
 201 1161 201 1161 193 1192 c 1,15,-1
 166 1278 l 2,16,17
 157 1309 157 1309 193 1309 c 2,18,-1
 590 1309 l 2,19,20
 628 1309 628 1309 637 1278 c 2,0,1
EndSplineSet
EndChar

StartChar: abbreviationsigndeva
Encoding: 2416 2416 116
Width: 1116
VWidth: 0
Flags: W
HStem: 711 133<397.418 659.015> 1272 137<400.438 655.968>
VStem: 176 139<928.203 1187.65> 743 142<929.245 1186.59>
LayerCount: 2
Back
SplineSet
528 844 m 128,-1,1
 616 844 616 844 679.5 906.5 c 128,-1,2
 743 969 743 969 743 1057 c 128,-1,3
 743 1145 743 1145 679.5 1208.5 c 128,-1,4
 616 1272 616 1272 528 1272 c 128,-1,5
 440 1272 440 1272 377.5 1208.5 c 128,-1,6
 315 1145 315 1145 315 1057 c 128,-1,7
 315 969 315 969 377.5 906.5 c 128,-1,0
 440 844 440 844 528 844 c 128,-1,1
885 1061 m 0,8,9
 885 915 885 915 781.5 813 c 128,-1,10
 678 711 678 711 530 711 c 128,-1,11
 382 711 382 711 279 813 c 128,-1,12
 176 915 176 915 176 1061 c 0,13,14
 176 1206 176 1206 279 1307.5 c 128,-1,15
 382 1409 382 1409 530 1409 c 128,-1,16
 678 1409 678 1409 781.5 1307.5 c 128,-1,17
 885 1206 885 1206 885 1061 c 0,8,9
EndSplineSet
Fore
SplineSet
528 844 m 128,-1,1
 616 844 616 844 679.5 906.5 c 128,-1,2
 743 969 743 969 743 1057 c 128,-1,3
 743 1145 743 1145 679.5 1208.5 c 128,-1,4
 616 1272 616 1272 528 1272 c 128,-1,5
 440 1272 440 1272 377.5 1208.5 c 128,-1,6
 315 1145 315 1145 315 1057 c 128,-1,7
 315 969 315 969 377.5 906.5 c 128,-1,0
 440 844 440 844 528 844 c 128,-1,1
781.5 1307.5 m 128,-1,9
 885 1206 885 1206 885 1060.5 c 128,-1,10
 885 915 885 915 781.5 813 c 128,-1,11
 678 711 678 711 530 711 c 128,-1,12
 382 711 382 711 279 813 c 128,-1,13
 176 915 176 915 176 1060.5 c 128,-1,14
 176 1206 176 1206 279 1307.5 c 128,-1,15
 382 1409 382 1409 530 1409 c 128,-1,8
 678 1409 678 1409 781.5 1307.5 c 128,-1,9
EndSplineSet
EndChar

StartChar: acandradeva
Encoding: 2418 2418 118
Width: 1284
VWidth: 0
Flags: W
HStem: 94 146<257.211 450.091> 508 139<689.918 963.5> 668 147<342.312 518.602> 1161 148<976.781 1126.75 1284.75 1428.81> 1190 145<541.177 682.04> 1366 141<1023.17 1248.64>
VStem: 76 125<297.511 488.406> 547 143<348.947 508> 696 142<955.129 1171.06> 864 137<2.5625 36.0491 1521.44 1719.3>
LayerCount: 2
Back
SplineSet
907 1745 m 2,0,1
 975 1710 l 1,2,3
 1005 1696 1005 1696 1001 1640 c 0,4,5
 997 1597 997 1597 1006 1565 c 0,6,7
 1015 1535 1015 1535 1034 1521 c 128,-1,8
 1053 1507 1053 1507 1106 1507 c 0,9,10
 1288 1507 1288 1507 1362 1724 c 1,11,12
 1368 1745 1368 1745 1390 1751 c 128,-1,13
 1412 1757 1412 1757 1430 1747 c 2,14,-1
 1497 1710 l 2,15,16
 1503 1707 1503 1707 1506.5 1704.5 c 128,-1,17
 1510 1702 1510 1702 1512.5 1700 c 128,-1,18
 1515 1698 1515 1698 1514.5 1693.5 c 128,-1,19
 1514 1689 1514 1689 1513 1686.5 c 128,-1,20
 1512 1684 1512 1684 1509.5 1676 c 128,-1,21
 1507 1668 1507 1668 1505 1663 c 0,22,23
 1489 1607 1489 1607 1458.5 1556 c 128,-1,24
 1428 1505 1428 1505 1384.5 1461.5 c 128,-1,25
 1341 1418 1341 1418 1280 1392 c 128,-1,26
 1219 1366 1219 1366 1151 1366 c 0,27,28
 1059 1366 1059 1366 982.5 1421 c 128,-1,29
 906 1476 906 1476 877 1567 c 0,30,31
 864 1611 864 1611 864 1657 c 0,32,33
 864 1684 864 1684 877.5 1718.5 c 128,-1,34
 891 1753 891 1753 907 1745 c 2,0,1
348 692 m 1,35,-1
 322 784 l 2,36,37
 320 791 320 791 327 803 c 128,-1,38
 334 815 334 815 342 815 c 2,39,-1
 408 815 l 2,40,41
 508 815 508 815 602 900.5 c 128,-1,42
 696 986 696 986 696 1079 c 0,43,44
 696 1128 696 1128 679.5 1159 c 128,-1,45
 663 1190 663 1190 633 1190 c 0,46,47
 586 1190 586 1190 526 1133 c 1,48,49
 482 1110 482 1110 465 1137 c 1,50,-1
 416 1200 l 1,51,52
 403 1220 403 1220 408 1238 c 128,-1,53
 413 1256 413 1256 440 1274 c 1,54,55
 524 1335 524 1335 610 1335 c 0,56,57
 703 1335 703 1335 770.5 1249 c 128,-1,58
 838 1163 838 1163 838 1053 c 0,59,60
 838 898 838 898 723 783 c 0,61,62
 671.876104288 731.876104288 671.876104288 731.876104288 612.847020787 703.47962347 c 1,63,64
 637.30339353 678.849365128 637.30339353 678.849365128 654.73577048 647 c 1,65,-1
 998.25 647 l 1,66,-1
 1126.75 1161 l 1,67,-1
 1028 1161 l 2,68,69
 989 1161 989 1161 981 1192 c 1,70,-1
 954 1278 l 2,71,72
 945 1309 945 1309 981 1309 c 2,73,-1
 1378 1309 l 2,74,75
 1416 1309 1416 1309 1425 1278 c 2,76,-1
 1450 1192 l 1,77,78
 1453 1176 1453 1176 1447.5 1168.5 c 128,-1,79
 1442 1161 1442 1161 1423 1161 c 2,80,-1
 1284.75 1161 l 1,81,-1
 995 2 l 1,82,83
 991 -20 991 -20 981 -24.5 c 128,-1,84
 971 -29 971 -29 952 -20 c 2,85,-1
 879 18 l 1,86,87
 846 34 846 34 856 78 c 2,88,-1
 963.5 508 l 1,89,-1
 689.918381806 508 l 1,90,91
 690 504.023805306 690 504.023805306 690 500 c 0,92,93
 690 458 690 458 679 407.5 c 128,-1,94
 668 357 668 357 641.5 301 c 128,-1,95
 615 245 615 245 577.5 199.5 c 128,-1,96
 540 154 540 154 480.5 124 c 128,-1,97
 421 94 421 94 350 94 c 0,98,99
 286 94 286 94 233 128 c 128,-1,100
 180 162 180 162 147.5 217 c 128,-1,101
 115 272 115 272 96.5 335.5 c 128,-1,102
 78 399 78 399 76 463 c 1,103,104
 76 502 76 502 117 496 c 1,105,-1
 164 487 l 1,106,107
 175 486 175 486 182.5 481.5 c 128,-1,108
 190 477 190 477 194.5 467 c 128,-1,109
 199 457 199 457 201 450 c 128,-1,110
 203 443 203 443 205.5 426.5 c 128,-1,111
 208 410 208 410 209 403 c 0,112,113
 227 313 227 313 260 276.5 c 128,-1,114
 293 240 293 240 342 240 c 0,115,116
 404 240 404 240 453 287.5 c 128,-1,117
 502 335 502 335 524.5 396 c 128,-1,118
 547 457 547 457 547 514 c 0,119,120
 547 590 547 590 520.5 622.5 c 0,121,122
 495.702837752 652.911614078 495.702837752 652.911614078 429.314056225 668 c 1,123,-1
 391 668 l 2,124,125
 370 668 370 668 362 672 c 128,-1,126
 354 676 354 676 348 692 c 1,35,-1
EndSplineSet
Fore
SplineSet
907 1745 m 2,0,1
 975 1710 l 1,2,3
 1005 1696 1005 1696 1001 1646.5 c 128,-1,4
 997 1597 997 1597 1006 1566 c 128,-1,5
 1015 1535 1015 1535 1034 1521 c 128,-1,6
 1053 1507 1053 1507 1106 1507 c 0,7,8
 1288 1507 1288 1507 1362 1724 c 1,9,10
 1368 1745 1368 1745 1390 1751 c 128,-1,11
 1412 1757 1412 1757 1430 1747 c 2,12,-1
 1497 1710 l 2,13,14
 1505 1706 1505 1706 1510 1702 c 128,-1,15
 1515 1698 1515 1698 1514.5 1693.5 c 128,-1,16
 1514 1689 1514 1689 1513 1686.5 c 128,-1,17
 1512 1684 1512 1684 1509.5 1676 c 128,-1,18
 1507 1668 1507 1668 1498 1637.5 c 128,-1,19
 1489 1607 1489 1607 1458.5 1556 c 128,-1,20
 1428 1505 1428 1505 1384.5 1461.5 c 0,21,22
 1289 1366 1289 1366 1151 1366 c 0,23,24
 1059 1366 1059 1366 982.5 1421 c 0,25,26
 864 1506.19607843 864 1506.19607843 864 1657 c 0,27,28
 864 1684 864 1684 877.5 1718.5 c 128,-1,29
 891 1753 891 1753 907 1745 c 2,0,1
348 692 m 1,30,-1
 322 784 l 2,31,32
 320 791 320 791 327 803 c 128,-1,33
 334 815 334 815 342 815 c 2,34,-1
 408 815 l 2,35,36
 508 815 508 815 602 900.5 c 128,-1,37
 696 986 696 986 696 1079 c 0,38,39
 696 1128 696 1128 679.5 1159 c 128,-1,40
 663 1190 663 1190 624.5 1190 c 128,-1,41
 586 1190 586 1190 526 1133 c 1,42,43
 482 1110 482 1110 465 1137 c 1,44,-1
 416 1200 l 1,45,46
 389.697674419 1240.46511628 389.697674419 1240.46511628 440 1274 c 1,47,48
 524 1335 524 1335 613.5 1335 c 128,-1,49
 703 1335 703 1335 770.5 1249 c 128,-1,50
 838 1163 838 1163 838 1053 c 0,51,52
 838 898 838 898 723 783 c 0,53,54
 671.876104288 731.876104288 671.876104288 731.876104288 612.847020787 703.47962347 c 1,55,56
 637.30339353 678.849365128 637.30339353 678.849365128 654.73577048 647 c 1,57,-1
 998.25 647 l 1,58,-1
 1126.75 1161 l 1,59,-1
 1028 1161 l 2,60,61
 989 1161 989 1161 981 1192 c 1,62,-1
 954 1278 l 2,63,64
 945 1309 945 1309 981 1309 c 2,65,-1
 1378 1309 l 2,66,67
 1416 1309 1416 1309 1425 1278 c 2,68,-1
 1450 1192 l 1,69,70
 1455.8125 1161 1455.8125 1161 1423 1161 c 2,71,-1
 1284.75 1161 l 1,72,-1
 995 2 l 1,73,74
 987.907488987 -37.0088105727 987.907488987 -37.0088105727 952 -20 c 1,75,-1
 879 18 l 1,76,77
 846 34 846 34 856 78 c 2,78,-1
 963.5 508 l 1,79,-1
 689.918381806 508 l 1,80,81
 690 504.023805306 690 504.023805306 690 481.011902653 c 128,-1,82
 690 458 690 458 679 407.5 c 128,-1,83
 668 357 668 357 641.5 301 c 128,-1,84
 615 245 615 245 577.5 199.5 c 128,-1,85
 540 154 540 154 480.5 124 c 128,-1,86
 421 94 421 94 353.5 94 c 128,-1,87
 286 94 286 94 233 128 c 128,-1,88
 180 162 180 162 147.5 217 c 0,89,90
 80.1243654822 331.020304569 80.1243654822 331.020304569 76 463 c 1,91,92
 76 502 76 502 117 496 c 1,93,-1
 164 487 l 1,94,95
 186.417061611 484.962085308 186.417061611 484.962085308 192.708530806 470.981042654 c 128,-1,96
 199 457 199 457 201 450 c 0,97,98
 203.571428571 441 203.571428571 441 215.285714286 377 c 128,-1,99
 227 313 227 313 260 276.5 c 128,-1,100
 293 240 293 240 348.5 240 c 128,-1,101
 404 240 404 240 453 287.5 c 0,102,103
 547 378.62244898 547 378.62244898 547 514 c 0,104,105
 547 590 547 590 521.351418876 621.455807039 c 128,-1,106
 495.702837752 652.911614078 495.702837752 652.911614078 429.314056225 668 c 1,107,-1
 391 668 l 2,108,109
 370 668 370 668 362 672 c 128,-1,110
 354 676 354 676 348 692 c 1,30,-1
EndSplineSet
EndChar

StartChar: acombiningletterdeva
Encoding: 43242 43242 120
Width: 0
VWidth: 0
Flags: W
HStem: 1352 104<-331.382 -211.033> 1499 90<-101.251 3.43601> 1567 104<-294.745 -203.758> 1753 102<-228.798 -141.086 -19.4375 72.308 189.204 280.102>
VStem: -141 104<1691.42 1760.78>
AnchorPoint: "DVAnchor3" -137 1251 mark 0
LayerCount: 2
Back
SplineSet
-295 1585 m 1,0,1
 -315 1651 l 1,2,3
 -315 1655 -315 1655 -310.5 1663 c 128,-1,4
 -306 1671 -306 1671 -301 1671 c 2,5,-1
 -252 1671 l 2,6,7
 -212 1671 -212 1671 -176.5 1697.5 c 128,-1,8
 -141 1724 -141 1724 -141 1749 c 0,9,10
 -141 1753 -141 1753 -146.5 1757 c 128,-1,11
 -152 1761 -152 1761 -160 1761 c 0,12,13
 -165 1761 -165 1761 -195 1743 c 1,14,15
 -217 1736 -217 1736 -236 1757 c 1,16,-1
 -264 1798 l 2,17,18
 -265 1799 -265 1799 -268 1804 c 128,-1,19
 -271 1809 -271 1809 -272 1810.5 c 128,-1,20
 -273 1812 -273 1812 -275 1816 c 128,-1,21
 -277 1820 -277 1820 -276 1823 c 128,-1,22
 -275 1826 -275 1826 -273.5 1830.5 c 128,-1,23
 -272 1835 -272 1835 -268 1839 c 0,24,25
 -250 1852 -250 1852 -232.5 1857.5 c 128,-1,26
 -215 1863 -215 1863 -207 1863.5 c 128,-1,27
 -199 1864 -199 1864 -178 1864 c 0,28,29
 -117 1864 -117 1864 -77 1820.5 c 128,-1,30
 -37 1777 -37 1777 -37 1712 c 0,31,32
 -37 1655 -37 1655 -95 1611 c 0,33,34
 -105.782085692 1602.82048672 -105.782085692 1602.82048672 -117.186216774 1596.16152883 c 1,35,36
 -114.402131651 1592.70697766 -114.402131651 1592.70697766 -111.925799378 1589 c 1,37,-1
 27.8394793926 1589 l 1,38,-1
 72.3080260304 1753 l 1,39,-1
 8 1753 l 2,40,41
 -9 1753 -9 1753 -12 1767 c 2,42,-1
 -29 1837 l 1,43,44
 -29 1848 -29 1848 -26 1851.5 c 128,-1,45
 -23 1855 -23 1855 -14 1855 c 2,46,-1
 252 1855 l 2,47,48
 271 1855 271 1855 274 1837 c 1,49,-1
 291 1767 l 1,50,51
 297 1753 297 1753 279 1753 c 2,52,-1
 189.204301075 1753 l 1,53,-1
 72 1317 l 2,54,55
 70 1311 70 1311 68 1308.5 c 128,-1,56
 66 1306 66 1306 63 1306 c 128,-1,57
 60 1306 60 1306 55 1309 c 2,58,-1
 -23 1346 l 2,59,60
 -35 1351 -35 1351 -31 1372 c 1,61,-1
 3.43600867679 1499 l 1,62,-1
 -92.4509255458 1499 l 1,63,64
 -96.4289119705 1438.36745989 -96.4289119705 1438.36745989 -135.5 1397.5 c 0,65,66
 -179 1352 -179 1352 -250 1352 c 0,67,68
 -315 1352 -315 1352 -358 1397.5 c 128,-1,69
 -401 1443 -401 1443 -412 1507 c 1,70,71
 -415 1516 -415 1516 -407 1524.5 c 128,-1,72
 -399 1533 -399 1533 -387 1530 c 2,73,-1
 -354 1522 l 2,74,75
 -336 1517 -336 1517 -330 1489 c 1,76,77
 -310 1456 -310 1456 -276 1456 c 0,78,79
 -245 1456 -245 1456 -224 1481 c 128,-1,80
 -203 1506 -203 1506 -203 1538 c 0,81,82
 -203 1564.51428571 -203 1564.51428571 -233.893877551 1567 c 1,83,-1
 -248 1567 l 1,84,-1
 -260 1567 l 2,85,86
 -287 1567 -287 1567 -295 1585 c 1,0,1
EndSplineSet
Fore
SplineSet
-233.893877551 1567 m 1,0,-1
 -260 1567 l 2,1,2
 -287 1567 -287 1567 -295 1585 c 1,3,-1
 -315 1651 l 1,4,5
 -315 1655 -315 1655 -310.5 1663 c 128,-1,6
 -306 1671 -306 1671 -301 1671 c 2,7,-1
 -252 1671 l 2,8,9
 -212 1671 -212 1671 -176.5 1697.5 c 128,-1,10
 -141 1724 -141 1724 -141 1749 c 0,11,12
 -141 1761 -141 1761 -160 1761 c 0,13,14
 -165 1761 -165 1761 -195 1743 c 1,15,16
 -217 1736 -217 1736 -236 1757 c 1,17,-1
 -264 1798 l 2,18,19
 -265 1799 -265 1799 -268 1804 c 128,-1,20
 -271 1809 -271 1809 -272 1810.5 c 128,-1,21
 -273 1812 -273 1812 -275 1816 c 128,-1,22
 -277 1820 -277 1820 -276 1823 c 0,23,24
 -268.244680851 1846.26595745 -268.244680851 1846.26595745 -241.622340426 1854.63297872 c 0,25,26
 -211.818181818 1864 -211.818181818 1864 -164.409090909 1864 c 128,-1,27
 -117 1864 -117 1864 -77 1820.5 c 128,-1,28
 -37 1777 -37 1777 -37 1709.99143187 c 128,-1,29
 -37 1642.98286375 -37 1642.98286375 -117.186216774 1596.16152883 c 1,30,31
 -114.402131651 1592.70697766 -114.402131651 1592.70697766 -111.925799378 1589 c 1,32,-1
 27.8394793926 1589 l 1,33,-1
 72.3080260304 1753 l 1,34,-1
 8 1753 l 2,35,36
 -9 1753 -9 1753 -12 1767 c 2,37,-1
 -29 1837 l 1,38,39
 -29 1855 -29 1855 -14 1855 c 2,40,-1
 252 1855 l 2,41,42
 271 1855 271 1855 274 1837 c 1,43,-1
 291 1767 l 1,44,45
 297 1753 297 1753 279 1753 c 2,46,-1
 189.204301075 1753 l 1,47,-1
 72 1317 l 2,48,49
 68.3333333333 1306 68.3333333333 1306 64.1666666667 1306 c 128,-1,50
 60 1306 60 1306 55 1309 c 2,51,-1
 -23 1346 l 2,52,53
 -35 1351 -35 1351 -31 1372 c 1,54,-1
 3.43600867679 1499 l 1,55,-1
 -92.4509255458 1499 l 1,56,57
 -96.4289119705 1438.36745989 -96.4289119705 1438.36745989 -137.714455985 1395.18372994 c 128,-1,58
 -179 1352 -179 1352 -247 1352 c 128,-1,59
 -315 1352 -315 1352 -358 1397.5 c 128,-1,60
 -401 1443 -401 1443 -412 1507 c 1,61,62
 -415 1516 -415 1516 -407 1524.5 c 128,-1,63
 -399 1533 -399 1533 -387 1530 c 2,64,-1
 -354 1522 l 2,65,66
 -336 1517 -336 1517 -330 1489 c 1,67,68
 -310 1456 -310 1456 -277.5 1456 c 128,-1,69
 -245 1456 -245 1456 -224 1481 c 128,-1,70
 -203 1506 -203 1506 -203 1535.25714285 c 128,-1,71
 -203 1564.51428571 -203 1564.51428571 -233.893877551 1567 c 1,0,-1
EndSplineSet
EndChar

StartChar: acute
Encoding: 180 180 121
Width: 573
VWidth: 0
Flags: W
HStem: 1167 263
VStem: 135 311
LayerCount: 2
Back
SplineSet
418 1430 m 2,0,1
 440 1430 440 1430 446 1416.5 c 128,-1,2
 452 1403 452 1403 432 1378 c 1,3,-1
 254 1192 l 2,4,5
 240 1177 240 1177 229 1172 c 128,-1,6
 218 1167 218 1167 197 1167 c 2,7,-1
 154 1167 l 2,8,9
 137 1167 137 1167 133 1178.5 c 128,-1,10
 129 1190 129 1190 135 1196 c 1,11,-1
 262 1395 l 2,12,13
 284 1430 284 1430 326 1430 c 2,14,-1
 418 1430 l 2,0,1
EndSplineSet
Fore
SplineSet
418 1430 m 2,0,1
 440 1430 440 1430 446 1416.5 c 128,-1,2
 452 1403 452 1403 432 1378 c 1,3,-1
 254 1192 l 2,4,5
 230.666666667 1167 230.666666667 1167 197 1167 c 2,6,-1
 154 1167 l 2,7,8
 137 1167 137 1167 133 1178.5 c 128,-1,9
 129 1190 129 1190 135 1196 c 1,10,-1
 262 1395 l 2,11,12
 284 1430 284 1430 326 1430 c 2,13,-1
 418 1430 l 2,0,1
EndSplineSet
EndChar

StartChar: acutedeva
Encoding: 2388 2388 122
Width: 0
VWidth: 0
Flags: W
HStem: 1270 262
VStem: -94 310.5
AnchorPoint: "DVAnchor3" -27 1284 mark 0
LayerCount: 2
Back
SplineSet
188 1532 m 2,0,1
 210 1532 210 1532 216.5 1519 c 128,-1,2
 223 1506 223 1506 203 1481 c 1,3,-1
 25 1294 l 2,4,5
 12 1279 12 1279 0.5 1274.5 c 128,-1,6
 -11 1270 -11 1270 -33 1270 c 2,7,-1
 -76 1270 l 2,8,9
 -93 1270 -93 1270 -97 1281 c 128,-1,10
 -101 1292 -101 1292 -94 1298 c 1,11,-1
 33 1497 l 2,12,13
 55 1532 55 1532 96 1532 c 2,14,-1
 188 1532 l 2,0,1
EndSplineSet
Fore
SplineSet
188 1532 m 2,0,1
 210 1532 210 1532 216.5 1519 c 128,-1,2
 223 1506 223 1506 203 1481 c 1,3,-1
 25 1294 l 1,4,5
 4.2 1270 4.2 1270 -33 1270 c 2,6,-1
 -76 1270 l 2,7,8
 -93 1270 -93 1270 -97 1281 c 128,-1,9
 -101 1292 -101 1292 -94 1298 c 1,10,-1
 33 1497 l 2,11,12
 55 1532 55 1532 96 1532 c 2,13,-1
 188 1532 l 2,0,1
EndSplineSet
EndChar

StartChar: adeva
Encoding: 2309 2309 123
Width: 1247
VWidth: 0
Flags: W
HStem: 94 146<257.211 450.091> 508 139<689.918 963.5> 668 147<342.312 518.602> 1161 148<976.781 1126.75 1284.75 1428.81> 1190 145<541.177 682.04>
VStem: 76 125<297.511 488.406> 547 143<348.947 508> 696 142<955.129 1171.06>
AnchorPoint: "DVAnchor3" 1227 1296 basechar 0
LayerCount: 2
Back
SplineSet
348 692 m 1,0,1
 322 784 l 2,2,3
 320 791 320 791 327 803 c 128,-1,4
 334 815 334 815 342 815 c 2,5,-1
 408 815 l 2,6,7
 508 815 508 815 602 900.5 c 128,-1,8
 696 986 696 986 696 1079 c 0,9,10
 696 1128 696 1128 679.5 1159 c 128,-1,11
 663 1190 663 1190 633 1190 c 0,12,13
 586 1190 586 1190 526 1133 c 1,14,15
 482 1110 482 1110 465 1137 c 1,16,-1
 416 1200 l 1,17,18
 403 1220 403 1220 408 1238 c 128,-1,19
 413 1256 413 1256 440 1274 c 1,20,21
 524 1335 524 1335 610 1335 c 0,22,23
 703 1335 703 1335 770.5 1249 c 128,-1,24
 838 1163 838 1163 838 1053 c 0,25,26
 838 898 838 898 723 783 c 0,27,28
 671.876104288 731.876104288 671.876104288 731.876104288 612.847020787 703.47962347 c 1,29,30
 637.30339353 678.849365128 637.30339353 678.849365128 654.73577048 647 c 1,31,-1
 998.25 647 l 1,32,-1
 1126.75 1161 l 1,33,-1
 1028 1161 l 2,34,35
 989 1161 989 1161 981 1192 c 1,36,-1
 954 1278 l 2,37,38
 945 1309 945 1309 981 1309 c 2,39,-1
 1378 1309 l 2,40,41
 1416 1309 1416 1309 1425 1278 c 2,42,-1
 1450 1192 l 1,43,44
 1453 1176 1453 1176 1447.5 1168.5 c 128,-1,45
 1442 1161 1442 1161 1423 1161 c 2,46,-1
 1284.75 1161 l 1,47,-1
 995 2 l 1,48,49
 991 -20 991 -20 981 -24.5 c 128,-1,50
 971 -29 971 -29 952 -20 c 2,51,-1
 879 18 l 1,52,53
 846 34 846 34 856 78 c 2,54,-1
 963.5 508 l 1,55,-1
 689.918381806 508 l 1,56,57
 690 504.023805306 690 504.023805306 690 500 c 0,58,59
 690 458 690 458 679 407.5 c 128,-1,60
 668 357 668 357 641.5 301 c 128,-1,61
 615 245 615 245 577.5 199.5 c 128,-1,62
 540 154 540 154 480.5 124 c 128,-1,63
 421 94 421 94 350 94 c 0,64,65
 286 94 286 94 233 128 c 128,-1,66
 180 162 180 162 147.5 217 c 128,-1,67
 115 272 115 272 96.5 335.5 c 128,-1,68
 78 399 78 399 76 463 c 1,69,70
 76 502 76 502 117 496 c 1,71,-1
 164 487 l 1,72,73
 175 486 175 486 182.5 481.5 c 128,-1,74
 190 477 190 477 194.5 467 c 128,-1,75
 199 457 199 457 201 450 c 128,-1,76
 203 443 203 443 205.5 426.5 c 128,-1,77
 208 410 208 410 209 403 c 0,78,79
 227 313 227 313 260 276.5 c 128,-1,80
 293 240 293 240 342 240 c 0,81,82
 404 240 404 240 453 287.5 c 128,-1,83
 502 335 502 335 524.5 396 c 128,-1,84
 547 457 547 457 547 514 c 0,85,86
 547 590 547 590 520.5 622.5 c 0,87,88
 495.702837752 652.911614078 495.702837752 652.911614078 429.314056225 668 c 1,89,-1
 391 668 l 2,90,91
 370 668 370 668 362 672 c 128,-1,92
 354 676 354 676 348 692 c 1,0,1
EndSplineSet
Fore
SplineSet
348 692 m 1,0,1
 322 784 l 2,2,3
 320 791 320 791 327 803 c 128,-1,4
 334 815 334 815 342 815 c 2,5,-1
 408 815 l 2,6,7
 508 815 508 815 602 900.5 c 128,-1,8
 696 986 696 986 696 1079 c 0,9,10
 696 1128 696 1128 679.5 1159 c 128,-1,11
 663 1190 663 1190 624.5 1190 c 128,-1,12
 586 1190 586 1190 526 1133 c 1,13,14
 482 1110 482 1110 465 1137 c 1,15,-1
 416 1200 l 1,16,17
 389.697674419 1240.46511628 389.697674419 1240.46511628 440 1274 c 1,18,19
 524 1335 524 1335 613.5 1335 c 128,-1,20
 703 1335 703 1335 770.5 1249 c 128,-1,21
 838 1163 838 1163 838 1053 c 0,22,23
 838 898 838 898 723 783 c 0,24,25
 671.876104288 731.876104288 671.876104288 731.876104288 612.847020787 703.47962347 c 1,26,27
 637.30339353 678.849365128 637.30339353 678.849365128 654.73577048 647 c 1,28,-1
 998.25 647 l 1,29,-1
 1126.75 1161 l 1,30,-1
 1028 1161 l 2,31,32
 989 1161 989 1161 981 1192 c 1,33,-1
 954 1278 l 2,34,35
 945 1309 945 1309 981 1309 c 2,36,-1
 1378 1309 l 2,37,38
 1416 1309 1416 1309 1425 1278 c 2,39,-1
 1450 1192 l 1,40,41
 1455.8125 1161 1455.8125 1161 1423 1161 c 2,42,-1
 1284.75 1161 l 1,43,-1
 995 2 l 1,44,45
 987.907488987 -37.0088105727 987.907488987 -37.0088105727 952 -20 c 1,46,-1
 879 18 l 1,47,48
 846 34 846 34 856 78 c 2,49,-1
 963.5 508 l 1,50,-1
 689.918381806 508 l 1,51,52
 690 504.023805306 690 504.023805306 690 481.011902653 c 128,-1,53
 690 458 690 458 679 407.5 c 128,-1,54
 668 357 668 357 641.5 301 c 128,-1,55
 615 245 615 245 577.5 199.5 c 128,-1,56
 540 154 540 154 480.5 124 c 128,-1,57
 421 94 421 94 353.5 94 c 128,-1,58
 286 94 286 94 233 128 c 128,-1,59
 180 162 180 162 147.5 217 c 0,60,61
 80.1243654822 331.020304569 80.1243654822 331.020304569 76 463 c 1,62,63
 76 502 76 502 117 496 c 1,64,-1
 164 487 l 1,65,66
 186.417061611 484.962085308 186.417061611 484.962085308 192.708530806 470.981042654 c 128,-1,67
 199 457 199 457 201 450 c 0,68,69
 203.571428571 441 203.571428571 441 215.285714286 377 c 128,-1,70
 227 313 227 313 260 276.5 c 128,-1,71
 293 240 293 240 348.5 240 c 128,-1,72
 404 240 404 240 453 287.5 c 0,73,74
 547 378.62244898 547 378.62244898 547 514 c 0,75,76
 547 590 547 590 521.351418876 621.455807039 c 128,-1,77
 495.702837752 652.911614078 495.702837752 652.911614078 429.314056225 668 c 1,78,-1
 391 668 l 2,79,80
 370 668 370 668 362 672 c 128,-1,81
 354 676 354 676 348 692 c 1,0,1
EndSplineSet
EndChar

StartChar: adevaComp
Encoding: 65547 -1 124
Width: 1089
VWidth: 0
Flags: W
HStem: 94 146<324.523 517.34> 668 147<410.094 585.76> 1190 145<609.173 749.737>
VStem: 143 125<295.12 488.406> 614 144<347.616 629.586> 764 141<955.129 1171.06>
LayerCount: 2
Back
SplineSet
416 692 m 1,0,1
 389 784 l 2,2,3
 387 791 387 791 394.5 803 c 128,-1,4
 402 815 402 815 410 815 c 2,5,-1
 475 815 l 2,6,7
 575 815 575 815 669.5 900.5 c 128,-1,8
 764 986 764 986 764 1079 c 0,9,10
 764 1128 764 1128 747 1159 c 128,-1,11
 730 1190 730 1190 700 1190 c 0,12,13
 654 1190 654 1190 594 1133 c 1,14,15
 549 1110 549 1110 532 1137 c 1,16,-1
 483 1200 l 1,17,18
 459 1241 459 1241 508 1274 c 1,19,20
 592 1335 592 1335 678 1335 c 0,21,22
 771 1335 771 1335 838 1249 c 128,-1,23
 905 1163 905 1163 905 1053 c 0,24,25
 905 898 905 898 790 783 c 0,26,27
 739.168838255 732.168838255 739.168838255 732.168838255 680.522759294 703.805563504 c 1,28,29
 713.700174928 670.520432457 713.700174928 670.520432457 734 624 c 0,30,31
 758 569 758 569 758 500 c 0,32,33
 758 458 758 458 747 407.5 c 128,-1,34
 736 357 736 357 709.5 301 c 128,-1,35
 683 245 683 245 645.5 199.5 c 128,-1,36
 608 154 608 154 548.5 124 c 128,-1,37
 489 94 489 94 418 94 c 0,38,39
 366 94 366 94 321 116.5 c 128,-1,40
 276 139 276 139 245 176.5 c 128,-1,41
 214 214 214 214 191 262.5 c 128,-1,42
 168 311 168 311 156.5 361.5 c 128,-1,43
 145 412 145 412 143 463 c 1,44,45
 143 502 143 502 184 496 c 1,46,-1
 231 487 l 1,47,48
 242 486 242 486 249.5 481.5 c 128,-1,49
 257 477 257 477 261.5 467 c 128,-1,50
 266 457 266 457 268 450 c 128,-1,51
 270 443 270 443 272.5 426.5 c 128,-1,52
 275 410 275 410 276 403 c 0,53,54
 294 313 294 313 327 276.5 c 128,-1,55
 360 240 360 240 410 240 c 0,56,57
 472 240 472 240 521 287.5 c 128,-1,58
 570 335 570 335 592 396 c 128,-1,59
 614 457 614 457 614 514 c 0,60,61
 614 590 614 590 587.5 622.5 c 0,62,63
 562.702837752 652.911614078 562.702837752 652.911614078 496.314056225 668 c 1,64,-1
 459 668 l 2,65,66
 438 668 438 668 430 672 c 128,-1,67
 422 676 422 676 416 692 c 1,0,1
EndSplineSet
Fore
SplineSet
680.522759294 703.805563504 m 1,0,1
 758 626.076781416 758 626.076781416 758 500 c 0,2,3
 758 403.490566038 758 403.490566038 720.5 324.245283019 c 128,-1,4
 683 245 683 245 645.5 199.5 c 128,-1,5
 608 154 608 154 548.5 124 c 128,-1,6
 489 94 489 94 427.5 94 c 128,-1,7
 366 94 366 94 321 116.5 c 128,-1,8
 276 139 276 139 245 176.5 c 128,-1,9
 214 214 214 214 191 262.5 c 0,10,11
 147.244423792 354.767193309 147.244423792 354.767193309 143 463 c 1,12,13
 143 502 143 502 184 496 c 1,14,-1
 231 487 l 1,15,16
 253.417061611 484.962085308 253.417061611 484.962085308 259.708530806 470.981042654 c 128,-1,17
 266 457 266 457 268 450 c 0,18,19
 270.571428571 441 270.571428571 441 282.285714286 377 c 128,-1,20
 294 313 294 313 327 276.5 c 128,-1,21
 360 240 360 240 416 240 c 128,-1,22
 472 240 472 240 521 287.5 c 0,23,24
 614 377.653061224 614 377.653061224 614 514 c 0,25,26
 614 590 614 590 588.351418876 621.455807039 c 128,-1,27
 562.702837752 652.911614078 562.702837752 652.911614078 496.314056225 668 c 1,28,-1
 459 668 l 2,29,30
 438 668 438 668 430 672 c 128,-1,31
 422 676 422 676 416 692 c 1,32,-1
 389 784 l 2,33,34
 387 791 387 791 394.5 803 c 128,-1,35
 402 815 402 815 410 815 c 2,36,-1
 475 815 l 2,37,38
 575 815 575 815 669.5 900.5 c 128,-1,39
 764 986 764 986 764 1079 c 0,40,41
 764 1128 764 1128 747 1159 c 128,-1,42
 730 1190 730 1190 692 1190 c 128,-1,43
 654 1190 654 1190 594 1133 c 1,44,45
 549 1110 549 1110 532 1137 c 1,46,-1
 483 1200 l 1,47,48
 459 1241 459 1241 508 1274 c 1,49,50
 592 1335 592 1335 681.5 1335 c 128,-1,51
 771 1335 771 1335 838 1249 c 128,-1,52
 905 1163 905 1163 905 1053 c 0,53,54
 905 898 905 898 790 783 c 0,55,56
 739.168838255 732.168838255 739.168838255 732.168838255 680.522759294 703.805563504 c 1,0,1
EndSplineSet
EndChar

StartChar: ae
Encoding: 230 230 126
Width: 1034
VWidth: 0
Flags: W
HStem: 891 142<744.475 887.521>
VStem: -31 160<129.95 365.992> 891 149<648.738 888.914>
LayerCount: 2
Back
SplineSet
561.643432508 412.733089442 m 1,0,1
 635.416949819 443.461785421 635.416949819 443.461785421 693 483.5 c 0,2,3
 757 528 757 528 793.5 570.5 c 128,-1,4
 830 613 830 613 853 660.5 c 128,-1,5
 876 708 876 708 883.5 743 c 128,-1,6
 891 778 891 778 891 811 c 0,7,8
 891 891 891 891 844 891 c 0,9,10
 794 891 794 891 740.5 843.5 c 128,-1,11
 687 796 687 796 655 719 c 0,12,13
 617 626 617 626 589.5 528 c 0,14,15
 575.506987528 478.133991916 575.506987528 478.133991916 561.643432508 412.733089442 c 1,0,1
536.166623488 278.797549594 m 1,16,17
 535.583195106 275.412771362 535.583195106 275.412771362 535 272 c 0,18,19
 524 204 524 204 544 164.5 c 128,-1,20
 564 125 564 125 600 117 c 1,21,22
 676 145 676 145 786 270 c 0,23,24
 794 278 794 278 806 279 c 128,-1,25
 818 280 818 280 827 274 c 2,26,-1
 866 250 l 2,27,28
 878 243 878 243 884 228.5 c 128,-1,29
 890 214 890 214 885 205 c 0,30,31
 847 131 847 131 741 47.5 c 128,-1,32
 635 -36 635 -36 571 -23 c 1,33,34
 434.717420146 9.89579513717 434.717420146 9.89579513717 404.43973868 115.228270839 c 1,35,36
 398.75435612 106.303754401 398.75435612 106.303754401 393 98 c 0,37,38
 338 20 338 20 263.5 -9.5 c 128,-1,39
 189 -39 189 -39 113 -8 c 1,40,41
 -31 54 -31 54 -31 203 c 0,42,43
 -31 315 -31 315 45.5 424 c 128,-1,44
 122 533 122 533 237.5 608.5 c 0,45,46
 348.488205829 681.050731949 348.488205829 681.050731949 469.172107709 712.510180633 c 1,47,48
 471.079468737 721.675681551 471.079468737 721.675681551 473 731 c 0,49,50
 499 855 499 855 432 909 c 1,51,52
 406 903 406 903 340.5 839.5 c 128,-1,53
 275 776 275 776 250 739 c 1,54,55
 244 732 244 732 231 730.5 c 128,-1,56
 218 729 218 729 209 735 c 2,57,-1
 162 764 l 2,58,59
 150 771 150 771 144 785.5 c 128,-1,60
 138 800 138 800 143 809 c 0,61,62
 179 879 179 879 287.5 968.5 c 128,-1,63
 396 1058 396 1058 446 1049 c 0,64,65
 510 1038 510 1038 564 968.5 c 0,66,67
 593.857638679 930.072113182 593.857638679 930.072113182 605.983535906 891.491366523 c 1,68,69
 635.196346865 931.759851034 635.196346865 931.759851034 666 958 c 0,70,71
 698 986 698 986 743 1006 c 128,-1,72
 788 1026 788 1026 843.5 1033 c 128,-1,73
 899 1040 899 1040 948 1018 c 0,74,75
 1040 978 1040 978 1040 819 c 0,76,77
 1040 727 1040 727 995 638.5 c 128,-1,78
 950 550 950 550 875 481 c 128,-1,79
 800 412 800 412 709.5 359 c 0,80,81
 625.624905677 309.879779015 625.624905677 309.879779015 536.166623488 278.797549594 c 1,16,17
441.780909394 586.072226381 m 1,82,83
 384.257392566 567.439872514 384.257392566 567.439872514 317.5 519.5 c 0,84,85
 243 466 243 466 186 386 c 128,-1,86
 129 306 129 306 129 231 c 0,87,88
 129 159 129 159 149.5 137 c 128,-1,89
 170 115 170 115 217 115 c 0,90,91
 291 115 291 115 352 266 c 0,92,93
 391.888795622 365.721989056 391.888795622 365.721989056 441.780909394 586.072226381 c 1,82,83
EndSplineSet
Fore
SplineSet
561.643432508 412.733089442 m 1,0,1
 776.327669703 502.15497004 776.327669703 502.15497004 853 660.5 c 0,2,3
 891 738.97826087 891 738.97826087 891 814.989130435 c 128,-1,4
 891 891 891 891 842.5 891 c 128,-1,5
 794 891 794 891 740.5 843.5 c 128,-1,6
 687 796 687 796 652 711 c 0,7,8
 596.083376407 575.20248556 596.083376407 575.20248556 561.643432508 412.733089442 c 1,0,1
536.166623488 278.797549594 m 1,9,10
 523.458306304 205.06984505 523.458306304 205.06984505 543.729153152 165.034922525 c 128,-1,11
 564 125 564 125 600 117 c 1,12,13
 676 145 676 145 786 270 c 1,14,15
 804.8 288.8 804.8 288.8 827 274 c 2,16,-1
 866 250 l 2,17,18
 878 243 878 243 884 228.5 c 128,-1,19
 890 214 890 214 885 205 c 0,20,21
 847 131 847 131 741 47.5 c 128,-1,22
 635 -36 635 -36 571 -23 c 1,23,24
 434.717420146 9.89579513717 434.717420146 9.89579513717 404.43973868 115.228270839 c 1,25,26
 345.722373846 23.0578527308 345.722373846 23.0578527308 267.361186923 -7.97107363458 c 128,-1,27
 189 -39 189 -39 113 -8 c 1,28,29
 -31 54 -31 54 -31 203 c 0,30,31
 -31 315 -31 315 45.5 424 c 128,-1,32
 122 533 122 533 235.244102914 607.025365975 c 128,-1,33
 348.488205829 681.050731949 348.488205829 681.050731949 469.172107709 712.510180633 c 1,34,35
 471.079468737 721.675681551 471.079468737 721.675681551 473 731 c 0,36,37
 499 855 499 855 432 909 c 1,38,39
 406 903 406 903 340.5 839.5 c 128,-1,40
 275 776 275 776 250 739 c 1,41,42
 244 732 244 732 231 730.5 c 128,-1,43
 218 729 218 729 209 735 c 2,44,-1
 162 764 l 2,45,46
 150 771 150 771 144 785.5 c 128,-1,47
 138 800 138 800 143 809 c 0,48,49
 179 879 179 879 287.5 968.5 c 128,-1,50
 396 1058 396 1058 453 1048 c 128,-1,51
 510 1038 510 1038 564 968.5 c 0,52,53
 593.857638679 930.072113182 593.857638679 930.072113182 605.983535906 891.491366523 c 1,54,55
 695.059009408 1014.2777129 695.059009408 1014.2777129 843.5 1033 c 0,56,57
 899 1040 899 1040 948 1018 c 0,58,59
 1040 978 1040 978 1040 819 c 0,60,61
 1040 727 1040 727 995 638.5 c 0,62,63
 913.683157754 478.576876917 913.683157754 478.576876917 709.5 359 c 0,64,65
 625.624905677 309.879779015 625.624905677 309.879779015 536.166623488 278.797549594 c 1,9,10
441.780909394 586.072226381 m 1,66,67
 384.257392566 567.439872514 384.257392566 567.439872514 313.628696283 516.719936257 c 128,-1,68
 243 466 243 466 186 386 c 128,-1,69
 129 306 129 306 129 232.5 c 128,-1,70
 129 159 129 159 149.5 137 c 128,-1,71
 170 115 170 115 217 115 c 0,72,73
 291 115 291 115 352 266 c 0,74,75
 391.888795622 365.721989056 391.888795622 365.721989056 441.780909394 586.072226381 c 1,66,67
EndSplineSet
EndChar

StartChar: aisign_ra_virama.alt1
Encoding: 65548 -1 129
Width: 0
VWidth: 0
Flags: W
HStem: 1364 129<-534.896 -287.752> 1575 154<-18.9148 209> 1606 129<-558.896 -370.008>
AnchorPoint: "DVAnchor3" -111 1253 mark 0
LayerCount: 2
Back
SplineSet
-559 1638 m 2,0,1
 -565 1702 l 2,2,3
 -567 1722 -567 1722 -562.5 1728.5 c 128,-1,4
 -558 1735 -558 1735 -539 1735 c 2,5,-1
 -473 1735 l 1,6,-1
 -418 1735 l 2,7,8
 -249.365286943 1735 -249.365286943 1735 -161.401191478 1588.94372394 c 1,9,10
 -138.503214166 1627.11596814 -138.503214166 1627.11596814 -100 1656.5 c 0,11,12
 -5 1729 -5 1729 135 1729 c 2,13,-1
 172 1729 l 2,14,15
 192 1729 192 1729 200.5 1720.5 c 128,-1,16
 209 1712 209 1712 209 1692 c 2,17,-1
 209 1612 l 2,18,19
 209 1592 209 1592 200.5 1583.5 c 128,-1,20
 192 1575 192 1575 172 1575 c 2,21,-1
 135 1575 l 2,22,23
 58 1575 58 1575 -7 1538.5 c 128,-1,24
 -72 1502 -72 1502 -72 1440 c 0,25,26
 -72 1427.85742355 -72 1427.85742355 -71.6541514288 1416.6832231 c 1,27,-1
 8 1262 l 1,28,-1
 5.73596117659 1260.5025255 l 1,29,-1
 6 1260 l 1,30,-1
 -119 1178 l 1,31,-1
 -163.541629673 1258.73170378 l 1,32,33
 -198.492092963 1304.00840415 -198.492092963 1304.00840415 -265 1330 c 0,34,35
 -352 1364 -352 1364 -457 1364 c 2,36,-1
 -487 1364 l 2,37,38
 -532 1364 -532 1364 -535 1397 c 2,39,-1
 -539 1460 l 2,40,41
 -541 1480 -541 1480 -536 1486.5 c 128,-1,42
 -531 1493 -531 1493 -512 1493 c 2,43,-1
 -446 1493 l 1,44,-1
 -391 1493 l 2,45,46
 -339.404721219 1493 -339.404721219 1493 -286.08657728 1481.30912929 c 1,47,48
 -299.770005739 1506.75334226 -299.770005739 1506.75334226 -307 1518 c 0,49,50
 -316 1532 -316 1532 -333.5 1554 c 128,-1,51
 -351 1576 -351 1576 -368.5 1584 c 128,-1,52
 -386 1592 -386 1592 -414.5 1599 c 128,-1,53
 -443 1606 -443 1606 -481 1606 c 2,54,-1
 -512 1606 l 2,55,56
 -556 1606 -556 1606 -559 1638 c 2,0,1
EndSplineSet
Fore
SplineSet
209 1612 m 2,0,1
 209 1575 209 1575 172 1575 c 2,2,-1
 135 1575 l 2,3,4
 58 1575 58 1575 -7 1538.5 c 128,-1,5
 -72 1502 -72 1502 -72 1440 c 0,6,7
 -72 1427.85742355 -72 1427.85742355 -71.6541514288 1416.6832231 c 1,8,-1
 8 1262 l 1,9,-1
 5.73596117659 1260.5025255 l 1,10,-1
 6 1260 l 1,11,-1
 -119 1178 l 1,12,-1
 -163.541629673 1258.73170378 l 1,13,14
 -198.492092963 1304.00840415 -198.492092963 1304.00840415 -275.246046482 1334.00420207 c 128,-1,15
 -352 1364 -352 1364 -457 1364 c 2,16,-1
 -487 1364 l 2,17,18
 -532 1364 -532 1364 -535 1397 c 2,19,-1
 -539 1460 l 2,20,21
 -541 1480 -541 1480 -536 1486.5 c 128,-1,22
 -531 1493 -531 1493 -512 1493 c 2,23,-1
 -391 1493 l 2,24,25
 -339.404721219 1493 -339.404721219 1493 -286.08657728 1481.30912929 c 1,26,27
 -332.448930636 1567.51951115 -332.448930636 1567.51951115 -368.5 1584 c 0,28,29
 -416.625 1606 -416.625 1606 -481 1606 c 2,30,-1
 -512 1606 l 2,31,32
 -556 1606 -556 1606 -559 1638 c 2,33,-1
 -565 1702 l 2,34,35
 -567 1722 -567 1722 -562.5 1728.5 c 128,-1,36
 -558 1735 -558 1735 -539 1735 c 2,37,-1
 -418 1735 l 2,38,39
 -249.365286943 1735 -249.365286943 1735 -161.401191478 1588.94372394 c 1,40,41
 -138.503214166 1627.11596814 -138.503214166 1627.11596814 -100 1656.5 c 0,42,43
 -5 1729 -5 1729 135 1729 c 2,44,-1
 172 1729 l 2,45,46
 209 1729 209 1729 209 1692 c 2,47,-1
 209 1612 l 2,0,1
EndSplineSet
Ligature2: "AboveBaseSubstitutionslookup subtable" aisigndeva radeva_viramadeva
EndChar

StartChar: aisign_ra_virama_anusvara
Encoding: 65549 -1 130
Width: 0
VWidth: 0
Flags: W
HStem: 1327 195<135.343 276.185> 1364 129<-452.896 -205.752> 1575 154<63.0852 291> 1606 129<-476.896 -288.008>
VStem: 121 182<1356.39 1509.89>
AnchorPoint: "DVAnchor3" 27 1251 mark 0
LayerCount: 2
Back
SplineSet
121 1423 m 0,0,1
 121 1463 121 1463 146 1492.5 c 128,-1,2
 171 1522 171 1522 207 1522 c 2,3,-1
 223 1522 l 2,4,5
 253 1522 253 1522 278 1491.5 c 128,-1,6
 303 1461 303 1461 303 1423 c 0,7,8
 303 1384 303 1384 277 1355.5 c 128,-1,9
 251 1327 251 1327 213 1327 c 2,10,-1
 199 1327 l 2,11,12
 168 1327 168 1327 144.5 1356 c 128,-1,13
 121 1385 121 1385 121 1423 c 0,0,1
-477 1638 m 2,14,15
 -483 1702 l 2,16,17
 -485 1722 -485 1722 -480.5 1728.5 c 128,-1,18
 -476 1735 -476 1735 -457 1735 c 2,19,-1
 -391 1735 l 1,20,-1
 -336 1735 l 2,21,22
 -167.810783711 1735 -167.810783711 1735 -79.8967628308 1588.11347223 c 1,23,24
 -56.921416467 1626.79681375 -56.921416467 1626.79681375 -18 1656.5 c 0,25,26
 77 1729 77 1729 217 1729 c 2,27,-1
 254 1729 l 2,28,29
 274 1729 274 1729 282.5 1720.5 c 128,-1,30
 291 1712 291 1712 291 1692 c 2,31,-1
 291 1612 l 2,32,33
 291 1592 291 1592 282.5 1583.5 c 128,-1,34
 274 1575 274 1575 254 1575 c 2,35,-1
 217 1575 l 2,36,37
 140 1575 140 1575 75 1538.5 c 128,-1,38
 10 1502 10 1502 10 1440 c 0,39,40
 10 1427.28234223 10 1427.28234223 10.3793836067 1415.62695855 c 1,41,-1
 90 1262 l 1,42,-1
 87.7359611766 1260.5025255 l 1,43,-1
 88 1260 l 1,44,-1
 -37 1178 l 1,45,-1
 -81.5416296727 1258.73170378 l 1,46,47
 -116.492092963 1304.00840415 -116.492092963 1304.00840415 -183 1330 c 0,48,49
 -270 1364 -270 1364 -375 1364 c 2,50,-1
 -406 1364 l 2,51,52
 -450 1364 -450 1364 -453 1397 c 2,53,-1
 -457 1460 l 2,54,55
 -459 1480 -459 1480 -454 1486.5 c 128,-1,56
 -449 1493 -449 1493 -430 1493 c 2,57,-1
 -365 1493 l 1,58,-1
 -309 1493 l 2,59,60
 -257.404721219 1493 -257.404721219 1493 -204.08657728 1481.30912929 c 1,61,62
 -217.770005739 1506.75334226 -217.770005739 1506.75334226 -225 1518 c 0,63,64
 -234 1532 -234 1532 -251.5 1554 c 128,-1,65
 -269 1576 -269 1576 -286.5 1584 c 128,-1,66
 -304 1592 -304 1592 -332.5 1599 c 128,-1,67
 -361 1606 -361 1606 -399 1606 c 2,68,-1
 -430 1606 l 2,69,70
 -474 1606 -474 1606 -477 1638 c 2,14,15
EndSplineSet
Fore
SplineSet
144.5 1356 m 128,-1,1
 121 1385 121 1385 121 1424 c 128,-1,2
 121 1463 121 1463 146 1492.5 c 128,-1,3
 171 1522 171 1522 207 1522 c 2,4,-1
 223 1522 l 2,5,6
 253 1522 253 1522 278 1491.5 c 128,-1,7
 303 1461 303 1461 303 1422.5 c 128,-1,8
 303 1384 303 1384 277 1355.5 c 128,-1,9
 251 1327 251 1327 213 1327 c 2,10,-1
 199 1327 l 2,11,0
 168 1327 168 1327 144.5 1356 c 128,-1,1
291 1612 m 2,12,13
 291 1575 291 1575 254 1575 c 2,14,-1
 217 1575 l 2,15,16
 140 1575 140 1575 75 1538.5 c 128,-1,17
 10 1502 10 1502 10 1440 c 0,18,19
 10 1427.28234223 10 1427.28234223 10.3793836067 1415.62695855 c 1,20,-1
 90 1262 l 1,21,-1
 87.7359611766 1260.5025255 l 1,22,-1
 88 1260 l 1,23,-1
 -37 1178 l 1,24,-1
 -81.5416296727 1258.73170378 l 1,25,26
 -116.492092963 1304.00840415 -116.492092963 1304.00840415 -193.246046482 1334.00420207 c 128,-1,27
 -270 1364 -270 1364 -375 1364 c 2,28,-1
 -406 1364 l 2,29,30
 -450 1364 -450 1364 -453 1397 c 2,31,-1
 -457 1460 l 2,32,33
 -459 1480 -459 1480 -454 1486.5 c 128,-1,34
 -449 1493 -449 1493 -430 1493 c 2,35,-1
 -309 1493 l 2,36,37
 -257.404721219 1493 -257.404721219 1493 -204.08657728 1481.30912929 c 1,38,39
 -250.448930636 1567.51951115 -250.448930636 1567.51951115 -286.5 1584 c 0,40,41
 -334.625 1606 -334.625 1606 -399 1606 c 2,42,-1
 -430 1606 l 2,43,44
 -474 1606 -474 1606 -477 1638 c 2,45,-1
 -483 1702 l 2,46,47
 -485 1722 -485 1722 -480.5 1728.5 c 128,-1,48
 -476 1735 -476 1735 -457 1735 c 2,49,-1
 -336 1735 l 2,50,51
 -167.810783711 1735 -167.810783711 1735 -79.8967628308 1588.11347223 c 1,52,53
 -56.921416467 1626.79681375 -56.921416467 1626.79681375 -18 1656.5 c 0,54,55
 77 1729 77 1729 217 1729 c 2,56,-1
 254 1729 l 2,57,58
 291 1729 291 1729 291 1692 c 2,59,-1
 291 1612 l 2,12,13
EndSplineSet
Ligature2: "AboveBaseSubstitutionslookup subtable" aisigndeva radeva_viramadeva anusvaradeva
EndChar

StartChar: aisigndeva
Encoding: 2376 2376 131
Width: 0
VWidth: 0
Flags: W
HStem: 1364 129<-472.896 -225.759> 1606 129<-497.896 -281.424>
VStem: -498 568
AnchorPoint: "DVAnchor3" -10 1251 mark 0
LayerCount: 2
Back
SplineSet
-498 1638 m 2,0,1
 -504 1702 l 2,2,3
 -506 1722 -506 1722 -501 1728.5 c 128,-1,4
 -496 1735 -496 1735 -477 1735 c 2,5,-1
 -412 1735 l 1,6,-1
 -356 1735 l 2,7,8
 -174 1735 -174 1735 -86 1563 c 1,9,-1
 70 1262 l 1,10,-1
 67.7359611766 1260.5025255 l 1,11,-1
 68 1260 l 1,12,-1
 -57 1178 l 1,13,-1
 -98.7203328458 1253.61810328 l 1,14,15
 -133.684028841 1302.55788417 -133.684028841 1302.55788417 -203.5 1330 c 0,16,17
 -290 1364 -290 1364 -395 1364 c 2,18,-1
 -426 1364 l 2,19,20
 -470 1364 -470 1364 -473 1397 c 2,21,-1
 -477 1460 l 2,22,23
 -479 1480 -479 1480 -474.5 1486.5 c 128,-1,24
 -470 1493 -470 1493 -451 1493 c 2,25,-1
 -385 1493 l 1,26,-1
 -330 1493 l 2,27,28
 -277.975935864 1493 -277.975935864 1493 -224.075135931 1481.11400663 c 1,29,30
 -241.919077965 1513.87861695 -241.919077965 1513.87861695 -252 1529 c 0,31,32
 -264 1547 -264 1547 -287.5 1569 c 128,-1,33
 -311 1591 -311 1591 -342 1598.5 c 128,-1,34
 -373 1606 -373 1606 -420 1606 c 2,35,-1
 -451 1606 l 2,36,37
 -495 1606 -495 1606 -498 1638 c 2,0,1
EndSplineSet
Fore
SplineSet
-498 1638 m 2,0,1
 -504 1702 l 2,2,3
 -506 1722 -506 1722 -501 1728.5 c 128,-1,4
 -496 1735 -496 1735 -477 1735 c 2,5,-1
 -356 1735 l 2,6,7
 -174 1735 -174 1735 -86 1563 c 1,8,-1
 70 1262 l 1,9,-1
 67.7359611766 1260.5025255 l 1,10,-1
 68 1260 l 1,11,-1
 -57 1178 l 1,12,-1
 -98.7203328458 1253.61810328 l 1,13,14
 -133.684028841 1302.55788417 -133.684028841 1302.55788417 -211.84201442 1333.27894208 c 128,-1,15
 -290 1364 -290 1364 -395 1364 c 2,16,-1
 -426 1364 l 2,17,18
 -470 1364 -470 1364 -473 1397 c 2,19,-1
 -477 1460 l 2,20,21
 -479 1480 -479 1480 -474.5 1486.5 c 128,-1,22
 -470 1493 -470 1493 -451 1493 c 2,23,-1
 -330 1493 l 2,24,25
 -277.975935864 1493 -277.975935864 1493 -224.075135931 1481.11400663 c 1,26,27
 -279.810646193 1583.4541886 -279.810646193 1583.4541886 -342 1598.5 c 0,28,29
 -373 1606 -373 1606 -420 1606 c 2,30,-1
 -451 1606 l 2,31,32
 -495 1606 -495 1606 -498 1638 c 2,0,1
EndSplineSet
EndChar

StartChar: ampersand
Encoding: 38 38 134
Width: 1245
VWidth: 0
Flags: W
HStem: 721 127<780.022 879.879 1009.36 1182.95> 1262 112<728.14 795.301>
VStem: 879.879 140.64<581.69 721>
LayerCount: 2
Back
SplineSet
817 848 m 2,0,1
 1194 848 l 2,2,3
 1229 848 1229 848 1212 803 c 1,4,-1
 1204 778 l 2,5,6
 1198 759 1198 759 1195 750 c 128,-1,7
 1192 741 1192 741 1183 731 c 128,-1,8
 1174 721 1174 721 1161 721 c 2,9,-1
 1020.51911745 721 l 1,10,11
 997.393676153 638.77130693 997.393676153 638.77130693 960 539.5 c 0,12,13
 918 428 918 428 891 373 c 0,14,15
 853.237174493 295.757856897 853.237174493 295.757856897 807.740193284 231.405973262 c 1,16,17
 901.505165674 100.033123804 901.505165674 100.033123804 1008 -27 c 0,18,19
 1032 -56 1032 -56 1026 -76.5 c 128,-1,20
 1020 -97 1020 -97 987 -106 c 0,21,22
 919 -126 919 -126 860 -90 c 1,23,24
 779.164907685 -3.89305383877 779.164907685 -3.89305383877 699.702281691 107.947635822 c 1,25,26
 683.359807004 92.8459516217 683.359807004 92.8459516217 666 78.5 c 0,27,28
 594 19 594 19 500.5 -7.5 c 128,-1,29
 407 -34 407 -34 303 -20 c 1,30,31
 156 2 156 2 82.5 96.5 c 128,-1,32
 9 191 9 191 31 336 c 1,33,34
 37 383 37 383 53.5 425.5 c 128,-1,35
 70 468 70 468 88 499 c 128,-1,36
 106 530 106 530 138.5 562.5 c 128,-1,37
 171 595 171 595 193 614 c 128,-1,38
 215 633 215 633 257 660 c 128,-1,39
 299 687 299 687 319 698 c 0,40,41
 334.450453569 706.497749463 334.450453569 706.497749463 364.223898069 722.75378568 c 1,42,43
 363.595529788 724.411920566 363.595529788 724.411920566 363 726 c 0,44,45
 354 750 354 750 342 789 c 128,-1,46
 330 828 330 828 324.5 866 c 128,-1,47
 319 904 319 904 319 942 c 0,48,49
 319 1006 319 1006 337.5 1071 c 128,-1,50
 356 1136 356 1136 394 1195 c 128,-1,51
 432 1254 432 1254 484.5 1297.5 c 128,-1,52
 537 1341 537 1341 612 1362.5 c 128,-1,53
 687 1384 687 1384 772 1374 c 0,54,55
 807 1370 807 1370 801 1333 c 1,56,-1
 791 1284 l 2,57,58
 787 1269 787 1269 767.5 1262 c 128,-1,59
 748 1255 748 1255 735 1255 c 1,60,61
 707 1258 707 1258 671.5 1251 c 128,-1,62
 636 1244 636 1244 595.5 1220.5 c 128,-1,63
 555 1197 555 1197 524 1160.5 c 128,-1,64
 493 1124 493 1124 476 1060.5 c 128,-1,65
 459 997 459 997 467 918 c 0,66,67
 473 857 473 857 499 782 c 128,-1,68
 525 707 525 707 539.5 677 c 128,-1,69
 554 647 554 647 584 586 c 0,70,71
 626.44953822 500.21655818 626.44953822 500.21655818 723.646225163 353.820201703 c 1,72,73
 739.176236492 378.598497757 739.176236492 378.598497757 754 406 c 0,74,75
 845.649927866 570.78471879 845.649927866 570.78471879 879.879131152 721 c 1,76,-1
 797 721 l 2,77,78
 785 721 785 721 777.5 723 c 128,-1,79
 770 725 770 725 766.5 727 c 128,-1,80
 763 729 763 729 762.5 735.5 c 128,-1,81
 762 742 762 742 763 745.5 c 128,-1,82
 764 749 764 749 767.5 760.5 c 128,-1,83
 771 772 771 772 772 778 c 2,84,-1
 786 823 l 2,85,86
 790 838 790 838 796.5 843 c 128,-1,87
 803 848 803 848 817 848 c 2,0,1
413.231594812 602.13254692 m 1,88,89
 340.71172276 564.941281852 340.71172276 564.941281852 282 504 c 0,90,91
 203 422 203 422 193 309 c 0,92,93
 187 233 187 233 236 176 c 128,-1,94
 285 119 285 119 367 119 c 0,95,96
 435 119 435 119 494.5 142 c 128,-1,97
 554 165 554 165 601 207 c 0,98,99
 611.240930175 216.151469518 611.240930175 216.151469518 620.983352051 225.587800922 c 1,100,101
 604.461493272 251.727973833 604.461493272 251.727973833 588 279 c 0,102,103
 458.748726282 493.132707204 458.748726282 493.132707204 413.231594812 602.13254692 c 1,88,89
EndSplineSet
Fore
SplineSet
364.223898069 722.75378568 m 1,0,1
 319 842.090367962 319 842.090367962 319 924.045183981 c 128,-1,2
 319 1006 319 1006 337.5 1071 c 128,-1,3
 356 1136 356 1136 394 1195 c 128,-1,4
 432 1254 432 1254 484.5 1297.5 c 0,5,6
 601.094138544 1394.10657194 601.094138544 1394.10657194 772 1374 c 0,7,8
 807 1370 807 1370 801 1333 c 1,9,-1
 791 1284 l 2,10,11
 787 1269 787 1269 767.5 1262 c 128,-1,12
 748 1255 748 1255 727.5 1256.5 c 128,-1,13
 707 1258 707 1258 671.5 1251 c 128,-1,14
 636 1244 636 1244 595.5 1220.5 c 128,-1,15
 555 1197 555 1197 524 1160.5 c 0,16,17
 451.131338927 1074.70302809 451.131338927 1074.70302809 467 918 c 0,18,19
 473 857 473 857 499 782 c 0,20,21
 564.161617623 594.033795317 564.161617623 594.033795317 723.646225163 353.820201703 c 1,22,23
 837.663420784 535.735833862 837.663420784 535.735833862 879.879131152 721 c 1,24,-1
 797 721 l 2,25,26
 763.615384615 721 763.615384615 721 762.5 735.5 c 0,27,28
 761.973684211 742.342105263 761.973684211 742.342105263 766.486842105 757.171052632 c 128,-1,29
 771 772 771 772 772 778 c 2,30,-1
 786 823 l 1,31,32
 792.666666667 848 792.666666667 848 817 848 c 2,33,-1
 1194 848 l 2,34,35
 1229 848 1229 848 1212 803 c 1,36,-1
 1204 778 l 2,37,38
 1192.48648649 741.540540541 1192.48648649 741.540540541 1183.24324324 731.27027027 c 128,-1,39
 1174 721 1174 721 1161 721 c 2,40,-1
 1020.51911745 721 l 1,41,42
 932.427324858 407.766065044 932.427324858 407.766065044 807.740193284 231.405973262 c 1,43,44
 901.505165674 100.033123804 901.505165674 100.033123804 1008 -27 c 0,45,46
 1057.47314578 -86.7800511509 1057.47314578 -86.7800511509 988.23657289 -106.390025575 c 128,-1,47
 919 -126 919 -126 860 -90 c 1,48,49
 779.164907685 -3.89305383877 779.164907685 -3.89305383877 699.702281691 107.947635822 c 1,50,51
 528.405985897 -50.3431134862 528.405985897 -50.3431134862 303 -20 c 1,52,53
 156 2 156 2 82.5 96.5 c 128,-1,54
 9 191 9 191 31 336 c 1,55,56
 48.4146341463 472.414634146 48.4146341463 472.414634146 138.5 562.5 c 0,57,58
 219 643 219 643 319 698 c 0,59,60
 334.450453569 706.497749463 334.450453569 706.497749463 364.223898069 722.75378568 c 1,0,1
620.983352051 225.587800922 m 1,61,62
 472.119442988 461.113862195 472.119442988 461.113862195 413.231594812 602.13254692 c 1,63,64
 340.71172276 564.941281852 340.71172276 564.941281852 271.85586138 493.470640926 c 128,-1,65
 203 422 203 422 193 309 c 0,66,67
 187 233 187 233 236 176 c 128,-1,68
 285 119 285 119 360 119 c 0,69,70
 510.9381153 119 510.9381153 119 620.983352051 225.587800922 c 1,61,62
EndSplineSet
EndChar

StartChar: anudattadeva
Encoding: 2386 2386 135
Width: 0
VWidth: 0
Flags: W
HStem: -362 159<-1305 -227>
LayerCount: 2
Back
SplineSet
-227 -362 m 1,0,-1
 -1305 -362 l 1,1,-1
 -1305 -203 l 1,2,-1
 -227 -203 l 1,3,-1
 -227 -362 l 1,0,-1
EndSplineSet
Fore
SplineSet
-227 -362 m 1,0,-1
 -1305 -362 l 1,1,-1
 -1305 -203 l 1,2,-1
 -227 -203 l 1,3,-1
 -227 -362 l 1,0,-1
EndSplineSet
EndChar

StartChar: anusvaradeva
Encoding: 2306 2306 136
Width: 0
VWidth: 0
Flags: W
HStem: 1382 195<-196.938 -55.8154>
VStem: -211 182<1411.91 1565.1>
AnchorPoint: "DVAnchor3" -150 1298 mark 0
LayerCount: 2
Back
SplineSet
-211 1479 m 0,0,1
 -211 1519 -211 1519 -186 1548 c 128,-1,2
 -161 1577 -161 1577 -125 1577 c 2,3,-1
 -109 1577 l 2,4,5
 -79 1577 -79 1577 -54 1547 c 128,-1,6
 -29 1517 -29 1517 -29 1479 c 0,7,8
 -29 1440 -29 1440 -55 1411 c 128,-1,9
 -81 1382 -81 1382 -119 1382 c 2,10,-1
 -133 1382 l 2,11,12
 -164 1382 -164 1382 -187.5 1411.5 c 128,-1,13
 -211 1441 -211 1441 -211 1479 c 0,0,1
EndSplineSet
Fore
SplineSet
-187.5 1411.5 m 128,-1,1
 -211 1441 -211 1441 -211 1480 c 128,-1,2
 -211 1519 -211 1519 -186 1548 c 128,-1,3
 -161 1577 -161 1577 -125 1577 c 2,4,-1
 -109 1577 l 2,5,6
 -79 1577 -79 1577 -54 1547 c 128,-1,7
 -29 1517 -29 1517 -29 1478.5 c 128,-1,8
 -29 1440 -29 1440 -55 1411 c 128,-1,9
 -81 1382 -81 1382 -119 1382 c 2,10,-1
 -133 1382 l 2,11,0
 -164 1382 -164 1382 -187.5 1411.5 c 128,-1,1
EndSplineSet
EndChar

StartChar: asciicircum
Encoding: 94 94 139
Width: 860
VWidth: 0
Flags: W
VStem: 639 156<498.732 697.103>
LayerCount: 2
Back
SplineSet
643 1303 m 1,0,-1
 653 1303 l 1,1,-1
 662 1303 l 2,2,3
 691 1303 691 1303 711.5 1282 c 128,-1,4
 732 1261 732 1261 735 1223 c 2,5,-1
 795 532 l 1,6,7
 795 498 795 498 735 498 c 2,8,-1
 692 498 l 2,9,10
 639 498 639 498 639 535 c 1,11,-1
 599.344898222 1153.45084263 l 1,12,-1
 172 526 l 1,13,14
 162 509 162 509 154.5 503.5 c 128,-1,15
 147 498 147 498 129 498 c 2,16,-1
 35 498 l 2,17,18
 10 498 10 498 3.5 510 c 128,-1,19
 -3 522 -3 522 8 535 c 1,20,-1
 479 1212 l 1,21,22
 515 1267 515 1267 552.5 1285 c 128,-1,23
 590 1303 590 1303 639 1303 c 2,24,-1
 643 1303 l 1,0,-1
EndSplineSet
Fore
SplineSet
639 1303 m 2,0,-1
 662 1303 l 2,1,2
 691 1303 691 1303 711.5 1282 c 128,-1,3
 732 1261 732 1261 735 1223 c 2,4,-1
 795 532 l 1,5,6
 795 498 795 498 735 498 c 2,7,-1
 692 498 l 2,8,9
 639 498 639 498 639 535 c 1,10,-1
 599.344898222 1153.45084263 l 1,11,-1
 172 526 l 1,12,13
 162 509 162 509 154.5 503.5 c 128,-1,14
 147 498 147 498 129 498 c 2,15,-1
 35 498 l 2,16,17
 10 498 10 498 3.5 510 c 128,-1,18
 -3 522 -3 522 8 535 c 1,19,-1
 479 1212 l 1,20,21
 515 1267 515 1267 552.5 1285 c 128,-1,22
 590 1303 590 1303 639 1303 c 2,0,-1
EndSplineSet
EndChar

StartChar: asciitilde
Encoding: 126 126 140
Width: 886
VWidth: 0
Flags: W
HStem: 694.5 207<140.712 810.184> 723 178.5<140.712 547.748>
LayerCount: 2
Back
SplineSet
111 793 m 1,0,1
 123 827 l 1,2,3
 130 855 130 855 156 868 c 0,4,5
 212 898 212 898 304 901.5 c 128,-1,6
 396 905 396 905 473 877 c 0,7,8
 561 846 561 846 634.5 847 c 128,-1,9
 708 848 708 848 795 877 c 0,10,11
 822 886 822 886 836 866.5 c 128,-1,12
 850 847 850 847 842 817 c 2,13,-1
 831 776 l 1,14,15
 827 754 827 754 816.5 744 c 128,-1,16
 806 734 806 734 778 723 c 0,17,18
 713 697 713 697 636.5 694.5 c 128,-1,19
 560 692 560 692 475 723 c 1,20,21
 321 789 321 789 150 723 c 1,22,23
 121 713 121 713 110.5 733 c 128,-1,24
 100 753 100 753 111 793 c 1,0,1
EndSplineSet
Fore
SplineSet
111 793 m 1,0,1
 123 827 l 1,2,3
 140.065843621 895.263374486 140.065843621 895.263374486 304 901.5 c 0,4,5
 396 905 396 905 478.5 875.5 c 0,6,7
 629.026315789 821.675438596 629.026315789 821.675438596 795 877 c 0,8,9
 822 886 822 886 836 866.5 c 128,-1,10
 850 847 850 847 842 817 c 2,11,-1
 831 776 l 1,12,13
 827 754 827 754 816.5 744 c 128,-1,14
 806 734 806 734 759.5 715.5 c 128,-1,15
 713 697 713 697 636.5 694.5 c 128,-1,16
 560 692 560 692 475 723 c 1,17,18
 321 789 321 789 150 723 c 1,19,20
 121 713 121 713 110.5 733 c 128,-1,21
 100 753 100 753 111 793 c 1,0,1
EndSplineSet
EndChar

StartChar: ashortdeva
Encoding: 2308 2308 141
Width: 1259
VWidth: 0
Flags: W
HStem: 94 146<257.211 450.091> 508 139<689.918 979.5> 668 147<342.312 518.602> 1161 148<992.938 1131.5 1301.75 1445.6> 1190 145<541.177 682.04> 1610 123<775.562 979.336>
VStem: 76 125<297.511 488.406> 547 143<348.947 508> 696 142<955.129 1171.06> 872 140<6.71875 59.344>
LayerCount: 2
Back
SplineSet
1442 1278 m 2,0,1
 1466 1192 l 1,2,3
 1469 1176 1469 1176 1464 1168.5 c 128,-1,4
 1459 1161 1459 1161 1440 1161 c 2,5,-1
 1301.75 1161 l 1,6,-1
 1012 2 l 1,7,8
 1008 -20 1008 -20 998 -24.5 c 128,-1,9
 988 -29 988 -29 969 -20 c 2,10,-1
 895 18 l 2,11,12
 862 34 862 34 872 78 c 2,13,-1
 979.5 508 l 1,14,-1
 689.918381806 508 l 1,15,16
 690 504.023805306 690 504.023805306 690 500 c 0,17,18
 690 458 690 458 679 407.5 c 128,-1,19
 668 357 668 357 641.5 301 c 128,-1,20
 615 245 615 245 577.5 199.5 c 128,-1,21
 540 154 540 154 480.5 124 c 128,-1,22
 421 94 421 94 350 94 c 0,23,24
 286 94 286 94 233 128 c 128,-1,25
 180 162 180 162 147.5 217 c 128,-1,26
 115 272 115 272 96.5 335.5 c 128,-1,27
 78 399 78 399 76 463 c 1,28,29
 76 502 76 502 117 496 c 1,30,-1
 164 487 l 1,31,32
 175 486 175 486 182.5 481.5 c 128,-1,33
 190 477 190 477 194.5 467 c 128,-1,34
 199 457 199 457 201 450 c 128,-1,35
 203 443 203 443 205.5 426.5 c 128,-1,36
 208 410 208 410 209 403 c 0,37,38
 227 313 227 313 260 276.5 c 128,-1,39
 293 240 293 240 342 240 c 0,40,41
 404 240 404 240 453 287.5 c 128,-1,42
 502 335 502 335 524.5 396 c 128,-1,43
 547 457 547 457 547 514 c 0,44,45
 547 590 547 590 520.5 622.5 c 0,46,47
 495.702837752 652.911614078 495.702837752 652.911614078 429.314056225 668 c 1,48,-1
 391 668 l 2,49,50
 370 668 370 668 362 672 c 128,-1,51
 354 676 354 676 348 692 c 1,52,-1
 322 784 l 2,53,54
 320 791 320 791 327 803 c 128,-1,55
 334 815 334 815 342 815 c 2,56,-1
 408 815 l 2,57,58
 508 815 508 815 602 900.5 c 128,-1,59
 696 986 696 986 696 1079 c 0,60,61
 696 1128 696 1128 679.5 1159 c 128,-1,62
 663 1190 663 1190 633 1190 c 0,63,64
 586 1190 586 1190 526 1133 c 1,65,66
 482 1110 482 1110 465 1137 c 1,67,-1
 416 1200 l 1,68,69
 403 1220 403 1220 408 1238 c 128,-1,70
 413 1256 413 1256 440 1274 c 1,71,72
 524 1335 524 1335 610 1335 c 0,73,74
 703 1335 703 1335 770.5 1249 c 128,-1,75
 838 1163 838 1163 838 1053 c 0,76,77
 838 898 838 898 723 783 c 0,78,79
 671.876104288 731.876104288 671.876104288 731.876104288 612.847020787 703.47962347 c 1,80,81
 637.30339353 678.849365128 637.30339353 678.849365128 654.73577048 647 c 1,82,-1
 1014.25 647 l 1,83,-1
 1142.75 1161 l 1,84,-1
 1044 1161 l 2,85,86
 1005 1161 1005 1161 997 1192 c 1,87,-1
 971 1278 l 2,88,89
 962 1309 962 1309 997 1309 c 2,90,-1
 1131.49652778 1309 l 1,91,-1
 1047 1466 l 2,92,93
 1045 1469 1045 1469 1043.5 1472.5 c 128,-1,94
 1042 1476 1042 1476 1038.97676676 1480.23568509 c 0,95,96
 1017 1520 1017 1520 1005.5 1536.5 c 128,-1,97
 994 1553 994 1553 971 1574 c 128,-1,98
 948 1595 948 1595 918 1602.5 c 128,-1,99
 888 1610 888 1610 844 1610 c 2,100,-1
 813 1610 l 2,101,102
 790 1610 790 1610 776 1617.5 c 128,-1,103
 762 1625 762 1625 766 1642 c 2,104,-1
 778 1700 l 1,105,106
 786 1733 786 1733 807 1733 c 2,107,-1
 885 1733 l 2,108,109
 980 1733 980 1733 1043 1689.5 c 128,-1,110
 1106 1646 1106 1646 1151 1559 c 2,111,-1
 1280.62962963 1309 l 1,112,-1
 1395 1309 l 2,113,114
 1433 1309 1433 1309 1442 1278 c 2,0,1
EndSplineSet
Fore
SplineSet
1442 1278 m 2,0,1
 1466 1192 l 1,2,3
 1469 1176 1469 1176 1464 1168.5 c 128,-1,4
 1459 1161 1459 1161 1440 1161 c 2,5,-1
 1301.75 1161 l 1,6,-1
 1012 2 l 1,7,8
 1004.90748899 -37.0088105727 1004.90748899 -37.0088105727 969 -20 c 1,9,-1
 895 18 l 2,10,11
 862 34 862 34 872 78 c 2,12,-1
 979.5 508 l 1,13,-1
 689.918381806 508 l 1,14,15
 690 504.023805306 690 504.023805306 690 481.011902653 c 128,-1,16
 690 458 690 458 679 407.5 c 128,-1,17
 668 357 668 357 641.5 301 c 128,-1,18
 615 245 615 245 577.5 199.5 c 128,-1,19
 540 154 540 154 480.5 124 c 128,-1,20
 421 94 421 94 353.5 94 c 128,-1,21
 286 94 286 94 233 128 c 128,-1,22
 180 162 180 162 147.5 217 c 0,23,24
 80.1243654822 331.020304569 80.1243654822 331.020304569 76 463 c 1,25,26
 76 502 76 502 117 496 c 1,27,-1
 164 487 l 1,28,29
 186.417061611 484.962085308 186.417061611 484.962085308 192.708530806 470.981042654 c 128,-1,30
 199 457 199 457 201 450 c 0,31,32
 203.571428571 441 203.571428571 441 215.285714286 377 c 128,-1,33
 227 313 227 313 260 276.5 c 128,-1,34
 293 240 293 240 348.5 240 c 128,-1,35
 404 240 404 240 453 287.5 c 0,36,37
 547 378.62244898 547 378.62244898 547 514 c 0,38,39
 547 590 547 590 521.351418876 621.455807039 c 128,-1,40
 495.702837752 652.911614078 495.702837752 652.911614078 429.314056225 668 c 1,41,-1
 391 668 l 2,42,43
 370 668 370 668 362 672 c 128,-1,44
 354 676 354 676 348 692 c 1,45,-1
 322 784 l 2,46,47
 320 791 320 791 327 803 c 128,-1,48
 334 815 334 815 342 815 c 2,49,-1
 408 815 l 2,50,51
 508 815 508 815 602 900.5 c 128,-1,52
 696 986 696 986 696 1079 c 0,53,54
 696 1128 696 1128 679.5 1159 c 128,-1,55
 663 1190 663 1190 624.5 1190 c 128,-1,56
 586 1190 586 1190 526 1133 c 1,57,58
 482 1110 482 1110 465 1137 c 1,59,-1
 416 1200 l 1,60,61
 389.697674419 1240.46511628 389.697674419 1240.46511628 440 1274 c 1,62,63
 524 1335 524 1335 613.5 1335 c 128,-1,64
 703 1335 703 1335 770.5 1249 c 128,-1,65
 838 1163 838 1163 838 1053 c 0,66,67
 838 898 838 898 723 783 c 0,68,69
 671.876104288 731.876104288 671.876104288 731.876104288 612.847020787 703.47962347 c 1,70,71
 637.30339353 678.849365128 637.30339353 678.849365128 654.73577048 647 c 1,72,-1
 1014.25 647 l 1,73,-1
 1142.75 1161 l 1,74,-1
 1044 1161 l 2,75,76
 1005 1161 1005 1161 997 1192 c 1,77,-1
 971 1278 l 2,78,79
 962 1309 962 1309 997 1309 c 2,80,-1
 1131.49652778 1309 l 1,81,-1
 1047 1466 l 2,82,83
 1045 1469 1045 1469 1043.5 1472.5 c 128,-1,84
 1042 1476 1042 1476 1029.5 1498 c 128,-1,85
 1017 1520 1017 1520 1005.5 1536.5 c 128,-1,86
 994 1553 994 1553 971 1574 c 0,87,88
 931.571428571 1610 931.571428571 1610 844 1610 c 2,89,-1
 813 1610 l 2,90,91
 758.470588235 1610 758.470588235 1610 766 1642 c 2,92,-1
 778 1700 l 1,93,94
 786 1733 786 1733 807 1733 c 2,95,-1
 885 1733 l 2,96,97
 980 1733 980 1733 1043 1689.5 c 128,-1,98
 1106 1646 1106 1646 1151 1559 c 2,99,-1
 1280.62962963 1309 l 1,100,-1
 1395 1309 l 2,101,102
 1433 1309 1433 1309 1442 1278 c 2,0,1
EndSplineSet
EndChar

StartChar: asterisk
Encoding: 42 42 142
Width: 780
VWidth: 0
Flags: W
VStem: 115 661
LayerCount: 2
Back
SplineSet
348 1108 m 1,0,-1
 150 1141 l 2,1,2
 127 1144 127 1144 117 1164.5 c 128,-1,3
 107 1185 107 1185 115 1212 c 1,4,-1
 125 1241 l 1,5,6
 130 1262 130 1262 148 1274.5 c 128,-1,7
 166 1287 166 1287 186 1280 c 1,8,-1
 389 1198 l 1,9,-1
 418 1427 l 2,10,11
 421 1452 421 1452 442.5 1465.5 c 128,-1,12
 464 1479 464 1479 494 1479 c 2,13,-1
 520 1479 l 2,14,15
 547 1479 547 1479 564.5 1461 c 128,-1,16
 582 1443 582 1443 571 1411 c 2,17,-1
 494 1194 l 1,18,-1
 707 1266 l 1,19,20
 776 1288 776 1288 776 1227 c 2,21,-1
 776 1196 l 2,22,23
 776 1171 776 1171 765 1158 c 128,-1,24
 754 1145 754 1145 725 1139 c 1,25,-1
 487 1102 l 1,26,-1
 616 889 l 2,27,28
 628 871 628 871 624 849.5 c 128,-1,29
 620 828 620 828 598 815 c 1,30,-1
 567 799 l 1,31,32
 516 771 516 771 494 823 c 1,33,-1
 412 1034 l 1,34,-1
 246 836 l 2,35,36
 224 811 224 811 200 810 c 128,-1,37
 176 809 176 809 164 827 c 1,38,-1
 145 848 l 1,39,40
 134 862 134 862 130 873 c 128,-1,41
 126 884 126 884 130.5 898 c 128,-1,42
 135 912 135 912 152 928 c 2,43,-1
 348 1108 l 1,0,-1
EndSplineSet
Fore
SplineSet
348 1108 m 1,0,-1
 150 1141 l 2,1,2
 127 1144 127 1144 117 1164.5 c 128,-1,3
 107 1185 107 1185 115 1212 c 1,4,-1
 125 1241 l 1,5,6
 130 1262 130 1262 148 1274.5 c 128,-1,7
 166 1287 166 1287 186 1280 c 1,8,-1
 389 1198 l 1,9,-1
 418 1427 l 2,10,11
 421 1452 421 1452 442.5 1465.5 c 128,-1,12
 464 1479 464 1479 494 1479 c 2,13,-1
 520 1479 l 2,14,15
 547 1479 547 1479 564.5 1461 c 128,-1,16
 582 1443 582 1443 571 1411 c 2,17,-1
 494 1194 l 1,18,-1
 707 1266 l 1,19,20
 776 1288 776 1288 776 1227 c 2,21,-1
 776 1196 l 2,22,23
 776 1171 776 1171 765 1158 c 128,-1,24
 754 1145 754 1145 725 1139 c 1,25,-1
 487 1102 l 1,26,-1
 616 889 l 2,27,28
 628 871 628 871 624 849.5 c 128,-1,29
 620 828 620 828 598 815 c 1,30,-1
 567 799 l 1,31,32
 516 771 516 771 494 823 c 1,33,-1
 412 1034 l 1,34,-1
 246 836 l 2,35,36
 224 811 224 811 200 810 c 128,-1,37
 176 809 176 809 164 827 c 1,38,-1
 145 848 l 1,39,40
 123.304147465 875.612903226 123.304147465 875.612903226 129.152073733 893.806451613 c 128,-1,41
 135 912 135 912 152 928 c 2,42,-1
 348 1108 l 1,0,-1
EndSplineSet
EndChar

StartChar: at
Encoding: 64 64 143
Width: 1800
VWidth: 0
Flags: W
HStem: -334 109<627.533 917.262> 20 154<726.442 885.853 1125.12 1321.02> 1296 117<765.894 1236.72>
LayerCount: 2
Back
SplineSet
1092.88850527 841.430528273 m 1,0,1
 1072.56880849 855.670989735 1072.56880849 855.670989735 1044 867 c 0,2,3
 986 890 986 890 946 877 c 0,4,5
 895 860 895 860 846.5 793.5 c 128,-1,6
 798 727 798 727 766 644.5 c 128,-1,7
 734 562 734 562 715 481 c 128,-1,8
 696 400 696 400 698 350 c 0,9,10
 704 174 704 174 799 174 c 0,11,12
 859 174 859 174 900.5 239 c 128,-1,13
 942 304 942 304 981 428 c 0,14,15
 1025.49225055 566.330451722 1025.49225055 566.330451722 1092.88850527 841.430528273 c 1,0,1
1122.51665206 964.315632681 m 1,16,17
 1124.25172254 971.618384051 1124.25172254 971.618384051 1126 979 c 0,18,19
 1132 1004 1132 1004 1142.5 1018 c 128,-1,20
 1153 1032 1153 1032 1178 1032 c 2,21,-1
 1229 1034 l 1,22,23
 1298 1034 1298 1034 1284 969 c 1,24,-1
 1118 346 l 1,25,26
 1103 262 1103 262 1125.5 212 c 128,-1,27
 1148 162 1148 162 1202 162 c 0,28,29
 1238 162 1238 162 1279.5 187 c 128,-1,30
 1321 212 1321 212 1365 262 c 128,-1,31
 1409 312 1409 312 1451 400.5 c 128,-1,32
 1493 489 1493 489 1522 602 c 0,33,34
 1569 784 1569 784 1519.5 943 c 128,-1,35
 1470 1102 1470 1102 1333.5 1199 c 128,-1,36
 1197 1296 1197 1296 1004 1296 c 0,37,38
 877 1296 877 1296 763.5 1249.5 c 128,-1,39
 650 1203 650 1203 561 1119.5 c 128,-1,40
 472 1036 472 1036 405 922.5 c 128,-1,41
 338 809 338 809 297 672 c 0,42,43
 271 585 271 585 267 485 c 128,-1,44
 263 385 263 385 280.5 282.5 c 128,-1,45
 298 180 298 180 346.5 87 c 128,-1,46
 395 -6 395 -6 466.5 -77.5 c 128,-1,47
 538 -149 538 -149 650 -189.5 c 128,-1,48
 762 -230 762 -230 899 -225 c 1,49,50
 921 -223 921 -223 930 -235.5 c 128,-1,51
 939 -248 939 -248 928 -270 c 2,52,-1
 911 -301 l 2,53,54
 901 -320 901 -320 888 -326 c 128,-1,55
 875 -332 875 -332 848 -334 c 0,56,57
 704 -343 704 -343 580.5 -300 c 128,-1,58
 457 -257 457 -257 372 -177.5 c 128,-1,59
 287 -98 287 -98 226.5 10.5 c 128,-1,60
 166 119 166 119 139.5 239 c 128,-1,61
 113 359 113 359 115.5 483.5 c 128,-1,62
 118 608 118 608 152 719 c 0,63,64
 217 931 217 931 344.5 1089 c 128,-1,65
 472 1247 472 1247 641.5 1330 c 128,-1,66
 811 1413 811 1413 1001 1413 c 0,67,68
 1128 1413 1128 1413 1237.5 1381 c 128,-1,69
 1347 1349 1347 1349 1427 1291.5 c 128,-1,70
 1507 1234 1507 1234 1567 1154 c 128,-1,71
 1627 1074 1627 1074 1654.5 978.5 c 128,-1,72
 1682 883 1682 883 1686.5 775.5 c 128,-1,73
 1691 668 1691 668 1661 555 c 1,74,75
 1601 312 1601 312 1460.5 163 c 128,-1,76
 1320 14 1320 14 1186 14 c 0,77,78
 1042.31719344 14 1042.31719344 14 979.028250904 127.342168942 c 1,79,80
 954.6741381 95.8521347727 954.6741381 95.8521347727 916 67 c 0,81,82
 853 20 853 20 780 20 c 0,83,84
 728 20 728 20 674.5 52 c 128,-1,85
 621 84 621 84 594 143 c 0,86,87
 529 289 529 289 561 459 c 128,-1,88
 593 629 593 629 668.5 771.5 c 128,-1,89
 744 914 744 914 821 973 c 1,90,91
 885 1024 885 1024 963 1024 c 0,92,93
 999 1024 999 1024 1039 1007.5 c 128,-1,94
 1079 991 1079 991 1116.5 968 c 0,95,96
 1119.62837672 966.081262278 1119.62837672 966.081262278 1122.51665206 964.315632681 c 1,16,17
EndSplineSet
Fore
SplineSet
1092.88850527 841.430528273 m 1,0,1
 1072.56880849 855.670989735 1072.56880849 855.670989735 1029.28440425 872.835494868 c 128,-1,2
 986 890 986 890 940.5 875 c 128,-1,3
 895 860 895 860 846.5 793.5 c 128,-1,4
 798 727 798 727 766 644.5 c 0,5,6
 693.678186969 458.045325779 693.678186969 458.045325779 698 350 c 0,7,8
 704 174 704 174 799 174 c 0,9,10
 859 174 859 174 900.5 239 c 128,-1,11
 942 304 942 304 983.746125275 435.165225861 c 128,-1,12
 1025.49225055 566.330451722 1025.49225055 566.330451722 1092.88850527 841.430528273 c 1,0,1
668.5 771.5 m 128,-1,14
 744 914 744 914 814.5 969 c 128,-1,15
 885 1024 885 1024 954.941494175 1024 c 128,-1,16
 1024.88298835 1024 1024.88298835 1024 1122.51665206 964.315632681 c 1,17,18
 1131.91995751 1003.89327668 1131.91995751 1003.89327668 1142.5 1018 c 128,-1,19
 1153 1032 1153 1032 1178 1032 c 2,20,-1
 1229 1034 l 1,21,22
 1298 1034 1298 1034 1284 969 c 1,23,-1
 1118 346 l 1,24,25
 1103 262 1103 262 1125.5 212 c 128,-1,26
 1148 162 1148 162 1193 162 c 128,-1,27
 1238 162 1238 162 1279.5 187 c 128,-1,28
 1321 212 1321 212 1365 262 c 0,29,30
 1463.45655877 373.882453152 1463.45655877 373.882453152 1516.22827939 578.941226576 c 128,-1,31
 1569 784 1569 784 1519.5 943 c 128,-1,32
 1470 1102 1470 1102 1333.5 1199 c 128,-1,33
 1197 1296 1197 1296 1004 1296 c 0,34,35
 749.125748503 1296 749.125748503 1296 561 1119.5 c 0,36,37
 380.143109641 949.819659046 380.143109641 949.819659046 297 672 c 0,38,39
 244.177313433 495.247164179 244.177313433 495.247164179 280.5 282.5 c 0,40,41
 316.323529412 72.6764705882 316.323529412 72.6764705882 466.5 -77.5 c 0,42,43
 538 -149 538 -149 650 -189.5 c 128,-1,44
 762 -230 762 -230 899 -225 c 1,45,46
 921 -223 921 -223 930 -235.5 c 128,-1,47
 939 -248 939 -248 928 -270 c 2,48,-1
 911 -301 l 2,49,50
 901 -320 901 -320 888 -326 c 128,-1,51
 875 -332 875 -332 848 -334 c 0,52,53
 704 -343 704 -343 580.5 -300 c 128,-1,54
 457 -257 457 -257 372 -177.5 c 128,-1,55
 287 -98 287 -98 226.5 10.5 c 128,-1,56
 166 119 166 119 139.5 239 c 0,57,58
 83.1429181799 494.20187994 83.1429181799 494.20187994 150.07145909 712.60093997 c 128,-1,59
 217 931 217 931 344.5 1089 c 128,-1,60
 472 1247 472 1247 641.5 1330 c 128,-1,61
 811 1413 811 1413 1001 1413 c 0,62,63
 1372.75 1413 1372.75 1413 1567 1154 c 0,64,65
 1676.78325123 1007.62233169 1676.78325123 1007.62233169 1686.5 775.5 c 0,66,67
 1691 668 1691 668 1661 555 c 1,68,69
 1601 312 1601 312 1460.5 163 c 128,-1,70
 1320 14 1320 14 1181.15859672 14 c 128,-1,71
 1042.31719344 14 1042.31719344 14 979.028250904 127.342168942 c 1,72,73
 954.6741381 95.8521347727 954.6741381 95.8521347727 903.83706905 57.9260673863 c 128,-1,74
 853 20 853 20 790.5 20 c 128,-1,75
 728 20 728 20 674.5 52 c 128,-1,76
 621 84 621 84 594 143 c 0,77,78
 529 289 529 289 561 459 c 128,-1,13
 593 629 593 629 668.5 771.5 c 128,-1,14
EndSplineSet
EndChar

StartChar: audeva
Encoding: 2324 2324 145
Width: 1591
VWidth: 0
Flags: W
HStem: 94 146<255.211 448.091> 508 139<687.918 967.5> 668 147<340.094 516.602> 1161 148<980.781 1130.75 1288.75 1455.7 1661.64 1797.81> 1190 145<539.177 680.04> 1364 129<1143.1 1389.88> 1606 129<1118.1 1334.58>
VStem: 74 125<297.511 488.406> 545 143<348.947 508> 694 142<955.129 1171.06> 860 139<6.71875 59.344> 1225 139<6.71875 59.344>
LayerCount: 2
Back
SplineSet
346 692 m 1,0,1
 319 784 l 2,2,3
 317 791 317 791 324.5 803 c 128,-1,4
 332 815 332 815 340 815 c 2,5,-1
 406 815 l 2,6,7
 506 815 506 815 600 900.5 c 128,-1,8
 694 986 694 986 694 1079 c 0,9,10
 694 1128 694 1128 677.5 1159 c 128,-1,11
 661 1190 661 1190 631 1190 c 0,12,13
 584 1190 584 1190 524 1133 c 1,14,15
 480 1110 480 1110 463 1137 c 1,16,-1
 414 1200 l 1,17,18
 401 1220 401 1220 406 1238 c 128,-1,19
 411 1256 411 1256 438 1274 c 1,20,21
 522 1335 522 1335 608 1335 c 0,22,23
 701 1335 701 1335 768.5 1249 c 128,-1,24
 836 1163 836 1163 836 1053 c 0,25,26
 836 898 836 898 721 783 c 0,27,28
 669.876104288 731.876104288 669.876104288 731.876104288 610.847020787 703.47962347 c 1,29,30
 635.30339353 678.849365128 635.30339353 678.849365128 652.73577048 647 c 1,31,-1
 1002.25 647 l 1,32,-1
 1130.75 1161 l 1,33,-1
 1032 1161 l 2,34,35
 993 1161 993 1161 985 1192 c 1,36,-1
 958 1278 l 2,37,38
 949 1309 949 1309 985 1309 c 2,39,-1
 1350 1309 l 1,40,-1
 1382 1309 l 1,41,-1
 1455.70247934 1309 l 1,42,43
 1436.09090909 1320.72727273 1436.09090909 1320.72727273 1412.5 1330 c 0,44,45
 1326 1364 1326 1364 1221 1364 c 2,46,-1
 1190 1364 l 2,47,48
 1146 1364 1146 1364 1143 1397 c 2,49,-1
 1139 1460 l 2,50,51
 1137 1480 1137 1480 1141.5 1486.5 c 128,-1,52
 1146 1493 1146 1493 1165 1493 c 2,53,-1
 1231 1493 l 1,54,-1
 1286 1493 l 2,55,56
 1338.02406414 1493 1338.02406414 1493 1391.92486407 1481.11400663 c 1,57,58
 1374.08092203 1513.87861695 1374.08092203 1513.87861695 1364 1529 c 0,59,60
 1352 1547 1352 1547 1328.5 1569 c 128,-1,61
 1305 1591 1305 1591 1274 1598.5 c 128,-1,62
 1243 1606 1243 1606 1196 1606 c 2,63,-1
 1165 1606 l 2,64,65
 1121 1606 1121 1606 1118 1638 c 2,66,-1
 1112 1702 l 2,67,68
 1110 1722 1110 1722 1115 1728.5 c 128,-1,69
 1120 1735 1120 1735 1139 1735 c 2,70,71
 1204 1735 l 1,72,-1
 1260 1735 l 2,73,74
 1442 1735 1442 1735 1530 1563 c 1,75,-1
 1661.64119601 1309 l 1,76,-1
 1747 1309 l 2,77,78
 1785 1309 1785 1309 1794 1278 c 2,79,-1
 1819 1192 l 1,80,81
 1822 1176 1822 1176 1816.5 1168.5 c 128,-1,82
 1811 1161 1811 1161 1792 1161 c 2,83,-1
 1653.75 1161 l 1,84,-1
 1364 2 l 1,85,86
 1360 -20 1360 -20 1350 -24.5 c 128,-1,87
 1340 -29 1340 -29 1321 -20 c 2,88,-1
 1247 18 l 1,89,90
 1215 33 1215 33 1225 78 c 1,91,-1
 1495.75 1161 l 1,92,-1
 1427 1161 l 1,93,-1
 1397 1161 l 1,94,-1
 1288.75 1161 l 1,95,-1
 999 2 l 1,96,97
 995 -20 995 -20 985 -24.5 c 128,-1,98
 975 -29 975 -29 956 -20 c 2,99,-1
 883 18 l 1,100,101
 850 34 850 34 860 78 c 2,102,-1
 967.5 508 l 1,103,-1
 687.918381806 508 l 1,104,105
 688 504.023805306 688 504.023805306 688 500 c 0,106,107
 688 458 688 458 677 407.5 c 128,-1,108
 666 357 666 357 639.5 301 c 128,-1,109
 613 245 613 245 575.5 199.5 c 128,-1,110
 538 154 538 154 478.5 124 c 128,-1,111
 419 94 419 94 348 94 c 0,112,113
 284 94 284 94 231 128 c 128,-1,114
 178 162 178 162 145.5 217 c 128,-1,115
 113 272 113 272 94.5 335.5 c 128,-1,116
 76 399 76 399 74 463 c 1,117,118
 74 502 74 502 115 496 c 1,119,-1
 162 487 l 1,120,121
 173 486 173 486 180.5 481.5 c 128,-1,122
 188 477 188 477 192.5 467 c 128,-1,123
 197 457 197 457 199 450 c 128,-1,124
 201 443 201 443 203.5 426.5 c 128,-1,125
 206 410 206 410 207 403 c 0,126,127
 225 313 225 313 258 276.5 c 128,-1,128
 291 240 291 240 340 240 c 0,129,130
 402 240 402 240 451 287.5 c 128,-1,131
 500 335 500 335 522.5 396 c 128,-1,132
 545 457 545 457 545 514 c 0,133,134
 545 590 545 590 518.5 622.5 c 0,135,136
 493.702837752 652.911614078 493.702837752 652.911614078 427.314056225 668 c 1,137,-1
 389 668 l 2,138,139
 368 668 368 668 360 672 c 128,-1,140
 352 676 352 676 346 692 c 1,0,1
EndSplineSet
Fore
SplineSet
1455.70247934 1309 m 1,0,1
 1363.72573517 1364 1363.72573517 1364 1221 1364 c 2,2,-1
 1190 1364 l 2,3,4
 1146 1364 1146 1364 1143 1397 c 2,5,-1
 1139 1460 l 2,6,7
 1137 1480 1137 1480 1141.5 1486.5 c 128,-1,8
 1146 1493 1146 1493 1165 1493 c 2,9,-1
 1286 1493 l 2,10,11
 1338.02406414 1493 1338.02406414 1493 1391.92486407 1481.11400663 c 1,12,13
 1336.18935379 1583.4541886 1336.18935379 1583.4541886 1274 1598.5 c 0,14,15
 1243 1606 1243 1606 1196 1606 c 2,16,-1
 1165 1606 l 2,17,18
 1121 1606 1121 1606 1118 1638 c 2,19,-1
 1112 1702 l 2,20,21
 1110 1722 1110 1722 1115 1728.5 c 128,-1,22
 1120 1735 1120 1735 1139 1735 c 2,23,-1
 1260 1735 l 2,24,25
 1442 1735 1442 1735 1530 1563 c 1,26,-1
 1661.64119601 1309 l 1,27,-1
 1747 1309 l 2,28,29
 1785 1309 1785 1309 1794 1278 c 2,30,-1
 1819 1192 l 1,31,32
 1824.8125 1161 1824.8125 1161 1792 1161 c 2,33,-1
 1653.75 1161 l 1,34,-1
 1364 2 l 1,35,36
 1356.90748899 -37.0088105727 1356.90748899 -37.0088105727 1321 -20 c 1,37,-1
 1247 18 l 1,38,39
 1215 33 1215 33 1225 78 c 1,40,-1
 1495.75 1161 l 1,41,-1
 1288.75 1161 l 1,42,-1
 999 2 l 1,43,44
 991.907488987 -37.0088105727 991.907488987 -37.0088105727 956 -20 c 1,45,-1
 883 18 l 1,46,47
 850 34 850 34 860 78 c 2,48,-1
 967.5 508 l 1,49,-1
 687.918381806 508 l 1,50,51
 688 504.023805306 688 504.023805306 688 481.011902653 c 128,-1,52
 688 458 688 458 677 407.5 c 128,-1,53
 666 357 666 357 639.5 301 c 128,-1,54
 613 245 613 245 575.5 199.5 c 128,-1,55
 538 154 538 154 478.5 124 c 128,-1,56
 419 94 419 94 351.5 94 c 128,-1,57
 284 94 284 94 231 128 c 128,-1,58
 178 162 178 162 145.5 217 c 0,59,60
 78.1243654822 331.020304569 78.1243654822 331.020304569 74 463 c 1,61,62
 74 502 74 502 115 496 c 1,63,-1
 162 487 l 1,64,65
 184.417061611 484.962085308 184.417061611 484.962085308 190.708530806 470.981042654 c 128,-1,66
 197 457 197 457 199 450 c 0,67,68
 201.571428571 441 201.571428571 441 213.285714286 377 c 128,-1,69
 225 313 225 313 258 276.5 c 128,-1,70
 291 240 291 240 346.5 240 c 128,-1,71
 402 240 402 240 451 287.5 c 0,72,73
 545 378.62244898 545 378.62244898 545 514 c 0,74,75
 545 590 545 590 519.351418876 621.455807039 c 128,-1,76
 493.702837752 652.911614078 493.702837752 652.911614078 427.314056225 668 c 1,77,-1
 389 668 l 2,78,79
 368 668 368 668 360 672 c 128,-1,80
 352 676 352 676 346 692 c 1,81,-1
 319 784 l 2,82,83
 317 791 317 791 324.5 803 c 128,-1,84
 332 815 332 815 340 815 c 2,85,-1
 406 815 l 2,86,87
 506 815 506 815 600 900.5 c 128,-1,88
 694 986 694 986 694 1079 c 0,89,90
 694 1128 694 1128 677.5 1159 c 128,-1,91
 661 1190 661 1190 622.5 1190 c 128,-1,92
 584 1190 584 1190 524 1133 c 1,93,94
 480 1110 480 1110 463 1137 c 1,95,-1
 414 1200 l 1,96,97
 387.697674419 1240.46511628 387.697674419 1240.46511628 438 1274 c 1,98,99
 522 1335 522 1335 611.5 1335 c 128,-1,100
 701 1335 701 1335 768.5 1249 c 128,-1,101
 836 1163 836 1163 836 1053 c 0,102,103
 836 898 836 898 721 783 c 0,104,105
 669.876104288 731.876104288 669.876104288 731.876104288 610.847020787 703.47962347 c 1,106,107
 635.30339353 678.849365128 635.30339353 678.849365128 652.73577048 647 c 1,108,-1
 1002.25 647 l 1,109,-1
 1130.75 1161 l 1,110,-1
 1032 1161 l 2,111,112
 993 1161 993 1161 985 1192 c 1,113,-1
 958 1278 l 2,114,115
 949 1309 949 1309 985 1309 c 2,116,-1
 1455.70247934 1309 l 1,0,1
EndSplineSet
EndChar

StartChar: ausign_ra_virama.alt1
Encoding: 65551 -1 146
Width: 454
VWidth: 0
Flags: W
HStem: 1161 148<188.781 290.438 496.75 640.813> 1364 129<-22.896 224.248> 1575 154<493.085 721> 1606 129<-46.8962 141.992>
VStem: 68 139<6.71875 59.344>
LayerCount: 2
Back
SplineSet
-47 1638 m 2,0,1
 -53 1702 l 2,2,3
 -55 1722 -55 1722 -50.5 1728.5 c 128,-1,4
 -46 1735 -46 1735 -27 1735 c 2,5,-1
 39 1735 l 1,6,-1
 94 1735 l 2,7,8
 262.634713057 1735 262.634713057 1735 350.598808522 1588.94372394 c 1,9,10
 373.496785834 1627.11596814 373.496785834 1627.11596814 412 1656.5 c 0,11,12
 507 1729 507 1729 647 1729 c 2,13,-1
 684 1729 l 2,14,15
 704 1729 704 1729 712.5 1720.5 c 128,-1,16
 721 1712 721 1712 721 1692 c 2,17,-1
 721 1612 l 2,18,19
 721 1592 721 1592 712.5 1583.5 c 128,-1,20
 704 1575 704 1575 684 1575 c 2,21,-1
 647 1575 l 2,22,23
 570 1575 570 1575 505 1538.5 c 128,-1,24
 440 1502 440 1502 440 1440 c 0,25,26
 440 1427.85742355 440 1427.85742355 440.345848571 1416.6832231 c 1,27,-1
 495.797342193 1309 l 1,28,-1
 590 1309 l 2,29,30
 628 1309 628 1309 637 1278 c 2,31,-1
 662 1192 l 1,32,33
 665 1176 665 1176 659.5 1168.5 c 128,-1,34
 654 1161 654 1161 635 1161 c 2,35,-1
 496.75 1161 l 1,36,-1
 207 2 l 1,37,38
 203 -20 203 -20 193 -24.5 c 128,-1,39
 183 -29 183 -29 164 -20 c 2,40,-1
 90 18 l 1,41,42
 58 33 58 33 68 78 c 1,43,-1
 338.75 1161 l 1,44,-1
 240 1161 l 2,45,46
 201 1161 201 1161 193 1192 c 1,47,-1
 166 1278 l 2,48,49
 157 1309 157 1309 193 1309 c 2,50,-1
 290.438016529 1309 l 1,51,52
 270.727272727 1320.72727273 270.727272727 1320.72727273 247 1330 c 0,53,54
 160 1364 160 1364 55 1364 c 2,55,-1
 25 1364 l 2,56,57
 -20 1364 -20 1364 -23 1397 c 2,58,-1
 -27 1460 l 2,59,60
 -29 1480 -29 1480 -24 1486.5 c 128,-1,61
 -19 1493 -19 1493 0 1493 c 2,62,-1
 66 1493 l 1,63,-1
 121 1493 l 2,64,65
 172.595278781 1493 172.595278781 1493 225.91342272 1481.30912929 c 1,66,67
 212.229994261 1506.75334226 212.229994261 1506.75334226 205 1518 c 0,68,69
 196 1532 196 1532 178.5 1554 c 128,-1,70
 161 1576 161 1576 143.5 1584 c 128,-1,71
 126 1592 126 1592 97.5 1599 c 128,-1,72
 69 1606 69 1606 31 1606 c 2,73,-1
 0 1606 l 2,74,75
 -44 1606 -44 1606 -47 1638 c 2,0,1
EndSplineSet
Fore
SplineSet
290.438016529 1309 m 1,0,1
 197.996156084 1364 197.996156084 1364 55 1364 c 2,2,-1
 25 1364 l 2,3,4
 -20 1364 -20 1364 -23 1397 c 2,5,-1
 -27 1460 l 2,6,7
 -29 1480 -29 1480 -24 1486.5 c 128,-1,8
 -19 1493 -19 1493 0 1493 c 2,9,-1
 121 1493 l 2,10,11
 172.595278781 1493 172.595278781 1493 225.91342272 1481.30912929 c 1,12,13
 179.551069364 1567.51951115 179.551069364 1567.51951115 143.5 1584 c 0,14,15
 95.375 1606 95.375 1606 31 1606 c 2,16,-1
 0 1606 l 2,17,18
 -44 1606 -44 1606 -47 1638 c 2,19,-1
 -53 1702 l 2,20,21
 -55 1722 -55 1722 -50.5 1728.5 c 128,-1,22
 -46 1735 -46 1735 -27 1735 c 2,23,-1
 94 1735 l 2,24,25
 262.634713057 1735 262.634713057 1735 350.598808522 1588.94372394 c 1,26,27
 373.496785834 1627.11596814 373.496785834 1627.11596814 412 1656.5 c 0,28,29
 507 1729 507 1729 647 1729 c 2,30,-1
 684 1729 l 2,31,32
 721 1729 721 1729 721 1692 c 2,33,-1
 721 1612 l 2,34,35
 721 1575 721 1575 684 1575 c 2,36,-1
 647 1575 l 2,37,38
 570 1575 570 1575 505 1538.5 c 128,-1,39
 440 1502 440 1502 440 1440 c 0,40,41
 440 1427.85742355 440 1427.85742355 440.345848571 1416.6832231 c 1,42,-1
 495.797342193 1309 l 1,43,-1
 590 1309 l 2,44,45
 628 1309 628 1309 637 1278 c 2,46,-1
 662 1192 l 1,47,48
 667.8125 1161 667.8125 1161 635 1161 c 2,49,-1
 496.75 1161 l 1,50,-1
 207 2 l 1,51,52
 199.907488987 -37.0088105727 199.907488987 -37.0088105727 164 -20 c 1,53,-1
 90 18 l 1,54,55
 58 33 58 33 68 78 c 1,56,-1
 338.75 1161 l 1,57,-1
 240 1161 l 2,58,59
 201 1161 201 1161 193 1192 c 1,60,-1
 166 1278 l 2,61,62
 157 1309 157 1309 193 1309 c 2,63,-1
 290.438016529 1309 l 1,0,1
EndSplineSet
Ligature2: "AboveBaseSubstitutionslookup subtable" ausigndeva radeva_viramadeva
EndChar

StartChar: ausign_ra_virama_anusvara
Encoding: 65552 -1 147
Width: 454
VWidth: 0
Flags: W
HStem: 1161 148<188.781 310.702 516.641 640.813> 1327 195<585.343 727.185> 1364 129<-1.89624 244.879> 1575 154<514.085 741> 1606 129<-26.8962 189.429>
VStem: 68 139<6.71875 59.344> 571 183<1356.39 1509.89>
LayerCount: 2
Back
SplineSet
571 1423 m 0,0,1
 571 1463 571 1463 596 1492.5 c 128,-1,2
 621 1522 621 1522 657 1522 c 2,3,-1
 674 1522 l 2,4,5
 704 1522 704 1522 729 1491.5 c 128,-1,6
 754 1461 754 1461 754 1423 c 0,7,8
 754 1384 754 1384 728 1355.5 c 128,-1,9
 702 1327 702 1327 664 1327 c 2,10,-1
 649 1327 l 2,11,12
 618 1327 618 1327 594.5 1356 c 128,-1,13
 571 1385 571 1385 571 1423 c 0,0,1
-27 1638 m 2,14,15
 -33 1702 l 2,16,17
 -35 1722 -35 1722 -30 1728.5 c 128,-1,18
 -25 1735 -25 1735 -6 1735 c 2,19,-1
 59 1735 l 1,20,-1
 115 1735 l 2,21,22
 283.189216289 1735 283.189216289 1735 371.103237169 1588.11347223 c 1,23,24
 394.078583533 1626.79681375 394.078583533 1626.79681375 433 1656.5 c 0,25,26
 528 1729 528 1729 668 1729 c 2,27,-1
 705 1729 l 2,28,29
 725 1729 725 1729 733 1720.5 c 128,-1,30
 741 1712 741 1712 741 1692 c 2,31,-1
 741 1612 l 2,32,33
 741 1592 741 1592 733 1583.5 c 128,-1,34
 725 1575 725 1575 705 1575 c 2,35,-1
 668 1575 l 2,36,37
 592 1575 592 1575 526.5 1538.5 c 128,-1,38
 461 1502 461 1502 461 1440 c 0,39,40
 461 1427.28234223 461 1427.28234223 461.379383607 1415.62695855 c 1,41,-1
 516.641196013 1309 l 1,42,-1
 590 1309 l 2,43,44
 628 1309 628 1309 637 1278 c 2,45,-1
 662 1192 l 1,46,47
 665 1176 665 1176 659.5 1168.5 c 128,-1,48
 654 1161 654 1161 635 1161 c 2,49,-1
 496.75 1161 l 1,50,-1
 207 2 l 1,51,52
 203 -20 203 -20 193 -24.5 c 128,-1,53
 183 -29 183 -29 164 -20 c 2,54,-1
 90 18 l 1,55,56
 58 33 58 33 68 78 c 1,57,-1
 338.75 1161 l 1,58,-1
 240 1161 l 2,59,60
 201 1161 201 1161 193 1192 c 1,61,-1
 166 1278 l 2,62,63
 157 1309 157 1309 193 1309 c 2,64,-1
 310.702479339 1309 l 1,65,66
 291.090909091 1320.72727273 291.090909091 1320.72727273 267.5 1330 c 0,67,68
 181 1364 181 1364 76 1364 c 2,69,-1
 45 1364 l 2,70,71
 1 1364 1 1364 -2 1397 c 2,72,-1
 -6 1460 l 2,73,74
 -8 1480 -8 1480 -3.5 1486.5 c 128,-1,75
 1 1493 1 1493 20 1493 c 2,76,-1
 86 1493 l 1,77,-1
 141 1493 l 2,78,79
 193.024064136 1493 193.024064136 1493 246.924864069 1481.11400663 c 1,80,81
 229.080922035 1513.87861695 229.080922035 1513.87861695 219 1529 c 0,82,83
 207 1547 207 1547 183.5 1569 c 128,-1,84
 160 1591 160 1591 129 1598.5 c 128,-1,85
 98 1606 98 1606 51 1606 c 2,86,-1
 20 1606 l 2,87,88
 -24 1606 -24 1606 -27 1638 c 2,14,15
EndSplineSet
Fore
SplineSet
594.5 1356 m 128,-1,1
 571 1385 571 1385 571 1424 c 128,-1,2
 571 1463 571 1463 596 1492.5 c 128,-1,3
 621 1522 621 1522 657 1522 c 2,4,-1
 674 1522 l 2,5,6
 704 1522 704 1522 729 1491.5 c 128,-1,7
 754 1461 754 1461 754 1422.5 c 128,-1,8
 754 1384 754 1384 728 1355.5 c 128,-1,9
 702 1327 702 1327 664 1327 c 2,10,-1
 649 1327 l 2,11,0
 618 1327 618 1327 594.5 1356 c 128,-1,1
310.702479339 1309 m 1,12,13
 218.725735174 1364 218.725735174 1364 76 1364 c 2,14,-1
 45 1364 l 2,15,16
 1 1364 1 1364 -2 1397 c 2,17,-1
 -6 1460 l 2,18,19
 -8 1480 -8 1480 -3.5 1486.5 c 128,-1,20
 1 1493 1 1493 20 1493 c 2,21,-1
 141 1493 l 2,22,23
 193.024064136 1493 193.024064136 1493 246.924864069 1481.11400663 c 1,24,25
 191.189353807 1583.4541886 191.189353807 1583.4541886 129 1598.5 c 0,26,27
 98 1606 98 1606 51 1606 c 2,28,-1
 20 1606 l 2,29,30
 -24 1606 -24 1606 -27 1638 c 2,31,-1
 -33 1702 l 2,32,33
 -35 1722 -35 1722 -30 1728.5 c 128,-1,34
 -25 1735 -25 1735 -6 1735 c 2,35,-1
 115 1735 l 2,36,37
 283.189216289 1735 283.189216289 1735 371.103237169 1588.11347223 c 1,38,39
 394.078583533 1626.79681375 394.078583533 1626.79681375 433 1656.5 c 0,40,41
 528 1729 528 1729 668 1729 c 2,42,-1
 705 1729 l 2,43,44
 741 1729 741 1729 741 1692 c 2,45,-1
 741 1612 l 2,46,47
 741 1575 741 1575 705 1575 c 2,48,-1
 668 1575 l 2,49,50
 592 1575 592 1575 526.5 1538.5 c 128,-1,51
 461 1502 461 1502 461 1440 c 0,52,53
 461 1427.28234223 461 1427.28234223 461.379383607 1415.62695855 c 1,54,-1
 516.641196013 1309 l 1,55,-1
 590 1309 l 2,56,57
 628 1309 628 1309 637 1278 c 2,58,-1
 662 1192 l 1,59,60
 667.8125 1161 667.8125 1161 635 1161 c 2,61,-1
 496.75 1161 l 1,62,-1
 207 2 l 1,63,64
 199.907488987 -37.0088105727 199.907488987 -37.0088105727 164 -20 c 1,65,-1
 90 18 l 1,66,67
 58 33 58 33 68 78 c 1,68,-1
 338.75 1161 l 1,69,-1
 240 1161 l 2,70,71
 201 1161 201 1161 193 1192 c 1,72,-1
 166 1278 l 2,73,74
 157 1309 157 1309 193 1309 c 2,75,-1
 310.702479339 1309 l 1,12,13
EndSplineSet
Ligature2: "AboveBaseSubstitutionslookup subtable" ausigndeva radeva_viramadeva anusvaradeva
EndChar

